<?xml version="1.0" encoding="utf-8"?>
<!-- Generator: Adobe Illustrator 18.1.1, SVG Export Plug-In . SVG Version: 6.00 Build 0)  -->
<svg version="1.1" id="Layer_1" xmlns="http://www.w3.org/2000/svg" xmlns:xlink="http://www.w3.org/1999/xlink" x="0px" y="0px"
	 viewBox="0 0 1500 420" enable-background="new 0 0 1500 420" xml:space="preserve">
<g>
	<polygon fill="#FFFFFF" points="277.5,244.9 277.5,284.5 317.1,284.5 	"/>
	<path fill="#FFFFFF" d="M387.9,284.5l-49.8-49.8c27-1.2,48-22.8,48-49.8c0-27.6-22.2-49.8-49.8-49.8h-58.8v25.2h58.8
		c13.8,0,25.2,11.4,25.2,25.2s-11.4,25.2-25.2,25.2h-58.8l75,75h35.4V284.5z"/>
	<polygon fill="#FFFFFF" points="3.9,174.7 3.9,135.1 43.5,135.1 	"/>
	<path fill="#FFFFFF" d="M114.3,135.1l-49.8,49.8c27,1.2,48,22.8,48,49.8c0,27.6-22.2,49.8-49.8,49.8H3.9v-25.2h58.8
		c13.8,0,25.2-11.4,25.2-25.2s-11.4-25.2-25.2-25.2H3.9l75-75h35.4V135.1z"/>
	<path fill="#FFFFFF" d="M177.3,135.1h-39.6v25.2h39.6c27.6,0,49.8,22.2,49.8,49.8s-22.2,49.8-49.8,49.8h-15v-49.8h-25.2v75h39.6
		c41.4,0,75-33.6,75-75C252.3,168.7,218.7,135.1,177.3,135.1"/>
	<g opacity="0.29">
		<g>
			<g>
				<g>
					<defs>
						<rect id="SVGID_1_" x="472.5" y="112.9" width="9" height="204"/>
					</defs>
					<clipPath id="SVGID_2_">
						<use xlink:href="#SVGID_1_"  overflow="visible"/>
					</clipPath>
					<rect x="472.5" y="112.9" clip-path="url(#SVGID_2_)" fill="#FFFFFF" width="9" height="204"/>
				</g>
			</g>
		</g>
	</g>
	<g>
		<path fill="#FFFFFF" d="M675.3,249.1c0,21-14.4,35.4-37.8,35.4h-71.4V139.9h71.4c22.8,0,37.8,13.2,37.8,34.8V249.1L675.3,249.1z
			 M652.5,181.3c0-13.2-4.8-21.6-19.2-21.6h-45v105.6h45c14.4,0,19.2-7.8,19.2-21.6V181.3z"/>
		<path fill="#FFFFFF" d="M810.9,284.5h-25.8l-31.2-58.8h-33.6v58.8h-22.2V139.9h70.2c22.8,0,37.8,12.6,37.8,33.6v15.6
			c0,17.4-8.4,32.4-30,34.8L810.9,284.5z M762.3,207.1c16.8,0,21.6-6.6,21.6-19.8v-8.4c0-13.2-6-19.2-19.8-19.2h-43.2v47.4H762.3z"
			/>
		<path fill="#FFFFFF" d="M858.9,284.5c-22.8,0-37.2-13.2-37.2-34.2v-75.6c0-21,14.4-34.8,37.2-34.8h33.6
			c22.8,0,37.2,13.2,37.2,34.8v75.6c0,21-14.4,34.2-37.2,34.2H858.9z M863.1,159.7c-14.4,0-18.6,7.8-18.6,21.6v62.4
			c0,13.2,4.8,21.6,18.6,21.6h26.4c14.4,0,18.6-7.8,18.6-21.6v-62.4c0-13.2-4.8-21.6-18.6-21.6H863.1z"/>
		<path fill="#FFFFFF" d="M1041.3,139.9h21v144.6h-27l-60.6-117v117h-21V139.9h28.8l58.8,112.8L1041.3,139.9L1041.3,139.9z"/>
		<path fill="#FFFFFF" d="M1087.5,139.9h99v19.8h-76.8v42h66v19.8h-66v43.8h76.8v19.8h-99V139.9z"/>
		<path fill="#FFFFFF" d="M1270.5,210.7l48.6,73.8h-27l-39.6-62.4h-24v62.4h-22.2V139.9h22.2v61.8h23.4l40.8-61.8h26.4L1270.5,210.7
			z"/>
		<path fill="#FFFFFF" d="M1332.3,139.9h22.2v144.6h-22.2V139.9z"/>
		<path fill="#FFFFFF" d="M1412.1,159.7h-43.2v-19.8h109.2v19.8h-43.2v124.8h-22.8V159.7L1412.1,159.7z"/>
	</g>
</g>
</svg>
