<?xml version="1.0" standalone="no"?>
<!DOCTYPE svg PUBLIC "-//W3C//DTD SVG 1.1//EN" "http://www.w3.org/Graphics/SVG/1.1/DTD/svg11.dtd" >
<svg xmlns="http://www.w3.org/2000/svg" xmlns:xlink="http://www.w3.org/1999/xlink" version="1.1">
<metadata></metadata>
<defs>
<font id="copenhagenlight" horiz-adv-x="1034" >
<font-face units-per-em="2048" ascent="1536" descent="-512" />
<missing-glyph horiz-adv-x="409" />
<glyph unicode="&#xfb01;" horiz-adv-x="1060" d="M0 870l45 177h148v194q0 122 83 200.5t240 78.5h438v-183h-397q-82 0 -115.5 -39t-33.5 -114v-137h546v-1047h-215v870h-331v-870h-215v870h-193z" />
<glyph unicode="&#xfb02;" horiz-adv-x="1124" d="M0 870l45 177h148v194q0 122 83 200.5t240 78.5h438v-1252q0 -50 19 -68t59 -18h84v-182h-117q-79 0 -131 17.5t-80 52.5t-38.5 78.5t-10.5 105.5v1083h-182q-82 0 -115.5 -39t-33.5 -114v-137h213v-177h-213v-870h-215v870h-193z" />
<glyph horiz-adv-x="0" />
<glyph horiz-adv-x="682" />
<glyph unicode=" "  horiz-adv-x="409" />
<glyph unicode="&#x09;" horiz-adv-x="409" />
<glyph unicode="&#xa0;" horiz-adv-x="409" />
<glyph unicode="!" horiz-adv-x="505" d="M121 0v303h260v-303h-260zM139 444v990h228v-990h-228z" />
<glyph unicode="&#x22;" horiz-adv-x="808" d="M96 799v635h221v-635h-221zM492 799v635h221v-635h-221z" />
<glyph unicode="#" horiz-adv-x="1150" d="M53 444v113h248v326h-248v112h248v441h133v-441h283v441h133v-441h248v-112h-248v-326h248v-113h-248v-444h-133v444h-283v-444h-133v444h-248zM434 557h283v326h-283v-326z" />
<glyph unicode="$" horiz-adv-x="1208" d="M72 332v110h221v-73q0 -99 41 -136.5t147 -37.5h37v446l-168 39q-142 32 -210 101.5t-68 203.5v115q0 158 96.5 246t265.5 88h84v196h150v-196h114q167 0 259 -90t92 -248v-78h-222v49q0 102 -42.5 147.5t-147.5 45.5h-53v-443l184 -41q143 -32 216 -99.5t73 -203.5v-133 q0 -159 -92.5 -249.5t-260.5 -90.5h-120v-215h-150v215h-117q-167 0 -248 85.5t-81 246.5zM293 1020q0 -77 31 -103.5t135 -50.5l59 -14v408h-37q-104 0 -146 -39t-42 -131v-70zM668 195h59q110 0 151.5 34.5t41.5 137.5v41q0 36 -3.5 60.5t-14.5 43.5t-22 30t-36 21.5 t-46.5 16t-62.5 14.5l-67 14v-413z" />
<glyph unicode="%" horiz-adv-x="1718" d="M53 981v143q0 132 75 221t206 89h112q130 0 205.5 -89t75.5 -221v-143q0 -130 -75.5 -218.5t-205.5 -88.5h-112q-131 0 -206 88t-75 219zM139 0l1258 1434h188l-1257 -1434h-189zM229 981q0 -76 27 -118t96 -42h74q70 0 96.5 41.5t26.5 118.5v143q0 78 -26.5 120 t-96.5 42h-74q-69 0 -96 -42t-27 -120v-143zM991 307v144q0 132 75 220.5t206 88.5h112q131 0 206 -88.5t75 -220.5v-144q0 -131 -75 -219t-206 -88h-112q-131 0 -206 88t-75 219zM1169 307q0 -77 26.5 -118.5t96.5 -41.5h72q70 0 96.5 41.5t26.5 118.5v144 q0 78 -26.5 119.5t-96.5 41.5h-72q-70 0 -96.5 -41.5t-26.5 -119.5v-144z" />
<glyph unicode="&#x26;" horiz-adv-x="1329" d="M59 289v22q0 126 115 234l197 176l-121 102q-152 129 -152 277v33q0 139 85.5 220t258.5 81h207q151 0 241.5 -73.5t90.5 -203.5q0 -81 -33 -135.5t-96 -112.5l-184 -172l297 -256l297 320v-287l-148 -158l148 -125v-231h-43l-242 205l-59 -60q-87 -87 -160.5 -116 t-190.5 -29h-188q-149 0 -234.5 78t-85.5 211zM297 305q0 -63 38 -86.5t118 -23.5h129q60 0 106 21t100 79l35 39l-313 270l-139 -131q-74 -69 -74 -131v-37zM319 1112q0 -47 35.5 -91t100.5 -97l73 -62l242 232v45q0 72 -38.5 98.5t-106.5 26.5h-164q-76 0 -109 -33 t-33 -101v-18z" />
<glyph unicode="'" horiz-adv-x="413" d="M96 799v635h221v-635h-221z" />
<glyph unicode="(" horiz-adv-x="526" d="M66 543v121q0 250 84 487.5t233 392.5h149q-125 -194 -182 -411.5t-57 -501.5v-56q0 -284 57 -501.5t182 -411.5h-149q-149 154 -233 392.5t-84 488.5z" />
<glyph unicode=")" horiz-adv-x="526" d="M-6 -338q125 194 182 411.5t57 501.5v56q0 284 -57 501.5t-182 411.5h149q149 -155 233.5 -392.5t84.5 -487.5v-121q0 -250 -84.5 -488t-233.5 -393h-149z" />
<glyph unicode="*" horiz-adv-x="1126" d="M47 985l70 189l393 -175l-57 435h223l-60 -435l394 175l69 -189l-428 -96l342 -348l-162 -109l-268 363l-268 -363l-162 109l342 348z" />
<glyph unicode="+" horiz-adv-x="1167" d="M47 610v195h426v469h221v-469h426v-195h-426v-469h-221v469h-426z" />
<glyph unicode="," horiz-adv-x="419" d="M96 303h228v-543l-228 -88v631z" />
<glyph unicode="-" horiz-adv-x="708" d="M82 539v204h545v-204h-545z" />
<glyph unicode="." horiz-adv-x="493" d="M96 0v303h301v-303h-301z" />
<glyph unicode="/" horiz-adv-x="589" d="M12 -268l385 1702h152l-379 -1702h-158z" />
<glyph unicode="0" horiz-adv-x="1218" d="M102 340v752q0 158 100 250t271 92h272q171 0 271 -92t100 -250v-752q0 -157 -100.5 -248.5t-270.5 -91.5h-272q-170 0 -270.5 91.5t-100.5 248.5zM324 408q0 -105 42.5 -159t143.5 -54h199q101 0 143.5 54t42.5 159v618q0 105 -42.5 159t-143.5 54h-199 q-101 0 -143.5 -54t-42.5 -159v-618z" />
<glyph unicode="1" horiz-adv-x="493" d="M125 0v1350l221 71v-1421h-221z" />
<glyph unicode="2" horiz-adv-x="1140" d="M74 918v167q0 161 102.5 255t276.5 94h237q177 0 274 -90t97 -261v-79q0 -174 -127 -291l-576 -518h711v-195h-991v205l657 596q52 47 78.5 95.5t26.5 115.5v24q0 112 -52 157.5t-172 45.5h-88q-127 0 -180 -42t-53 -161v-118h-221z" />
<glyph unicode="3" horiz-adv-x="1142" d="M45 324v65h219q0 -118 50 -156t175 -38h142q118 0 164.5 50.5t46.5 174.5v43q0 121 -55.5 173t-176.5 54l-303 2v172l477 375h-692l19 195h933v-217l-434 -332h78q174 0 274.5 -95.5t100.5 -257.5v-178q0 -162 -102 -258t-275 -96h-268q-176 0 -274.5 83t-98.5 241z" />
<glyph unicode="4" horiz-adv-x="1171" d="M27 365v231l602 838h336v-883h176v-186h-176v-365h-222v365h-716zM217 551h526v743z" />
<glyph unicode="5" horiz-adv-x="1159" d="M66 324v65h219q0 -118 50 -156t175 -38h141q118 0 164.5 50.5t46.5 174.5v125q0 121 -55.5 174t-175.5 53h-96q-43 0 -78 -12.5t-54.5 -30t-33.5 -34.5t-19 -29l-4 -13l-242 33l46 748h882v-195h-706l-23 -387q28 50 95 82.5t163 32.5h148q174 0 274 -95.5t100 -257.5 v-260q0 -162 -101.5 -258t-274.5 -96h-269q-176 0 -274 83t-98 241z" />
<glyph unicode="6" horiz-adv-x="1206" d="M102 342v745q0 157 101.5 252t271.5 95h275q173 0 271.5 -83t98.5 -237v-70h-221q0 104 -41.5 149.5t-144.5 45.5h-203q-101 0 -143.5 -54t-42.5 -159v-244q25 45 77 72.5t93 35t77 7.5h174q170 0 270.5 -91.5t100.5 -248.5v-215q0 -158 -100 -250t-271 -92h-272 q-171 0 -271 92t-100 250zM324 408q0 -105 42.5 -159t143.5 -54h199q101 0 143.5 54t42.5 159v81q0 105 -42.5 159t-143.5 54h-199q-186 0 -186 -192v-102z" />
<glyph unicode="7" horiz-adv-x="1105" d="M41 1006v428h1042v-240l-583 -1194h-260l643 1239h-629v-233h-213z" />
<glyph unicode="8" horiz-adv-x="1198" d="M74 311v64q0 183 168 266l170 84l-156 88q-89 52 -125.5 113.5t-36.5 142.5v70q0 136 89.5 215.5t242.5 79.5h346q153 0 242.5 -79.5t89.5 -215.5v-70q0 -81 -36.5 -142.5t-125.5 -113.5l-156 -88l170 -84q168 -83 168 -266v-64q0 -138 -82.5 -224.5t-228.5 -86.5h-428 q-146 0 -228.5 86.5t-82.5 224.5zM301 336q0 -80 43 -110.5t131 -30.5h246q88 0 131 30.5t43 110.5v45q0 64 -33 101t-117 73l-147 66l-147 -66q-84 -36 -117 -73t-33 -101v-45zM315 1085q0 -47 17 -76.5t69 -58.5l199 -114l197 114q52 29 69 58.5t17 76.5v23 q0 78 -33 104.5t-111 26.5h-280q-78 0 -111 -26.5t-33 -104.5v-23z" />
<glyph unicode="9" horiz-adv-x="1202" d="M84 319v70h221q0 -104 41.5 -149t145.5 -45h202q101 0 144 54t43 159v243q-25 -45 -77.5 -72.5t-93 -34.5t-77.5 -7h-174q-170 0 -270.5 91.5t-100.5 248.5v215q0 158 100 250t271 92h272q171 0 271 -92t100 -250v-746q0 -157 -101.5 -251.5t-271.5 -94.5h-274 q-173 0 -272 82.5t-99 236.5zM309 944q0 -105 43 -159t144 -54h198q187 0 187 193v102q0 105 -43 159t-144 54h-198q-101 0 -144 -54t-43 -159v-82z" />
<glyph unicode=":" horiz-adv-x="514" d="M127 0v303h260v-303h-260zM127 743v304h260v-304h-260z" />
<glyph unicode=";" horiz-adv-x="499" d="M119 743v304h260v-304h-260zM137 303h228v-543l-228 -88v631z" />
<glyph unicode="&#x3c;" horiz-adv-x="1513" d="M102 735v25l750 583v-411h559v-369h-559v-411z" />
<glyph unicode="=" horiz-adv-x="1011" d="M92 422v188h828v-188h-828zM92 825v189h828v-189h-828z" />
<glyph unicode="&#x3e;" horiz-adv-x="1513" d="M102 563v369h560v411l749 -583v-25l-749 -583v411h-560z" />
<glyph unicode="?" horiz-adv-x="1036" d="M47 985v100q0 162 97.5 255.5t289.5 93.5h162q181 0 282 -87t101 -255v-88q0 -93 -26 -154.5t-93 -122.5l-252 -233v-48h-221v129l285 256q78 68 78 170v17q0 132 -46 176.5t-180 44.5h-12q-70 0 -111 -8t-71.5 -31.5t-42 -66t-11.5 -111.5v-37h-229zM369 0v303h260v-303 h-260z" />
<glyph unicode="@" horiz-adv-x="1738" d="M70 229v619q0 93 34.5 175.5t98.5 145.5t162.5 99.5t218.5 36.5h571q120 0 219 -36.5t163 -99.5t99 -145.5t35 -175.5v-356q0 -210 -85 -300t-267 -90h-82q-78 0 -123.5 37t-54.5 80q-78 -117 -240 -117h-78q-104 0 -168.5 53.5t-64.5 149.5v92q0 72 44.5 126t131.5 73 l348 76v39q0 46 -27.5 70t-91.5 24h-82q-53 0 -81.5 -21t-28.5 -61v-14h-193v30q0 108 78.5 171t188.5 63h168q117 0 190.5 -61t73.5 -171v-397q0 -47 12.5 -65.5t46.5 -18.5h29q39 0 66 9.5t49 33t32.5 69t10.5 113.5v340q0 148 -91.5 230t-253.5 82h-518 q-162 0 -252 -81.5t-90 -230.5v-571q0 -150 90 -231.5t252 -81.5h869v-168h-895q-120 0 -218.5 36.5t-162.5 99.5t-98.5 145t-34.5 175zM698 348q0 -24 6 -40t14 -24.5t28 -12.5t34.5 -4.5t46.5 -0.5h66q65 0 102 28t37 83v139l-282 -67q-23 -5 -37.5 -22t-14.5 -44v-35z " />
<glyph unicode="A" horiz-adv-x="1226" d="M2 0l391 1434h438l394 -1434h-256l-95 373h-544l-88 -373h-240zM377 549h454l-174 690h-108z" />
<glyph unicode="B" horiz-adv-x="1286" d="M125 0v1434h694q184 0 278.5 -87t94.5 -255v-68q0 -101 -53 -180t-166 -105q103 -14 168 -87t65 -183v-129q0 -158 -93.5 -249t-262.5 -91h-725zM346 174h428q110 0 159.5 41.5t49.5 140.5v103q0 93 -52.5 133.5t-156.5 40.5h-428v-459zM346 825h393q115 0 171.5 37.5 t56.5 138.5v58q0 102 -47 141t-156 39h-418v-414z" />
<glyph unicode="C" horiz-adv-x="1257" d="M102 340v752q0 158 100 250t271 92h336q172 0 272.5 -91.5t100.5 -248.5v-99h-224v31q0 105 -42.5 159t-143.5 54h-262q-101 0 -143.5 -54t-42.5 -159v-618q0 -105 42.5 -159t143.5 -54h262q101 0 143.5 54t42.5 159v30h224v-98q0 -157 -100.5 -248.5t-272.5 -91.5h-336 q-170 0 -270.5 91.5t-100.5 248.5z" />
<glyph unicode="D" horiz-adv-x="1302" d="M125 0v1434h704q171 0 272 -92t101 -250v-740q0 -158 -102 -255t-271 -97h-704zM346 195h445q101 0 144.5 54t43.5 159v618q0 105 -43.5 159t-144.5 54h-445v-1044z" />
<glyph unicode="E" horiz-adv-x="1171" d="M125 0v1434h981v-195h-760v-414h651v-194h-651v-436h760v-195h-981z" />
<glyph unicode="F" horiz-adv-x="1077" d="M125 0v1434h915v-195h-692v-459h613v-198h-613v-582h-223z" />
<glyph unicode="G" horiz-adv-x="1273" d="M102 340v752q0 158 100 250t271 92h336q172 0 272.5 -91.5t100.5 -248.5v-99h-224v31q0 105 -42.5 159t-143.5 54h-262q-101 0 -143.5 -54t-42.5 -159v-618q0 -105 42.5 -159t143.5 -54h262q103 0 144.5 47.5t41.5 150.5v164h-282v193h506v-410q0 -157 -100.5 -248.5 t-272.5 -91.5h-336q-170 0 -270.5 91.5t-100.5 248.5z" />
<glyph unicode="H" horiz-adv-x="1353" d="M125 0v1434h221v-609h662v609h221v-1434h-221v621h-662v-621h-221z" />
<glyph unicode="I" horiz-adv-x="471" d="M125 0v1434h221v-1434h-221z" />
<glyph unicode="J" horiz-adv-x="471" d="M125 -311v1745h221v-1655z" />
<glyph unicode="K" horiz-adv-x="1251" d="M125 0v1434h221v-613h234l401 613h264l-481 -703l481 -731h-270l-393 621h-236v-621h-221z" />
<glyph unicode="L" horiz-adv-x="1095" d="M125 0v1434h221v-1229h733v-205h-954z" />
<glyph unicode="M" horiz-adv-x="1558" d="M125 0v1434h311l346 -797l342 797h310v-1434h-222v1171l-329 -727h-219l-318 727v-1171h-221z" />
<glyph unicode="N" horiz-adv-x="1329" d="M125 0v1434h285l583 -1117v1117h211v-1434h-270l-600 1157v-1157h-209z" />
<glyph unicode="O" horiz-adv-x="1282" d="M102 340v752q0 158 100 250t271 92h336q171 0 271 -92t100 -250v-752q0 -157 -100.5 -248.5t-270.5 -91.5h-336q-170 0 -270.5 91.5t-100.5 248.5zM324 408q0 -105 42.5 -159t143.5 -54h262q101 0 143.5 54t42.5 159v618q0 105 -42.5 159t-143.5 54h-262 q-101 0 -143.5 -54t-42.5 -159v-618z" />
<glyph unicode="P" horiz-adv-x="1218" d="M125 0v1434h668q168 0 268 -92t100 -250v-226q0 -157 -104.5 -248.5t-288.5 -91.5h-420v-526h-223zM348 719h381q108 0 159.5 47.5t51.5 146.5v134q0 99 -51.5 145.5t-159.5 46.5h-381v-520z" />
<glyph unicode="Q" horiz-adv-x="1282" d="M102 340v752q0 158 100 250t271 92h336q171 0 271 -92t100 -250v-752q0 -157 -100.5 -248.5t-270.5 -91.5h-61v-100q0 -43 7 -67.5t27 -36t41 -14.5t64 -3h172v-189h-219q-162 0 -235 54.5t-73 197.5v158h-59q-170 0 -270.5 91.5t-100.5 248.5zM324 408q0 -105 42.5 -159 t143.5 -54h262q101 0 143.5 54t42.5 159v618q0 105 -42.5 159t-143.5 54h-262q-101 0 -143.5 -54t-42.5 -159v-618z" />
<glyph unicode="R" horiz-adv-x="1249" d="M125 0v1434h694q172 0 274.5 -89t102.5 -245v-154q0 -138 -73 -233t-222 -109l340 -604h-254l-309 580h-332v-580h-221zM346 772h414q119 0 167 47.5t48 151.5v80q0 99 -47 143.5t-152 44.5h-430v-467z" />
<glyph unicode="S" horiz-adv-x="1234" d="M86 332v110h221v-73q0 -99 41.5 -136.5t147.5 -37.5h245q110 0 151.5 34.5t41.5 137.5v41q0 43 -7 71t-17 46t-36 31t-50.5 20t-73.5 18l-385 86q-142 32 -210.5 101.5t-68.5 203.5v115q0 158 96.5 246t266.5 88h348q167 0 258.5 -90t91.5 -248v-78h-221v49 q0 102 -43 147.5t-148 45.5h-239q-104 0 -146.5 -39t-42.5 -131v-70q0 -42 7 -66.5t30.5 -41.5t49 -25t79.5 -21l393 -90q69 -16 117.5 -36.5t89.5 -55t61.5 -87t20.5 -124.5v-133q0 -159 -92 -249.5t-260 -90.5h-387q-167 0 -248.5 86t-81.5 246z" />
<glyph unicode="T" horiz-adv-x="1116" d="M16 1239v195h1084v-195h-430v-1239h-224v1239h-430z" />
<glyph unicode="U" horiz-adv-x="1310" d="M117 340v1094h221v-1026q0 -105 42.5 -159t143.5 -54h262q101 0 144 54t43 159v1026h221v-1094q0 -157 -100.5 -248.5t-270.5 -91.5h-336q-170 0 -270 91.5t-100 248.5z" />
<glyph unicode="V" horiz-adv-x="1210" d="M4 1434h250l295 -1239h123l299 1239h235l-366 -1434h-475z" />
<glyph unicode="W" horiz-adv-x="2021" d="M12 1434h248l254 -1239h72l262 1239h326l262 -1239h71l254 1239h248l-315 -1434h-426l-252 1239h-10l-252 -1239h-426z" />
<glyph unicode="X" horiz-adv-x="1224" d="M-4 0l477 737l-450 697h260l344 -562l336 562h245l-450 -709l469 -725h-254l-367 588l-350 -588h-260z" />
<glyph unicode="Y" horiz-adv-x="1179" d="M0 1434h258l344 -672l332 672h246l-478 -873v-561h-223v561z" />
<glyph unicode="Z" horiz-adv-x="1138" d="M53 0v205l791 1034h-774v195h1009v-201l-774 -1038h774v-195h-1026z" />
<glyph unicode="[" horiz-adv-x="638" d="M123 -295v1835h524v-168h-319v-1497h319v-170h-524z" />
<glyph unicode="\" horiz-adv-x="589" d="M39 1434h151l385 -1702h-157z" />
<glyph unicode="]" horiz-adv-x="638" d="M-8 -125h319v1497h-319v168h524v-1835h-524v170z" />
<glyph unicode="^" horiz-adv-x="1132" d="M123 623l235 811h414l238 -811h-215l-172 634h-115l-170 -634h-215z" />
<glyph unicode="_" horiz-adv-x="686" d="M16 -184h654v-181h-654v181z" />
<glyph unicode="`" horiz-adv-x="561" d="M123 1434h258l57 -273h-190z" />
<glyph unicode="a" d="M59 268v66q0 191 199 235l461 103v49q0 80 -37 115.5t-121 35.5h-98q-86 0 -127 -28t-41 -107h-207q0 63 17.5 116t55.5 98t107.5 70.5t163.5 25.5h148q354 0 354 -314v-733h-211v109q-73 -109 -252 -109h-147q-122 0 -193.5 70.5t-71.5 197.5zM274 293q0 -40 11 -65.5 t33.5 -37t45.5 -15t60 -3.5h94q100 0 150.5 37t50.5 131v170l-350 -82q-50 -11 -72.5 -35t-22.5 -74v-26z" />
<glyph unicode="b" horiz-adv-x="1060" d="M106 0v1434h211v-482q30 47 94.5 71t125.5 24h118q144 0 235 -90t91 -240v-379q0 -150 -85 -244t-243 -94h-118q-95 0 -142.5 23.5t-77.5 68.5v-92h-209zM322 340q0 -77 40 -122.5t130 -45.5h112q89 0 125.5 43t36.5 121v375q0 77 -36.5 120t-125.5 43h-110 q-90 0 -131 -47.5t-41 -124.5v-362z" />
<glyph unicode="c" horiz-adv-x="1013" d="M80 346v354q0 161 92 254t260 93h170q170 0 261 -93t91 -254v-12h-215v23q0 78 -36 120.5t-125 42.5h-121q-89 0 -125.5 -43t-36.5 -120v-375q0 -78 36.5 -121t125.5 -43h121q89 0 125 43t36 121v26h215v-16q0 -161 -91 -253.5t-261 -92.5h-170q-168 0 -260 93t-92 253z " />
<glyph unicode="d" horiz-adv-x="1064" d="M82 297v420q0 150 91 240t235 90h118q61 0 125 -24t94 -71v482h213v-1434h-210v92q-61 -92 -236 -92h-119q-138 0 -224.5 76.5t-86.5 220.5zM297 336q0 -78 36.5 -121t125.5 -43h114q168 0 168 170v363q0 169 -168 169h-114q-89 0 -125.5 -43t-36.5 -120v-375z" />
<glyph unicode="e" horiz-adv-x="1026" d="M80 346v354q0 161 92 254t260 93h170q170 0 261 -93t91 -254v-227h-659v-137q0 -78 36.5 -121t125.5 -43h121q89 0 125 43t36 121v26h215v-16q0 -161 -91 -253.5t-261 -92.5h-170q-168 0 -260 93t-92 253zM295 645h444v66q0 78 -36 120.5t-125 42.5h-121 q-89 0 -125.5 -43t-36.5 -120v-66z" />
<glyph unicode="f" horiz-adv-x="636" d="M0 870l45 177h148v194q0 122 83 200.5t240 78.5h213v-183h-172q-82 0 -115.5 -39t-33.5 -114v-137h213v-177h-213v-870h-215v870h-193z" />
<glyph unicode="g" horiz-adv-x="1030" d="M78 37v37q0 76 46.5 136t119.5 75q-77 28 -118.5 101t-41.5 179v135q0 161 90.5 254t257.5 93h10v106q0 136 71.5 208.5t238.5 72.5h219v-172h-223q-58 0 -81.5 -24t-23.5 -79v-112q164 -4 250 -96.5t86 -250.5v-137q0 -161 -91 -253.5t-261 -92.5h-230q-59 0 -83.5 -26 t-24.5 -78v-17q0 -59 21.5 -77.5t105.5 -18.5h327q121 0 195 -65t74 -181v-180h-215v111q0 75 -30 104t-108 29h-348q-109 0 -171 59t-62 160zM299 553q0 -78 36.5 -121t125.5 -43h141q89 0 125.5 43t36.5 121v158q0 75 -42.5 119t-133.5 44h-127q-89 0 -125.5 -43 t-36.5 -120v-158z" />
<glyph unicode="h" horiz-adv-x="1085" d="M106 0v1434h216v-514q34 59 115 93t157 34h76q138 0 225.5 -76.5t87.5 -220.5v-750h-215v676q0 186 -199 186h-41q-96 0 -151 -47t-55 -145v-670h-216z" />
<glyph unicode="i" horiz-adv-x="428" d="M106 0v1047h216v-1047h-216zM106 1194v240h216v-240h-216z" />
<glyph unicode="j" horiz-adv-x="428" d="M106 -424v1471h216v-1397zM106 1194v240h216v-240h-216z" />
<glyph unicode="k" horiz-adv-x="1019" d="M106 0v1434h216v-875l423 488h240l-336 -373l373 -674h-242l-272 516l-186 -211v-305h-216z" />
<glyph unicode="l" horiz-adv-x="487" d="M102 254v1180h215v-1166q0 -50 19 -68t59 -18h84v-182h-117q-79 0 -131 17.5t-80 52.5t-38.5 78.5t-10.5 105.5z" />
<glyph unicode="m" horiz-adv-x="1689" d="M106 0v1047h211v-127q34 59 117 93t160 34h24q101 0 177 -43.5t106 -122.5q39 78 125 122t195 44h47q139 0 229 -77t90 -220v-750h-215v676q0 186 -198 186h-13q-95 0 -151 -45t-56 -137v-680h-215v676q0 186 -198 186h-13q-96 0 -151 -47t-55 -145v-670h-216z" />
<glyph unicode="n" horiz-adv-x="1085" d="M106 0v1047h211v-127q34 59 117 93t160 34h76q138 0 225.5 -76.5t87.5 -220.5v-750h-215v676q0 186 -199 186h-41q-96 0 -151 -47t-55 -145v-670h-216z" />
<glyph unicode="o" d="M80 346v354q0 161 92 254t260 93h170q170 0 261 -93t91 -254v-354q0 -161 -91 -253.5t-261 -92.5h-170q-168 0 -260 93t-92 253zM295 336q0 -78 36.5 -121t125.5 -43h121q89 0 125 43t36 121v375q0 78 -36 120.5t-125 42.5h-121q-89 0 -125.5 -43t-36.5 -120v-375z" />
<glyph unicode="p" horiz-adv-x="1060" d="M106 -432v1479h211v-95q30 47 94.5 71t125.5 24h118q144 0 235 -90t91 -240v-379q0 -150 -85 -244t-243 -94h-118q-95 0 -142.5 23.5t-77.5 68.5v-524h-209zM322 340q0 -77 40 -122.5t130 -45.5h112q89 0 125.5 43t36.5 121v375q0 77 -36.5 120t-125.5 43h-110 q-90 0 -131 -47.5t-41 -124.5v-362z" />
<glyph unicode="q" horiz-adv-x="1064" d="M82 297v420q0 150 91 240t235 90h118q61 0 125 -24t94 -71v95h213v-1479h-210v524q-61 -92 -236 -92h-119q-138 0 -224.5 76.5t-86.5 220.5zM297 336q0 -78 36.5 -121t125.5 -43h121q89 0 125 43t36 121v375q0 78 -36 120.5t-125 42.5h-121q-89 0 -125.5 -43t-36.5 -120 v-375z" />
<glyph unicode="r" horiz-adv-x="757" d="M106 0v1047h211v-127q34 59 117 93t160 34h143l2 -205h-211q-100 0 -153 -38.5t-53 -133.5v-670h-216z" />
<glyph unicode="s" horiz-adv-x="1015" d="M66 264v72h210v-43q0 -69 48.5 -95t136.5 -26h114q88 0 125 23t37 81v35q-4 46 -41.5 68t-117.5 37l-273 51q-114 21 -171.5 86.5t-57.5 163.5v57q0 117 84 195t209 78h290q125 0 199 -75.5t74 -193.5v-59h-211v33q0 30 -5.5 51t-18.5 34.5t-25.5 21t-37 11t-41.5 4 t-50 0.5h-119q-133 0 -133 -102v-14q0 -54 23.5 -76t109.5 -39l285 -55q120 -23 181.5 -85t61.5 -155v-72q0 -126 -83 -201t-236 -75h-271q-133 0 -214.5 73.5t-81.5 190.5z" />
<glyph unicode="t" horiz-adv-x="727" d="M0 870l43 177h145v387h215v-387h302v-177h-302v-555q0 -72 35 -102.5t121 -30.5h121v-182h-186q-157 0 -231.5 66.5t-74.5 187.5v616h-188z" />
<glyph unicode="u" horiz-adv-x="1083" d="M100 299v748h215v-676q0 -99 43 -143t136 -44h61q96 0 151.5 47.5t55.5 145.5v670h215v-1047h-211v127q-34 -59 -117 -93t-160 -34h-75q-138 0 -226 77.5t-88 221.5z" />
<glyph unicode="v" horiz-adv-x="987" d="M6 1047h242l209 -875h82l213 875h231l-281 -1047h-423z" />
<glyph unicode="w" horiz-adv-x="1646" d="M10 1047h242l188 -875h41l195 875h295l203 -875h40l193 875h231l-260 -1047h-374l-183 838l-184 -838h-375z" />
<glyph unicode="x" horiz-adv-x="956" d="M6 0l348 535l-340 512h236l235 -381l230 381h223l-340 -525l354 -522h-237l-246 391l-236 -391h-227z" />
<glyph unicode="y" horiz-adv-x="985" d="M6 1047h240l205 -875h84l213 875h233l-332 -1240q-43 -158 -110 -212t-220 -54h-172v180h109q93 0 131.5 19t56.5 86l45 174h-213z" />
<glyph unicode="z" horiz-adv-x="940" d="M55 870l21 177h805v-197l-596 -674h596v-176h-824v186l602 684h-604z" />
<glyph unicode="{" horiz-adv-x="655" d="M18 514v205h95q73 0 94.5 35.5t21.5 117.5v318q0 168 77 238.5t235 70.5h96v-194h-105q-40 0 -60.5 -22.5t-20.5 -61.5v-320q0 -47 -5.5 -83t-21 -77.5t-51 -71t-88.5 -44.5v-15q53 -15 88.5 -44.5t51 -71t21 -77.5t5.5 -83v-340q0 -39 20.5 -61.5t60.5 -22.5h105v-195 h-96q-157 0 -234.5 70.5t-77.5 239.5v335q0 83 -22 118.5t-94 35.5h-95z" />
<glyph unicode="|" horiz-adv-x="417" d="M121 -371v2157h176v-2157h-176z" />
<glyph unicode="}" horiz-adv-x="655" d="M18 -90h105q40 0 61 22.5t21 61.5v340q0 47 5.5 83t21 77.5t51 71t88.5 44.5v15q-53 15 -88.5 44.5t-51 71t-21 77.5t-5.5 83v320q0 39 -21 61.5t-61 22.5h-105v194h97q157 0 234 -70t77 -239v-318q0 -82 22 -117.5t95 -35.5h94v-205h-94q-73 0 -95 -36t-22 -118v-335 q0 -169 -77 -239.5t-234 -70.5h-97v195z" />
<glyph unicode="~" horiz-adv-x="1087" d="M92 483v127q0 102 50 163t128 61q64 0 198.5 -41.5t236.5 -82.5l102 -42v157h192v-127q0 -99 -43.5 -161t-121.5 -62q-64 0 -201 41.5t-243 83.5l-105 41v-158h-193z" />
<glyph unicode="&#xa1;" horiz-adv-x="481" d="M109 743v304h260v-304h-260zM127 -387v989h227v-989h-227z" />
<glyph unicode="&#xa2;" horiz-adv-x="993" d="M63 346v354q0 157 89 250t251 97v172h195v-172q165 -4 252.5 -96.5t87.5 -250.5v-12h-215v23q0 77 -36.5 120t-125.5 43h-121q-89 0 -125 -42.5t-36 -120.5v-375q0 -78 36 -121t125 -43h121q89 0 125.5 43t36.5 121v26h215v-16q0 -158 -88 -250.5t-252 -95.5v-172h-195 v172q-162 3 -251 96t-89 250z" />
<glyph unicode="&#xa3;" horiz-adv-x="1234" d="M59 0v195h156v395h-156v194h156v308q0 158 100 250t271 92h213q172 0 272 -91.5t100 -248.5v-99h-223v31q0 105 -42.5 159t-143.5 54h-139q-101 0 -144 -54t-43 -159v-242h410v-194h-410v-395h738v-195h-1115z" />
<glyph unicode="&#xa4;" horiz-adv-x="1320" d="M51 240l174 176q-32 68 -32 168v268q0 102 32 170l-174 178l139 137l164 -168q89 50 201 50h209q114 0 201 -52l168 170l137 -139l-176 -178q32 -87 32 -168v-268q0 -79 -32 -166l176 -176l-137 -140l-166 168q-80 -51 -203 -51h-209q-118 0 -203 49l-162 -166zM408 598 q0 -95 44 -142.5t138 -47.5h141q180 0 180 190v242q0 190 -180 190h-141q-94 0 -138 -47.5t-44 -142.5v-242z" />
<glyph unicode="&#xa5;" horiz-adv-x="1294" d="M57 1434h258l344 -672l332 672h246l-229 -420h209v-189h-314l-117 -215h431v-188h-457v-422h-223v422h-459v188h432l-119 215h-313v189h211z" />
<glyph unicode="&#xa6;" horiz-adv-x="421" d="M123 -371v971h176v-971h-176zM123 856v930h176v-930h-176z" />
<glyph unicode="&#xa7;" horiz-adv-x="1280" d="M63 291v28h234q0 -70 43.5 -97t124.5 -27h364q67 0 99.5 27.5t32.5 86.5q0 60 -32.5 84t-97.5 31l-509 57q-63 7 -109 32.5t-71.5 62.5t-38.5 74t-17 79l866 -113q113 -15 178.5 -88.5t65.5 -183.5v-51q0 -128 -89.5 -210.5t-236.5 -82.5h-481q-138 0 -232 80t-94 211z M84 1090v51q0 128 89.5 210.5t236.5 82.5h481q134 0 230 -84.5t96 -206.5v-29h-234q0 71 -43 98t-125 27h-362q-134 0 -134 -115q0 -61 32.5 -84t99.5 -30l507 -58q63 -7 109 -32t71.5 -62t38.5 -74t17 -79l-866 112q-113 15 -178.5 89t-65.5 184z" />
<glyph unicode="&#xa8;" horiz-adv-x="821" d="M102 1174v260h232v-260h-232zM487 1174v260h232v-260h-232z" />
<glyph unicode="&#xa9;" horiz-adv-x="1593" d="M53 719q0 108 16.5 201t51.5 178.5t94 152t139.5 116t193 75.5t249.5 26q164 0 292 -38t212 -104.5t138.5 -162.5t77.5 -205t23 -239t-23 -239t-77.5 -205t-138.5 -162.5t-212 -105t-292 -38.5t-292.5 38.5t-212.5 105t-138.5 162.5t-77.5 205t-23 239zM213 719 q0 -313 144 -461.5t440 -148.5t439.5 148.5t143.5 461.5t-143.5 461.5t-439.5 148.5t-440 -148.5t-144 -461.5zM444 582v282q0 128 73 201.5t206 73.5h131q136 0 208.5 -73.5t72.5 -201.5v-30h-172v38q0 129 -132 129h-88q-129 0 -129 -129v-299q0 -129 129 -129h93 q131 0 131 129v43h172v-34q0 -128 -72.5 -201.5t-208.5 -73.5h-135q-133 0 -206 73.5t-73 201.5z" />
<glyph unicode="&#xaa;" horiz-adv-x="776" d="M66 926v51q0 54 42 97t111 56l291 60v27q0 77 -94 77h-66q-100 0 -100 -77h-168q0 94 60.5 155.5t195.5 61.5h102q118 0 180 -55.5t62 -161.5v-486h-170v68q-53 -68 -160 -68h-69q-99 0 -158 47.5t-59 147.5zM238 934q0 -40 22.5 -55t67.5 -15h71q111 0 111 103v90 l-217 -43q-55 -11 -55 -66v-14z" />
<glyph unicode="&#xab;" horiz-adv-x="1079" d="M14 526l314 525h235l-307 -525l311 -526h-239zM487 526l314 525h235l-307 -525l311 -526h-239z" />
<glyph unicode="&#xac;" horiz-adv-x="927" d="M68 610v189h766v-434h-209v245h-557z" />
<glyph unicode="&#xad;" horiz-adv-x="708" d="M82 539v204h545v-204h-545z" />
<glyph unicode="&#xae;" horiz-adv-x="1593" d="M53 719q0 108 16.5 201t51.5 178.5t94 152t139.5 116t193 75.5t249.5 26q164 0 292 -38t212 -104.5t138.5 -162.5t77.5 -205t23 -239t-23 -239t-77.5 -205t-138.5 -162.5t-212 -105t-292 -38.5t-292.5 38.5t-212.5 105t-138.5 162.5t-77.5 205t-23 239zM213 719 q0 -313 144 -461.5t440 -148.5t439.5 148.5t143.5 461.5t-143.5 461.5t-439.5 148.5t-440 -148.5t-144 -461.5zM483 307v832h387q113 0 186.5 -65.5t73.5 -164.5v-49q0 -72 -45 -135.5t-129 -83.5l218 -334h-201l-174 301h-146v-301h-170zM653 758h176q52 0 84.5 24.5 t32.5 65.5v49q0 42 -29 67t-79 25h-185v-231z" />
<glyph unicode="&#xaf;" horiz-adv-x="851" d="M129 1210v174h612v-174h-612z" />
<glyph unicode="&#xb0;" horiz-adv-x="878" d="M72 961v184q0 130 73.5 209.5t206.5 79.5h174q132 0 206.5 -80t74.5 -209v-184q0 -128 -74.5 -207.5t-206.5 -79.5h-174q-133 0 -206.5 79.5t-73.5 207.5zM248 977q0 -156 131 -156h119q131 0 131 156v151q0 76 -30 117t-101 41h-119q-131 0 -131 -158v-151z" />
<glyph unicode="&#xb1;" horiz-adv-x="1200" d="M63 0v195h1074v-195h-1074zM63 770v195h426v469h222v-469h426v-195h-426v-469h-222v469h-426z" />
<glyph unicode="&#xb2;" horiz-adv-x="862" d="M90 1108v92q0 111 72 176.5t196 65.5h138q124 0 196 -65.5t72 -176.5v-51q0 -63 -21 -108t-65 -87l-311 -292h401v-170h-674v170l404 380q33 30 42 54.5t9 62.5v10q0 57 -23.5 80t-79.5 23h-36q-60 0 -87.5 -23.5t-27.5 -79.5v-61h-205z" />
<glyph unicode="&#xb3;" horiz-adv-x="858" d="M66 733v53h206v-20q0 -107 119 -107h64q110 0 110 107v39q0 56 -27.5 81t-82.5 25h-222v156l291 205h-428v170h678v-178l-287 -201q74 0 135.5 -22t104.5 -75.5t43 -131.5v-101q0 -112 -72 -176.5t-196 -64.5h-168q-122 0 -195 64.5t-73 176.5z" />
<glyph unicode="&#xb4;" horiz-adv-x="561" d="M123 1161l57 273h258l-125 -273h-190z" />
<glyph unicode="&#xb5;" horiz-adv-x="1050" d="M84 -446v1493h215v-676q0 -99 42.5 -143t135.5 -44h62q96 0 151 47.5t55 145.5v670h216v-1047h-211v127q-35 -60 -108.5 -93.5t-147.5 -33.5h-76q-42 0 -84.5 13t-65.5 34v-461z" />
<glyph unicode="&#xb6;" horiz-adv-x="1452" d="M49 852v229q0 162 102.5 256.5t276.5 94.5h909v-1432h-544v-432h-222v936h-143q-173 0 -276 94t-103 254zM793 195h323v1044h-323v-1044z" />
<glyph unicode="&#xb7;" horiz-adv-x="518" d="M109 571v303h301v-303h-301z" />
<glyph unicode="&#xb8;" horiz-adv-x="647" d="M102 -324h242q26 0 32.5 12t6.5 42v14q0 28 -6.5 39.5t-32.5 11.5h-199l27 232l156 6l-15 -109h113q51 0 85 -29.5t34 -80.5v-148q0 -65 -41.5 -97t-116.5 -32h-285v139z" />
<glyph unicode="&#xb9;" horiz-adv-x="434" d="M113 483v891l206 62v-953h-206z" />
<glyph unicode="&#xba;" horiz-adv-x="768" d="M76 971v223q0 111 63.5 175.5t179.5 64.5h132q116 0 178.5 -64.5t62.5 -175.5v-223q0 -111 -62.5 -175.5t-178.5 -64.5h-132q-116 0 -179.5 64.5t-63.5 175.5zM248 973q0 -103 110 -103h52q110 0 110 103v219q0 102 -110 102h-52q-110 0 -110 -102v-219z" />
<glyph unicode="&#xbb;" horiz-adv-x="1079" d="M39 0l311 526l-307 525h236l313 -525l-313 -526h-240zM512 0l311 526l-307 525h236l313 -525l-313 -526h-240z" />
<glyph unicode="&#xbc;" horiz-adv-x="1228" d="M86 483v891l207 62v-953h-207zM395 195v178l389 577h269v-590h129v-165h-129v-195h-207v195h-451zM586 360h260v392z" />
<glyph unicode="&#xbd;" horiz-adv-x="1167" d="M76 483v891l207 62v-953h-207zM434 616v93q0 111 72 176t196 65h138q124 0 196 -65t72 -176v-52q0 -63 -21 -107.5t-65 -86.5l-311 -293h401v-170h-674v170l404 381q33 30 42 54.5t9 62.5v10q0 57 -23 79.5t-79 22.5h-37q-60 0 -87.5 -23t-27.5 -79v-62h-205z" />
<glyph unicode="&#xbe;" horiz-adv-x="1562" d="M55 725v53h207v-20q0 -107 119 -107h63q111 0 111 107v39q0 56 -28 81t-83 25h-221v156l291 205h-428v170h678v-179l-287 -200q54 0 103 -13.5t90 -40t65.5 -72t24.5 -104.5v-100q0 -112 -72.5 -177t-195.5 -65h-168q-122 0 -195.5 65t-73.5 177zM729 195v178l389 577 h268v-590h130v-165h-130v-195h-206v195h-451zM920 373h260v379z" />
<glyph unicode="&#xbf;" horiz-adv-x="1024" d="M53 43q0 93 26 154t93 122l252 234v47h221v-129l-285 -256q-77 -67 -77 -170v-16q0 -132 45.5 -177t179.5 -45h12q69 0 111 8t72 32t41.5 66.5t11.5 111.5v36h229v-100q0 -162 -97.5 -255t-289.5 -93h-162q-181 0 -282 87t-101 255v88zM403 743v304h261v-304h-261z" />
<glyph unicode="&#xc0;" horiz-adv-x="1226" d="M2 0l391 1434h438l394 -1434h-256l-95 373h-544l-88 -373h-240zM377 549h454l-174 690h-108zM455 1821h258l57 -273h-190z" />
<glyph unicode="&#xc1;" horiz-adv-x="1226" d="M2 0l391 1434h438l394 -1434h-256l-95 373h-544l-88 -373h-240zM377 549h454l-174 690h-108zM455 1548l57 273h258l-125 -273h-190z" />
<glyph unicode="&#xc2;" horiz-adv-x="1226" d="M2 0l391 1434h438l394 -1434h-256l-95 373h-544l-88 -373h-240zM303 1604l86 233h447l86 -233h-191l-119 149l-118 -149h-191zM377 549h454l-174 690h-108z" />
<glyph unicode="&#xc3;" horiz-adv-x="1226" d="M2 0l391 1434h438l394 -1434h-256l-95 373h-544l-88 -373h-240zM276 1585v70q0 87 48 134.5t127 47.5q53 0 138 -22t143 -44l59 -22v88h159v-49q0 -203 -155 -203q-51 0 -141.5 22t-155.5 44l-64 22v-88h-158zM377 549h454l-174 690h-108z" />
<glyph unicode="&#xc4;" horiz-adv-x="1226" d="M2 0l391 1434h438l394 -1434h-256l-95 373h-544l-88 -373h-240zM305 1561v260h232v-260h-232zM377 549h454l-174 690h-108zM690 1561v260h232v-260h-232z" />
<glyph unicode="&#xc5;" horiz-adv-x="1222" d="M0 0l354 1296q-85 73 -88 197v125q0 111 72 182.5t190 71.5h148q118 0 190 -74t72 -180v-125q0 -109 -76 -182l361 -1311h-256l-95 373h-544l-88 -373h-240zM375 549h454l-174 690h-108zM432 1530q0 -74 34 -109t114 -35h47q79 0 112 35t33 109v51q0 74 -32.5 108.5 t-112.5 34.5h-47q-80 0 -114 -34.5t-34 -108.5v-51z" />
<glyph unicode="&#xc6;" horiz-adv-x="1906" d="M-16 0l563 1434h1294v-195h-737v-414h629v-194h-629v-436h737v-195h-960v354h-525l-131 -354h-241zM428 549h453v690h-193z" />
<glyph unicode="&#xc7;" horiz-adv-x="1257" d="M102 340v752q0 158 100 250t271 92h336q172 0 272.5 -91.5t100.5 -248.5v-99h-224v31q0 105 -42.5 159t-143.5 54h-262q-101 0 -143.5 -54t-42.5 -159v-618q0 -105 42.5 -159t143.5 -54h262q101 0 143.5 54t42.5 159v30h224v-98q0 -157 -100.5 -248.5t-272.5 -91.5h-178 l-10 -76h112q51 0 85 -29.5t34 -80.5v-148q0 -65 -41.5 -97t-116.5 -32h-284v139h241q26 0 32.5 12t6.5 42v14q0 28 -6.5 39.5t-32.5 11.5h-198l24 205h-10q-170 0 -267.5 91.5t-97.5 248.5z" />
<glyph unicode="&#xc8;" horiz-adv-x="1171" d="M125 0v1434h981v-195h-760v-414h651v-194h-651v-436h760v-195h-981zM446 1821h259l57 -273h-191z" />
<glyph unicode="&#xc9;" horiz-adv-x="1171" d="M125 0v1434h981v-195h-760v-414h651v-194h-651v-436h760v-195h-981zM446 1548l58 273h258l-125 -273h-191z" />
<glyph unicode="&#xca;" horiz-adv-x="1171" d="M125 0v1434h981v-195h-760v-414h651v-194h-651v-436h760v-195h-981zM295 1604l86 233h446l86 -233h-190l-119 149l-119 -149h-190z" />
<glyph unicode="&#xcb;" horiz-adv-x="1171" d="M125 0v1434h981v-195h-760v-414h651v-194h-651v-436h760v-195h-981zM297 1561v260h231v-260h-231zM682 1561v260h231v-260h-231z" />
<glyph unicode="&#xcc;" horiz-adv-x="471" d="M78 1821h258l57 -273h-190zM125 0v1434h221v-1434h-221z" />
<glyph unicode="&#xcd;" horiz-adv-x="471" d="M78 1548l57 273h258l-125 -273h-190zM125 0v1434h221v-1434h-221z" />
<glyph unicode="&#xce;" horiz-adv-x="471" d="M-74 1604l86 233h447l86 -233h-191l-118 149l-119 -149h-191zM125 0v1434h221v-1434h-221z" />
<glyph unicode="&#xcf;" horiz-adv-x="471" d="M-72 1561v260h232v-260h-232zM125 0v1434h221v-1434h-221zM313 1561v260h232v-260h-232z" />
<glyph unicode="&#xd0;" horiz-adv-x="1306" d="M6 621v204h123v609h705q171 0 271.5 -92t100.5 -250v-740q0 -158 -101.5 -255t-270.5 -97h-705v621h-123zM350 195h445q101 0 144.5 54t43.5 159v618q0 105 -43.5 159t-144.5 54h-445v-414h330v-204h-330v-426z" />
<glyph unicode="&#xd1;" horiz-adv-x="1329" d="M125 0v1434h285l583 -1117v1117h211v-1434h-270l-600 1157v-1157h-209zM328 1585v70q0 87 47.5 134.5t126.5 47.5q53 0 138 -22t144 -44l58 -22v88h159v-49q0 -203 -155 -203q-51 0 -141.5 22t-154.5 44l-65 22v-88h-157z" />
<glyph unicode="&#xd2;" horiz-adv-x="1282" d="M102 340v752q0 158 100 250t271 92h336q171 0 271 -92t100 -250v-752q0 -157 -100.5 -248.5t-270.5 -91.5h-336q-170 0 -270.5 91.5t-100.5 248.5zM324 408q0 -105 42.5 -159t143.5 -54h262q101 0 143.5 54t42.5 159v618q0 105 -42.5 159t-143.5 54h-262 q-101 0 -143.5 -54t-42.5 -159v-618zM483 1821h258l58 -273h-191z" />
<glyph unicode="&#xd3;" horiz-adv-x="1282" d="M102 340v752q0 158 100 250t271 92h336q171 0 271 -92t100 -250v-752q0 -157 -100.5 -248.5t-270.5 -91.5h-336q-170 0 -270.5 91.5t-100.5 248.5zM324 408q0 -105 42.5 -159t143.5 -54h262q101 0 143.5 54t42.5 159v618q0 105 -42.5 159t-143.5 54h-262 q-101 0 -143.5 -54t-42.5 -159v-618zM483 1548l58 273h258l-125 -273h-191z" />
<glyph unicode="&#xd4;" horiz-adv-x="1282" d="M102 340v752q0 158 100 250t271 92h336q171 0 271 -92t100 -250v-752q0 -157 -100.5 -248.5t-270.5 -91.5h-336q-170 0 -270.5 91.5t-100.5 248.5zM324 408q0 -105 42.5 -159t143.5 -54h262q101 0 143.5 54t42.5 159v618q0 105 -42.5 159t-143.5 54h-262 q-101 0 -143.5 -54t-42.5 -159v-618zM332 1604l86 233h446l86 -233h-190l-119 149l-119 -149h-190z" />
<glyph unicode="&#xd5;" horiz-adv-x="1282" d="M102 340q0 -157 100.5 -248.5t270.5 -91.5h336q170 0 270.5 91.5t100.5 248.5v752q0 158 -100 250t-271 92h-336q-171 0 -271 -92t-100 -250v-752zM303 1585v70q0 87 47.5 134.5t126.5 47.5q53 0 138 -22t143 -44l59 -22v88h160v-49q0 -90 -36 -146.5t-120 -56.5 q-51 0 -141 22t-154 44l-65 22v-88h-158zM324 408v618q0 105 42.5 159t143.5 54h262q101 0 143.5 -54t42.5 -159v-618q0 -105 -42.5 -159t-143.5 -54h-262q-101 0 -143.5 54t-42.5 159z" />
<glyph unicode="&#xd6;" horiz-adv-x="1282" d="M102 340q0 -157 100.5 -248.5t270.5 -91.5h336q170 0 270.5 91.5t100.5 248.5v752q0 158 -100 250t-271 92h-336q-171 0 -271 -92t-100 -250v-752zM324 408v618q0 105 42.5 159t143.5 54h262q101 0 143.5 -54t42.5 -159v-618q0 -105 -42.5 -159t-143.5 -54h-262 q-101 0 -143.5 54t-42.5 159zM332 1561v260h231v-260h-231zM717 1561v260h231v-260h-231z" />
<glyph unicode="&#xd7;" horiz-adv-x="1310" d="M51 223l492 500l-492 500l115 114l489 -499l494 499l111 -116l-492 -498l492 -498l-111 -114l-494 499l-489 -499z" />
<glyph unicode="&#xd8;" horiz-adv-x="1320" d="M45 0l121 162q-43 73 -43 178v752q0 158 100 250t271 92h335q141 0 236 -64l47 64h164l-121 -162q45 -76 45 -180v-752q0 -157 -100.5 -248.5t-270.5 -91.5h-335q-150 0 -242 68l-49 -68h-158zM344 401l588 789q-46 49 -139 49h-263q-101 0 -143.5 -54t-42.5 -159v-625z M387 246q45 -51 143 -51h263q101 0 143.5 54t42.5 159v628z" />
<glyph unicode="&#xd9;" horiz-adv-x="1310" d="M117 340v1094h221v-1026q0 -105 42.5 -159t143.5 -54h262q101 0 144 54t43 159v1026h221v-1094q0 -157 -100.5 -248.5t-270.5 -91.5h-336q-170 0 -270 91.5t-100 248.5zM498 1821h258l57 -273h-190z" />
<glyph unicode="&#xda;" horiz-adv-x="1310" d="M117 340v1094h221v-1026q0 -105 42.5 -159t143.5 -54h262q101 0 144 54t43 159v1026h221v-1094q0 -157 -100.5 -248.5t-270.5 -91.5h-336q-170 0 -270 91.5t-100 248.5zM498 1548l57 273h258l-125 -273h-190z" />
<glyph unicode="&#xdb;" horiz-adv-x="1310" d="M117 340v1094h221v-1026q0 -105 42.5 -159t143.5 -54h262q101 0 144 54t43 159v1026h221v-1094q0 -157 -100.5 -248.5t-270.5 -91.5h-336q-170 0 -270 91.5t-100 248.5zM346 1604l86 233h447l86 -233h-191l-119 149l-118 -149h-191z" />
<glyph unicode="&#xdc;" horiz-adv-x="1310" d="M117 340q0 -157 100 -248.5t270 -91.5h336q170 0 270.5 91.5t100.5 248.5v1094h-221v-1026q0 -105 -43 -159t-144 -54h-262q-101 0 -143.5 54t-42.5 159v1026h-221v-1094zM346 1561v260h232v-260h-232zM731 1561v260h232v-260h-232z" />
<glyph unicode="&#xdd;" horiz-adv-x="1179" d="M0 1434h258l344 -672l332 672h246l-478 -873v-561h-223v561zM494 1548l57 273h258l-125 -273h-190z" />
<glyph unicode="&#xde;" horiz-adv-x="1220" d="M125 0v1434h223v-244h445q168 0 268 -92t100 -250v-225q0 -157 -104.5 -248.5t-288.5 -91.5h-420v-283h-223zM348 475h381q107 0 159 47.5t52 147.5v133q0 99 -51.5 145.5t-159.5 46.5h-381v-520z" />
<glyph unicode="&#xdf;" horiz-adv-x="1087" d="M106 0v1135q0 180 98 282.5t267 102.5h152q182 0 275 -95t93 -260v-116q0 -88 -40 -165t-126 -112q90 -34 139.5 -99.5t51.5 -140.5v-180q0 -168 -82.5 -260t-255.5 -92h-201v172h139q99 0 142 38t43 136v154q0 92 -37 134t-121 42h-166v176h119q180 0 180 162v133 q0 110 -49.5 150t-155.5 40h-41q-111 0 -158.5 -50.5t-47.5 -151.5v-1135h-218z" />
<glyph unicode="&#xe0;" d="M59 268v66q0 191 199 235l461 103v49q0 80 -37 115.5t-121 35.5h-98q-86 0 -127 -28t-41 -107h-207q0 63 17.5 116t55.5 98t107.5 70.5t163.5 25.5h148q354 0 354 -314v-733h-211v109q-73 -109 -252 -109h-147q-122 0 -193.5 70.5t-71.5 197.5zM274 293q0 -40 11 -65.5 t33.5 -37t45.5 -15t60 -3.5h94q100 0 150.5 37t50.5 131v170l-350 -82q-50 -11 -72.5 -35t-22.5 -74v-26zM338 1434h258l57 -273h-190z" />
<glyph unicode="&#xe1;" d="M59 268v66q0 191 199 235l461 103v49q0 80 -37 115.5t-121 35.5h-98q-86 0 -127 -28t-41 -107h-207q0 63 17.5 116t55.5 98t107.5 70.5t163.5 25.5h148q354 0 354 -314v-733h-211v109q-73 -109 -252 -109h-147q-122 0 -193.5 70.5t-71.5 197.5zM274 293q0 -40 11 -65.5 t33.5 -37t45.5 -15t60 -3.5h94q100 0 150.5 37t50.5 131v170l-350 -82q-50 -11 -72.5 -35t-22.5 -74v-26zM338 1161l57 273h258l-125 -273h-190z" />
<glyph unicode="&#xe2;" d="M59 268v66q0 191 199 235l461 103v49q0 80 -37 115.5t-121 35.5h-98q-86 0 -127 -28t-41 -107h-207q0 63 17.5 116t55.5 98t107.5 70.5t163.5 25.5h148q354 0 354 -314v-733h-211v109q-73 -109 -252 -109h-147q-122 0 -193.5 70.5t-71.5 197.5zM186 1217l86 233h447 l86 -233h-191l-118 149l-119 -149h-191zM274 293q0 -40 11 -65.5t33.5 -37t45.5 -15t60 -3.5h94q100 0 150.5 37t50.5 131v170l-350 -82q-50 -11 -72.5 -35t-22.5 -74v-26z" />
<glyph unicode="&#xe3;" d="M59 268q0 -127 71.5 -197.5t193.5 -70.5h147q179 0 252 109v-109h211v733q0 314 -354 314h-148q-94 0 -163.5 -25.5t-107.5 -70.5t-55.5 -98t-17.5 -116h207q0 79 41 107t127 28h98q84 0 121 -35.5t37 -115.5v-49l-461 -103q-199 -44 -199 -235v-66zM160 1198v70 q0 87 47.5 134.5t126.5 47.5q53 0 138 -22t144 -44l58 -22v88h160v-49q0 -90 -36 -146.5t-120 -56.5q-51 0 -141.5 22t-154.5 44l-65 22v-88h-157zM274 293v26q0 50 22.5 74t72.5 35l350 82v-170q0 -94 -50.5 -131t-150.5 -37h-94q-37 0 -60 3.5t-45.5 15t-33.5 37t-11 65.5 z" />
<glyph unicode="&#xe4;" d="M59 268q0 -127 71.5 -197.5t193.5 -70.5h147q179 0 252 109v-109h211v733q0 314 -354 314h-148q-94 0 -163.5 -25.5t-107.5 -70.5t-55.5 -98t-17.5 -116h207q0 79 41 107t127 28h98q84 0 121 -35.5t37 -115.5v-49l-461 -103q-199 -44 -199 -235v-66zM188 1174v260h232 v-260h-232zM274 293v26q0 50 22.5 74t72.5 35l350 82v-170q0 -94 -50.5 -131t-150.5 -37h-94q-37 0 -60 3.5t-45.5 15t-33.5 37t-11 65.5zM573 1174v260h232v-260h-232z" />
<glyph unicode="&#xe5;" d="M59 268q0 -127 71.5 -197.5t193.5 -70.5h147q179 0 252 109v-109h211v733q0 314 -354 314h-148q-94 0 -163.5 -25.5t-107.5 -70.5t-55.5 -98t-17.5 -116h207q0 79 41 107t127 28h98q84 0 121 -35.5t37 -115.5v-49l-461 -103q-199 -44 -199 -235v-66zM231 1376v80 q0 94 55 154.5t163 60.5h96q108 0 162.5 -60.5t54.5 -154.5v-80q0 -92 -55 -152.5t-164 -60.5h-94q-108 0 -163 60.5t-55 152.5zM274 293v26q0 50 22.5 74t72.5 35l350 82v-170q0 -94 -50.5 -131t-150.5 -37h-94q-37 0 -60 3.5t-45.5 15t-33.5 37t-11 65.5zM389 1393 q0 -52 19 -73.5t71 -21.5h35q52 0 71 21.5t19 73.5v49q0 50 -19 72t-71 22h-35q-52 0 -71 -22t-19 -72v-49z" />
<glyph unicode="&#xe6;" horiz-adv-x="1667" d="M61 268v123q0 98 70 167t199 69h391v88q0 85 -36.5 121t-121.5 36h-98q-86 0 -127 -28t-41 -107h-207q0 63 16.5 115.5t53.5 98t105.5 71t162.5 25.5h147q174 0 248 -103q92 103 271 103h149q170 0 261 -93t91 -254v-245h-659v-119q0 -78 36.5 -121t125.5 -43h121 q89 0 125 43t36 121v26h215v-16q0 -161 -91 -253.5t-261 -92.5h-149q-180 0 -271 102q-73 -102 -248 -102h-249q-122 0 -193.5 70.5t-71.5 197.5zM276 293q0 -40 11 -65.5t33.5 -37t45.5 -15t60 -3.5h94q100 0 150.5 37t50.5 131v115h-350q-50 -6 -72.5 -31.5t-22.5 -77.5 v-53zM936 627h444v84q0 78 -36 120.5t-125 42.5h-121q-89 0 -125.5 -43t-36.5 -120v-84z" />
<glyph unicode="&#xe7;" horiz-adv-x="1013" d="M80 346v354q0 161 92 254t260 93h170q170 0 261 -93t91 -254v-12h-215v23q0 78 -36 120.5t-125 42.5h-121q-89 0 -125.5 -43t-36.5 -120v-375q0 -78 36.5 -121t125.5 -43h121q89 0 125 43t36 121v26h215v-16q0 -161 -91 -253.5t-261 -92.5h-74l-10 -76h113q51 0 85 -29.5 t34 -80.5v-148q0 -65 -41.5 -97t-116.5 -32h-285v139h242q26 0 32.5 12t6.5 42v14q0 28 -6.5 39.5t-32.5 11.5h-199l31 207q-145 13 -223 104.5t-78 239.5z" />
<glyph unicode="&#xe8;" horiz-adv-x="1026" d="M80 346v354q0 161 92 254t260 93h170q170 0 261 -93t91 -254v-227h-659v-137q0 -78 36.5 -121t125.5 -43h121q89 0 125 43t36 121v26h215v-16q0 -161 -91 -253.5t-261 -92.5h-170q-168 0 -260 93t-92 253zM295 645h444v66q0 78 -36 120.5t-125 42.5h-121 q-89 0 -125.5 -43t-36.5 -120v-66zM358 1434h258l58 -273h-191z" />
<glyph unicode="&#xe9;" horiz-adv-x="1026" d="M80 346v354q0 161 92 254t260 93h170q170 0 261 -93t91 -254v-227h-659v-137q0 -78 36.5 -121t125.5 -43h121q89 0 125 43t36 121v26h215v-16q0 -161 -91 -253.5t-261 -92.5h-170q-168 0 -260 93t-92 253zM295 645h444v66q0 78 -36 120.5t-125 42.5h-121 q-89 0 -125.5 -43t-36.5 -120v-66zM358 1161l58 273h258l-125 -273h-191z" />
<glyph unicode="&#xea;" horiz-adv-x="1026" d="M80 346v354q0 161 92 254t260 93h170q170 0 261 -93t91 -254v-227h-659v-137q0 -78 36.5 -121t125.5 -43h121q89 0 125 43t36 121v26h215v-16q0 -161 -91 -253.5t-261 -92.5h-170q-168 0 -260 93t-92 253zM207 1217l86 233h446l86 -233h-190l-119 149l-119 -149h-190z M295 645h444v66q0 78 -36 120.5t-125 42.5h-121q-89 0 -125.5 -43t-36.5 -120v-66z" />
<glyph unicode="&#xeb;" horiz-adv-x="1026" d="M80 346q0 -160 92 -253t260 -93h170q170 0 261 92.5t91 253.5v16h-215v-26q0 -78 -36 -121t-125 -43h-121q-89 0 -125.5 43t-36.5 121v137h659v227q0 161 -91 254t-261 93h-170q-168 0 -260 -93t-92 -254v-354zM209 1174v260h231v-260h-231zM295 645v66q0 77 36.5 120 t125.5 43h121q89 0 125 -42.5t36 -120.5v-66h-444zM594 1174v260h231v-260h-231z" />
<glyph unicode="&#xec;" horiz-adv-x="428" d="M57 1434h258l58 -273h-191zM106 0v1047h216v-1047h-216z" />
<glyph unicode="&#xed;" horiz-adv-x="428" d="M57 1161l58 273h258l-125 -273h-191zM106 0v1047h216v-1047h-216z" />
<glyph unicode="&#xee;" horiz-adv-x="428" d="M-94 1217l86 233h446l86 -233h-190l-119 149l-119 -149h-190zM106 0v1047h216v-1047h-216z" />
<glyph unicode="&#xef;" horiz-adv-x="428" d="M-94 1174v260h231v-260h-231zM106 0h216v1047h-216v-1047zM291 1174v260h231v-260h-231z" />
<glyph unicode="&#xf0;" horiz-adv-x="1050" d="M80 346v354q0 161 92.5 254t261.5 93h94q133 0 213 -91q-23 104 -94 234h-237v129h163q-51 81 -127 176h209q87 -113 125 -176h217v-129h-145q104 -221 104 -424v-420q0 -161 -92.5 -253.5t-261.5 -92.5h-168q-169 0 -261.5 92.5t-92.5 253.5zM295 336q0 -78 36.5 -121 t125.5 -43h121q89 0 125 43t36 121v375q0 78 -36 120.5t-125 42.5h-121q-89 0 -125.5 -43t-36.5 -120v-375z" />
<glyph unicode="&#xf1;" horiz-adv-x="1085" d="M106 0v1047h211v-127q34 59 117 93t160 34h76q138 0 225.5 -76.5t87.5 -220.5v-750h-215v676q0 186 -199 186h-41q-96 0 -151 -47t-55 -145v-670h-216zM207 1198v70q0 87 47.5 134.5t126.5 47.5q53 0 138 -22t143 -44l59 -22v88h160v-49q0 -90 -36 -146.5t-120 -56.5 q-51 0 -141 22t-154 44l-65 22v-88h-158z" />
<glyph unicode="&#xf2;" d="M80 346v354q0 161 92 254t260 93h170q170 0 261 -93t91 -254v-354q0 -161 -91 -253.5t-261 -92.5h-170q-168 0 -260 93t-92 253zM295 336q0 -78 36.5 -121t125.5 -43h121q89 0 125 43t36 121v375q0 78 -36 120.5t-125 42.5h-121q-89 0 -125.5 -43t-36.5 -120v-375z M358 1434h258l58 -273h-191z" />
<glyph unicode="&#xf3;" d="M80 346v354q0 161 92 254t260 93h170q170 0 261 -93t91 -254v-354q0 -161 -91 -253.5t-261 -92.5h-170q-168 0 -260 93t-92 253zM295 336q0 -78 36.5 -121t125.5 -43h121q89 0 125 43t36 121v375q0 78 -36 120.5t-125 42.5h-121q-89 0 -125.5 -43t-36.5 -120v-375z M358 1161l58 273h258l-125 -273h-191z" />
<glyph unicode="&#xf4;" d="M80 346v354q0 161 92 254t260 93h170q170 0 261 -93t91 -254v-354q0 -161 -91 -253.5t-261 -92.5h-170q-168 0 -260 93t-92 253zM207 1217l86 233h446l86 -233h-190l-119 149l-119 -149h-190zM295 336q0 -78 36.5 -121t125.5 -43h121q89 0 125 43t36 121v375 q0 78 -36 120.5t-125 42.5h-121q-89 0 -125.5 -43t-36.5 -120v-375z" />
<glyph unicode="&#xf5;" d="M80 346q0 -160 92 -253t260 -93h170q170 0 261 92.5t91 253.5v354q0 161 -91 254t-261 93h-170q-168 0 -260 -93t-92 -254v-354zM180 1198v70q0 87 47.5 134.5t126.5 47.5q53 0 138 -22t144 -44l58 -22v88h160v-49q0 -90 -36 -146.5t-120 -56.5q-51 0 -141 22t-155 44 l-64 22v-88h-158zM295 336v375q0 77 36.5 120t125.5 43h121q89 0 125 -42.5t36 -120.5v-375q0 -78 -36 -121t-125 -43h-121q-89 0 -125.5 43t-36.5 121z" />
<glyph unicode="&#xf6;" d="M80 346q0 -160 92 -253t260 -93h170q170 0 261 92.5t91 253.5v354q0 161 -91 254t-261 93h-170q-168 0 -260 -93t-92 -254v-354zM209 1174v260h231v-260h-231zM295 336v375q0 77 36.5 120t125.5 43h121q89 0 125 -42.5t36 -120.5v-375q0 -78 -36 -121t-125 -43h-121 q-89 0 -125.5 43t-36.5 121zM594 1174v260h231v-260h-231z" />
<glyph unicode="&#xf7;" horiz-adv-x="1036" d="M53 610h930v195h-930v-195zM387 205v282h260v-282h-260zM387 928v282h260v-282h-260z" />
<glyph unicode="&#xf8;" d="M80 346v354q0 157 89 250t251 97v172h194v-172q165 -4 252.5 -96.5t87.5 -250.5v-354q0 -158 -88 -250.5t-252 -95.5v-172h-194v172q-162 3 -251 96t-89 250zM295 336q0 -78 36.5 -121t125.5 -43h121q89 0 125 43t36 121v375q0 78 -36 120.5t-125 42.5h-121 q-89 0 -125.5 -43t-36.5 -120v-375z" />
<glyph unicode="&#xf9;" horiz-adv-x="1083" d="M100 299v748h215v-676q0 -99 43 -143t136 -44h61q96 0 151.5 47.5t55.5 145.5v670h215v-1047h-211v127q-34 -59 -117 -93t-160 -34h-75q-138 0 -226 77.5t-88 221.5zM381 1434h258l57 -273h-190z" />
<glyph unicode="&#xfa;" horiz-adv-x="1083" d="M100 299v748h215v-676q0 -99 43 -143t136 -44h61q96 0 151.5 47.5t55.5 145.5v670h215v-1047h-211v127q-34 -59 -117 -93t-160 -34h-75q-138 0 -226 77.5t-88 221.5zM381 1161l57 273h258l-125 -273h-190z" />
<glyph unicode="&#xfb;" horiz-adv-x="1083" d="M100 299v748h215v-676q0 -99 43 -143t136 -44h61q96 0 151.5 47.5t55.5 145.5v670h215v-1047h-211v127q-34 -59 -117 -93t-160 -34h-75q-138 0 -226 77.5t-88 221.5zM229 1217l86 233h447l86 -233h-191l-118 149l-119 -149h-191z" />
<glyph unicode="&#xfc;" horiz-adv-x="1083" d="M100 299v748h215v-676q0 -99 43 -143t136 -44h61q96 0 151.5 47.5t55.5 145.5v670h215v-1047h-211v127q-34 -59 -117 -93t-160 -34h-75q-138 0 -226 77.5t-88 221.5zM229 1174v260h232v-260h-232zM614 1174v260h232v-260h-232z" />
<glyph unicode="&#xfd;" horiz-adv-x="985" d="M6 1047h240l205 -875h84l213 875h233l-332 -1240q-43 -158 -110 -212t-220 -54h-172v180h109q93 0 131.5 19t56.5 86l45 174h-213zM387 1161l57 273h258l-124 -273h-191z" />
<glyph unicode="&#xfe;" horiz-adv-x="1060" d="M106 -432v1866h211v-482q30 47 94.5 71t125.5 24h118q144 0 235 -90t91 -240v-379q0 -150 -85 -244t-243 -94h-118q-95 0 -142.5 23.5t-77.5 68.5v-524h-209zM322 340q0 -77 40 -122.5t130 -45.5h112q89 0 125.5 43t36.5 121v375q0 77 -36.5 120t-125.5 43h-110 q-90 0 -131 -47.5t-41 -124.5v-362z" />
<glyph unicode="&#xff;" horiz-adv-x="985" d="M6 1047l270 -1047h213l-45 -174q-18 -67 -56.5 -86t-131.5 -19h-109v-180h172q153 0 220 54t110 212l332 1240h-233l-213 -875h-84l-205 875h-240zM184 1174v260h232v-260h-232zM569 1174v260h232v-260h-232z" />
<glyph unicode="&#x152;" horiz-adv-x="2002" d="M100 352v740q0 158 101 250t272 92h1464v-195h-759v-414h651v-204h-651v-426h759v-195h-1464q-169 0 -271 97t-102 255zM324 408q0 -105 43.5 -159t144.5 -54h444v1044h-444q-101 0 -144.5 -54t-43.5 -159v-618z" />
<glyph unicode="&#x153;" horiz-adv-x="1685" d="M80 346v354q0 161 92 254t260 93h170q160 0 246 -86q83 86 244 86h170q170 0 261 -93t91 -254v-227h-660v-137q0 -78 36.5 -121t125.5 -43h121q89 0 125.5 43t36.5 121v26h215v-16q0 -161 -91 -253.5t-261 -92.5h-170q-161 0 -244 86q-86 -86 -246 -86h-170 q-168 0 -260 93t-92 253zM295 336q0 -78 36.5 -121t125.5 -43h121q89 0 125 43t36 121v375q0 78 -36 120.5t-125 42.5h-121q-89 0 -125.5 -43t-36.5 -120v-375zM954 645h445v66q0 77 -36.5 120t-125.5 43h-121q-89 0 -125.5 -43t-36.5 -120v-66z" />
<glyph unicode="&#x178;" horiz-adv-x="1179" d="M0 1434l479 -873v-561h223v561l478 873h-246l-332 -672l-344 672h-258zM281 1561v260h231v-260h-231zM666 1561v260h231v-260h-231z" />
<glyph unicode="&#x2c6;" horiz-adv-x="839" d="M119 1217l86 233h446l86 -233h-190l-119 149l-119 -149h-190z" />
<glyph unicode="&#x2dc;" horiz-adv-x="878" d="M102 1198v70q0 87 47.5 134.5t126.5 47.5q53 0 138 -22t144 -44l58 -22v88h160v-49q0 -203 -155 -203q-51 0 -141.5 22t-155.5 44l-64 22v-88h-158z" />
<glyph unicode="&#x2000;" horiz-adv-x="936" />
<glyph unicode="&#x2001;" horiz-adv-x="1872" />
<glyph unicode="&#x2002;" horiz-adv-x="936" />
<glyph unicode="&#x2003;" horiz-adv-x="1872" />
<glyph unicode="&#x2004;" horiz-adv-x="624" />
<glyph unicode="&#x2005;" horiz-adv-x="468" />
<glyph unicode="&#x2006;" horiz-adv-x="312" />
<glyph unicode="&#x2007;" horiz-adv-x="312" />
<glyph unicode="&#x2008;" horiz-adv-x="234" />
<glyph unicode="&#x2009;" horiz-adv-x="374" />
<glyph unicode="&#x200a;" horiz-adv-x="104" />
<glyph unicode="&#x2010;" horiz-adv-x="708" d="M82 539v204h545v-204h-545z" />
<glyph unicode="&#x2011;" horiz-adv-x="708" d="M82 539v204h545v-204h-545z" />
<glyph unicode="&#x2012;" horiz-adv-x="708" d="M82 539v204h545v-204h-545z" />
<glyph unicode="&#x2013;" horiz-adv-x="1093" d="M82 539v204h930v-204h-930z" />
<glyph unicode="&#x2014;" horiz-adv-x="1849" d="M82 541v202h1685v-202h-1685z" />
<glyph unicode="&#x2018;" horiz-adv-x="407" d="M96 803v631h228v-543z" />
<glyph unicode="&#x2019;" horiz-adv-x="407" d="M96 803v631h228v-543z" />
<glyph unicode="&#x201a;" horiz-adv-x="419" d="M96 303h228v-543l-228 -88v631z" />
<glyph unicode="&#x201c;" horiz-adv-x="837" d="M96 803v631h228v-543zM526 803v631h228v-543z" />
<glyph unicode="&#x201d;" horiz-adv-x="837" d="M96 803v631h228v-543zM526 803v631h228v-543z" />
<glyph unicode="&#x201e;" horiz-adv-x="837" d="M90 223h227v-542l-227 -89v631zM520 223h228v-542l-228 -89v631z" />
<glyph unicode="&#x2022;" horiz-adv-x="659" d="M63 717q0 109 79 187.5t188 78.5t187.5 -78.5t78.5 -187.5t-78.5 -187.5t-187.5 -78.5t-188 78.5t-79 187.5z" />
<glyph unicode="&#x2026;" horiz-adv-x="1669" d="M96 0v303h260v-303h-260zM705 0v303h260v-303h-260zM1313 0v303h260v-303h-260z" />
<glyph unicode="&#x202f;" horiz-adv-x="374" />
<glyph unicode="&#x2039;" horiz-adv-x="606" d="M14 526l314 525h235l-307 -525l311 -526h-239z" />
<glyph unicode="&#x203a;" horiz-adv-x="606" d="M39 0l311 526l-307 525h236l313 -525l-313 -526h-240z" />
<glyph unicode="&#x205f;" horiz-adv-x="468" />
<glyph unicode="&#x20ac;" horiz-adv-x="1351" d="M57 442v189h146v174h-146v188h146v99q0 158 100 250t270 92h336q172 0 272.5 -91.5t100.5 -248.5v-99h-223v31q0 105 -43 159t-144 54h-262q-101 0 -143.5 -54t-42.5 -159v-33h440v-188h-440v-174h440v-189h-440v-34q0 -105 42.5 -159t143.5 -54h262q101 0 144 54t43 159 v30h223v-98q0 -157 -100.5 -248.5t-272.5 -91.5h-336q-170 0 -270 91.5t-100 248.5v102h-146z" />
<glyph unicode="&#x2122;" horiz-adv-x="1933" d="M45 1272v162h760v-162h-285v-608h-190v608h-285zM952 664v770h279l162 -418l166 418h270v-770h-193v542l-151 -393h-187l-153 393v-542h-193z" />
<glyph unicode="&#x25fc;" horiz-adv-x="1044" d="M0 0v1044h1044v-1044h-1044z" />
</font>
</defs>
</svg>
