<?xml version="1.0" standalone="no"?>
<!DOCTYPE svg PUBLIC "-//W3C//DTD SVG 1.1//EN" "http://www.w3.org/Graphics/SVG/1.1/DTD/svg11.dtd" >
<svg xmlns="http://www.w3.org/2000/svg" xmlns:xlink="http://www.w3.org/1999/xlink" version="1.1">
<metadata></metadata>
<defs>
<font id="copenhagenbold" horiz-adv-x="1280" >
<font-face units-per-em="2048" ascent="1536" descent="-512" />
<missing-glyph horiz-adv-x="409" />
<glyph unicode="&#xfb01;" horiz-adv-x="1167" d="M-4 799l74 288h98v109q0 140 96.5 222.5t278.5 82.5h549v-284h-510q-39 0 -54.5 -18.5t-15.5 -53.5v-58h580v-1087h-342v799h-238v-799h-344v799h-172z" />
<glyph unicode="&#xfb02;" horiz-adv-x="1247" d="M-4 799l74 288h98v109q0 140 96.5 222.5t278.5 82.5h549v-1147q0 -34 15.5 -50.5t55.5 -16.5h76v-287h-178q-93 0 -155.5 20.5t-95.5 62.5t-46.5 93.5t-13.5 124.5v916h-168q-39 0 -54.5 -18.5t-15.5 -53.5v-58h174v-288h-174v-799h-344v799h-172z" />
<glyph horiz-adv-x="0" />
<glyph horiz-adv-x="682" />
<glyph unicode=" "  horiz-adv-x="409" />
<glyph unicode="&#x09;" horiz-adv-x="409" />
<glyph unicode="&#xa0;" horiz-adv-x="409" />
<glyph unicode="!" horiz-adv-x="557" d="M102 0v338h353v-338h-353zM102 453v981h353v-981h-353z" />
<glyph unicode="&#x22;" horiz-adv-x="913" d="M74 764v670h352v-670h-352zM487 764v670h353v-670h-353z" />
<glyph unicode="#" horiz-adv-x="1226" d="M61 414v198h232v211h-232v199h232v412h217v-412h209v412h217v-412h229v-199h-229v-211h229v-198h-229v-414h-217v414h-209v-414h-217v414h-232zM510 612h209v211h-209v-211z" />
<glyph unicode="$" horiz-adv-x="1269" d="M72 371v155h354v-104q0 -58 27 -87.5t98 -29.5v273l-217 49q-138 31 -200 113t-62 216v105q0 173 117.5 273t310.5 100h51v196h156v-196h71q189 0 301.5 -102t112.5 -275v-146h-354v101q0 116 -107 116h-24v-245l151 -35q171 -39 256.5 -116t85.5 -220v-133 q0 -173 -113 -276t-303 -103h-77v-197h-156v197h-66q-190 0 -301.5 99.5t-111.5 271.5zM426 1008q0 -39 25 -55.5t84 -30.5l16 -4v210h-23q-59 0 -80.5 -22t-21.5 -74v-24zM707 305h8q131 0 131 98v21q0 54 -21 72t-90 39l-28 8v-238z" />
<glyph unicode="%" horiz-adv-x="1726" d="M57 981v143q0 132 75 221t206 89h113q130 0 205 -89t75 -221v-143q0 -130 -75 -218.5t-205 -88.5h-113q-131 0 -206 88t-75 219zM102 0l1258 1434h270l-1257 -1434h-271zM285 993q0 -33 2.5 -53.5t10.5 -40.5t26 -29.5t47 -9.5h45q24 0 40.5 7t25.5 17.5t13.5 29.5 t5.5 35.5t1 43.5v119q0 28 -1 44.5t-5.5 36t-13.5 30t-25.5 17.5t-40.5 7h-45q-29 0 -47 -9.5t-26 -30t-10.5 -41t-2.5 -54.5v-119zM995 307v144q0 132 75 220.5t206 88.5h113q131 0 205.5 -88.5t74.5 -220.5v-144q0 -131 -74.5 -219t-205.5 -88h-113q-131 0 -206 88 t-75 219zM1225 319q0 -27 1 -43.5t5.5 -35.5t13.5 -29.5t25.5 -17.5t40.5 -7h43q24 0 40.5 7t25.5 17.5t13.5 29.5t5.5 35.5t1 43.5v119q0 28 -1 44.5t-5.5 36t-13.5 30t-25.5 17.5t-40.5 7h-43q-24 0 -40.5 -7t-25.5 -17.5t-13.5 -30t-5.5 -36t-1 -44.5v-119z" />
<glyph unicode="&#x26;" horiz-adv-x="1314" d="M35 344v21q0 142 123 253l114 103l-41 33q-79 64 -122 133t-43 168v45q0 150 115 243t288 93h176q171 0 274 -85.5t103 -234.5q0 -89 -35.5 -150.5t-107.5 -127.5l-119 -111l186 -149l316 317v-463l-64 -61l64 -54v-317h-125l-176 145l-35 -32q-63 -60 -127.5 -86.5 t-171.5 -26.5h-232q-166 0 -263 94.5t-97 249.5zM403 377q0 -72 86 -72h132q31 0 48.5 9.5t41.5 35.5l-195 170l-80 -76q-33 -30 -33 -67zM408 1063q0 -31 13 -49t48 -45l70 -54l157 158v14q0 46 -51 46h-170q-67 0 -67 -70z" />
<glyph unicode="'" horiz-adv-x="499" d="M74 764v670h352v-670h-352z" />
<glyph unicode="(" horiz-adv-x="622" d="M39 543v137q0 209 103.5 441t244.5 356h277q-11 -16 -29.5 -44.5t-66 -121t-84 -187.5t-66 -234.5t-29.5 -271.5v-14q0 -132 28.5 -269.5t68.5 -238.5t80.5 -183t69.5 -125l28 -42h-277q-141 126 -244.5 357.5t-103.5 439.5z" />
<glyph unicode=")" horiz-adv-x="622" d="M-41 -254q11 16 29.5 44.5t66 120.5t83.5 187t65.5 234.5t29.5 271.5v14q0 132 -28 269.5t-68.5 238.5t-81 183.5t-68.5 124.5l-28 43h277q141 -124 244.5 -356t103.5 -441v-137q0 -208 -103.5 -439.5t-244.5 -357.5h-277z" />
<glyph unicode="*" horiz-adv-x="1183" d="M43 897l119 313l297 -125l-47 349h358l-45 -349l297 125l119 -313l-324 -55l268 -279l-270 -188l-223 317l-223 -317l-273 188l269 281z" />
<glyph unicode="+" horiz-adv-x="1169" d="M51 557v285h373v405h321v-405h373v-285h-373v-403h-321v403h-373z" />
<glyph unicode="," horiz-adv-x="487" d="M68 -332v670h352v-541z" />
<glyph unicode="-" horiz-adv-x="747" d="M78 498v290h592v-290h-592z" />
<glyph unicode="." horiz-adv-x="487" d="M68 0v338h352v-338h-352z" />
<glyph unicode="/" horiz-adv-x="606" d="M23 -268l385 1702h151l-379 -1702h-157z" />
<glyph unicode="0" horiz-adv-x="1189" d="M68 379v676q0 173 112.5 276t300.5 103h224q191 0 304 -103t113 -276v-676q0 -173 -113 -276t-304 -103h-224q-188 0 -300.5 103t-112.5 276zM422 422q0 -56 34.5 -86.5t98.5 -30.5h78q63 0 99 31t36 86v590q0 57 -35.5 87.5t-99.5 30.5h-78q-64 0 -98.5 -30.5 t-34.5 -87.5v-590z" />
<glyph unicode="1" horiz-adv-x="555" d="M92 0v1341l350 107v-1448h-350z" />
<glyph unicode="2" horiz-adv-x="1159" d="M61 834v223q0 172 112.5 274.5t301.5 102.5h203q191 0 304.5 -103t113.5 -276v-72q0 -97 -34.5 -169.5t-103.5 -137.5l-397 -371h541v-305h-1036v285l608 577q53 50 53 129v21q0 66 -28.5 92t-94.5 26h-55q-71 0 -102 -26t-31 -92v-178h-355z" />
<glyph unicode="3" horiz-adv-x="1169" d="M41 375v112h354v-59q0 -65 35.5 -94t110.5 -29h88q68 0 98.5 28.5t30.5 94.5v55q0 66 -30.5 94.5t-98.5 28.5h-346v260l350 264h-563l24 304h998v-304l-332 -245q70 -3 131 -25t112 -63.5t81 -111.5t30 -159v-139q0 -175 -114 -281t-304 -106h-239q-191 0 -303.5 100.5 t-112.5 274.5z" />
<glyph unicode="4" horiz-adv-x="1196" d="M25 330v303l489 801h496v-801h157v-303h-157v-330h-355v330h-630zM369 633h286v483z" />
<glyph unicode="5" horiz-adv-x="1175" d="M49 375v112h354v-59q0 -65 35.5 -94t108.5 -29h90q67 0 99 29t32 94v137q0 66 -32 95.5t-99 29.5h-86q-49 0 -86 -29t-47 -83l-350 45l67 811h936v-304h-643l-25 -231q82 94 220 94h84q191 0 302 -102t111 -279v-225q0 -175 -112.5 -281t-302.5 -106h-242 q-190 0 -302 100.5t-112 274.5z" />
<glyph unicode="6" horiz-adv-x="1210" d="M76 379v676q0 173 112 276t301 103h246q190 0 302 -102.5t112 -274.5v-68h-350v17q0 66 -36.5 95t-109.5 29h-92q-67 0 -99 -29t-32 -95v-195q93 104 256 104h49q191 0 302.5 -103t111.5 -280v-153q0 -174 -112 -276.5t-302 -102.5h-246q-189 0 -301 103t-112 276z M430 422q0 -55 34.5 -86t96.5 -31h103q63 0 99 31t36 86v70q0 55 -36 85.5t-99 30.5h-103q-62 0 -96.5 -30.5t-34.5 -85.5v-70z" />
<glyph unicode="7" horiz-adv-x="1134" d="M39 911v523h1075v-306l-545 -1128h-407l577 1130h-356v-219h-344z" />
<glyph unicode="8" horiz-adv-x="1232" d="M53 348v55q0 106 55.5 182.5t141.5 108.5l69 27l-71 35q-81 40 -131.5 111t-50.5 169v47q0 161 113 256t296 95h283q183 0 296 -95t113 -256v-47q0 -98 -50.5 -169t-131.5 -111l-72 -35l70 -27q86 -32 141.5 -108.5t55.5 -182.5v-55q0 -150 -114 -249t-278 -99h-344 q-164 0 -277.5 99t-113.5 249zM418 395q0 -50 29 -70t94 -20h151q64 0 93.5 20.5t29.5 69.5q0 75 -84 113l-115 49l-114 -49q-84 -36 -84 -113zM422 1026q0 -42 29 -70.5t92 -58.5l73 -35l74 35q63 30 92 58.5t29 70.5v35q0 32 -24.5 50.5t-61.5 18.5h-217 q-37 0 -61.5 -18.5t-24.5 -50.5v-35z" />
<glyph unicode="9" horiz-adv-x="1193" d="M53 377v67h350v-16q0 -66 36.5 -95.5t109.5 -29.5h92q67 0 99 29.5t32 95.5v195q-94 -105 -256 -105h-49q-191 0 -302.5 103t-111.5 280v154q0 174 112 276.5t302 102.5h246q189 0 301 -103t112 -276v-676q0 -173 -112 -276t-301 -103h-246q-190 0 -302 102.5t-112 274.5 zM403 942q0 -55 36.5 -86t99.5 -31h102q62 0 96.5 31t34.5 86v70q0 55 -34.5 85.5t-96.5 30.5h-102q-64 0 -100 -30.5t-36 -85.5v-70z" />
<glyph unicode=":" horiz-adv-x="544" d="M96 0v338h353v-338h-353zM96 750v337h353v-337h-353z" />
<glyph unicode=";" horiz-adv-x="544" d="M96 -332v670h353v-541zM96 750v337h353v-337h-353z" />
<glyph unicode="&#x3c;" horiz-adv-x="1513" d="M102 735v25l750 583v-411h559v-369h-559v-411z" />
<glyph unicode="=" horiz-adv-x="1122" d="M86 338v285h950v-285h-950zM86 776v283h950v-283h-950z" />
<glyph unicode="&#x3e;" horiz-adv-x="1513" d="M102 563v369h560v411l749 -583v-25l-749 -583v411h-560z" />
<glyph unicode="?" horiz-adv-x="1085" d="M49 891v164q0 173 114.5 276t305.5 103h154q192 0 300.5 -93.5t108.5 -259.5v-98q0 -86 -32 -158.5t-80 -115.5l-215 -189v-102h-353v237l281 232q43 34 43 110v15q0 65 -29 91.5t-96 26.5h-12q-73 0 -105.5 -26.5t-32.5 -91.5v-121h-352zM352 0v338h353v-338h-353z" />
<glyph unicode="@" horiz-adv-x="1742" d="M72 229v619q0 93 34.5 175.5t98.5 145.5t162.5 99.5t218.5 36.5h571q120 0 219 -36.5t163 -99.5t99 -145.5t35 -175.5v-356q0 -210 -85 -300t-267 -90h-82q-78 0 -123.5 37t-54.5 80q-78 -117 -240 -117h-78q-104 0 -168.5 53.5t-64.5 149.5v92q0 72 44.5 126t131.5 73 l348 76v39q0 46 -27.5 70t-91.5 24h-81q-53 0 -82 -21t-29 -61v-14h-193v30q0 108 78.5 171t188.5 63h168q117 0 190.5 -61t73.5 -171v-397q0 -47 12.5 -65.5t46.5 -18.5h29q39 0 66 9.5t49 33t32.5 69t10.5 113.5v340q0 148 -91.5 230t-253.5 82h-518q-162 0 -252 -81.5 t-90 -230.5v-571q0 -150 90 -231.5t252 -81.5h869v-168h-895q-120 0 -218.5 36.5t-162.5 99.5t-98.5 145t-34.5 175zM700 348q0 -24 6 -40t14 -24.5t28 -12.5t34.5 -4.5t46.5 -0.5h66q65 0 102 28t37 83v139l-282 -67q-23 -5 -37.5 -22t-14.5 -44v-35z" />
<glyph unicode="A" d="M-14 0l397 1434h514l397 -1434h-397l-78 334h-377l-71 -334h-385zM518 641h227l-112 530z" />
<glyph unicode="B" horiz-adv-x="1267" d="M86 0v1434h702q191 0 303.5 -103t112.5 -278v-31q0 -179 -172 -274q88 -22 139.5 -95t51.5 -151v-123q0 -174 -111 -276.5t-301 -102.5h-725zM440 305h297q62 0 96.5 28.5t34.5 82.5v47q0 54 -33 83t-92 29h-303v-270zM440 881h267q139 0 139 108v35q0 104 -127 104h-279 v-247z" />
<glyph unicode="C" horiz-adv-x="1259" d="M68 379v674q0 175 112 278t301 103h310q190 0 302.5 -103t112.5 -276v-164h-356v121q0 55 -34.5 85.5t-96.5 30.5h-166q-62 0 -96.5 -30.5t-34.5 -85.5v-590q0 -55 34.5 -86t96.5 -31h166q62 0 96.5 31t34.5 86v121h356v-164q0 -173 -112.5 -276t-302.5 -103h-310 q-189 0 -301 103t-112 276z" />
<glyph unicode="D" horiz-adv-x="1290" d="M86 0v1434h723q190 0 302 -103t112 -278v-674q0 -174 -112 -276.5t-302 -102.5h-723zM440 305h297q62 0 96.5 31t34.5 86v590q0 55 -34.5 85.5t-96.5 30.5h-297v-823z" />
<glyph unicode="E" horiz-adv-x="1185" d="M86 0v1434h1049v-306h-697v-247h596v-316h-596v-260h697v-305h-1049z" />
<glyph unicode="F" horiz-adv-x="1112" d="M86 0v1434h989v-306h-635v-297h561v-311h-561v-520h-354z" />
<glyph unicode="G" horiz-adv-x="1267" d="M68 379v674q0 175 112 278t301 103h310q190 0 302.5 -103t112.5 -276v-164h-356v121q0 55 -34.5 85.5t-96.5 30.5h-166q-62 0 -96.5 -30.5t-34.5 -85.5v-590q0 -55 34.5 -86t96.5 -31h166q62 0 96.5 31t34.5 86v78h-258v303h614v-424q0 -173 -112.5 -276t-302.5 -103 h-310q-189 0 -301 103t-112 276z" />
<glyph unicode="H" horiz-adv-x="1333" d="M86 0v1434h352v-553h457v553h352v-1434h-352v565h-457v-565h-352z" />
<glyph unicode="I" horiz-adv-x="524" d="M86 0v1434h352v-1434h-352z" />
<glyph unicode="J" horiz-adv-x="524" d="M86 -397v1831h352v-1688z" />
<glyph unicode="K" horiz-adv-x="1253" d="M86 0v1434h352v-564h135l281 564h416l-396 -713l375 -721h-428l-262 553h-121v-553h-352z" />
<glyph unicode="L" horiz-adv-x="1134" d="M86 0v1434h352v-1121h670v-313h-1022z" />
<glyph unicode="M" horiz-adv-x="1556" d="M86 0v1434h465l231 -598l234 598h454v-1434h-352v897l-180 -442h-320l-178 442v-897h-354z" />
<glyph unicode="N" horiz-adv-x="1333" d="M86 0v1434h430l379 -877v877h352v-1434h-434l-375 866v-866h-352z" />
<glyph unicode="O" horiz-adv-x="1273" d="M68 379v674q0 175 112 278t301 103h310q190 0 302.5 -103t112.5 -278v-674q0 -173 -112.5 -276t-302.5 -103h-310q-189 0 -301 103t-112 276zM422 422q0 -55 34.5 -86t96.5 -31h166q62 0 96.5 31t34.5 86v590q0 55 -34.5 85.5t-96.5 30.5h-166q-62 0 -96.5 -30.5 t-34.5 -85.5v-590z" />
<glyph unicode="P" horiz-adv-x="1216" d="M86 0v1434h684q188 0 300 -103.5t112 -277.5v-183q0 -175 -116 -278t-318 -103h-308v-489h-354zM440 793h254q64 0 98.5 30.5t34.5 87.5v101q0 56 -34.5 86t-98.5 30h-254v-335z" />
<glyph unicode="Q" horiz-adv-x="1273" d="M68 379v674q0 175 112 278t301 103h310q190 0 302.5 -103t112.5 -278v-674q0 -170 -107.5 -274.5t-289.5 -104.5h-33v-41q0 -47 45 -47h219v-299h-233q-93 0 -156.5 13.5t-110.5 46.5t-69 92t-22 147v88q-174 9 -277.5 111.5t-103.5 267.5zM422 422q0 -55 34.5 -86 t96.5 -31h166q62 0 96.5 31t34.5 86v590q0 55 -34.5 85.5t-96.5 30.5h-166q-62 0 -96.5 -30.5t-34.5 -85.5v-590z" />
<glyph unicode="R" horiz-adv-x="1261" d="M86 0v1434h715q189 0 302.5 -103.5t113.5 -277.5v-129q0 -122 -65 -218t-189 -133l315 -573h-416l-260 518h-164v-518h-352zM438 823h289q62 0 98.5 31t36.5 86v72q0 55 -36.5 85.5t-98.5 30.5h-289v-305z" />
<glyph unicode="S" horiz-adv-x="1239" d="M55 371v155h355v-104q0 -55 35 -86t98 -31h157q136 0 136 98v21q0 56 -25.5 75.5t-108.5 39.5l-385 88q-138 31 -200 113t-62 216v105q0 173 117.5 273t310.5 100h279q189 0 301.5 -102t112.5 -275v-146h-355v101q0 55 -35 85.5t-98 30.5h-145q-66 0 -99.5 -22t-33.5 -74 v-24q0 -37 24.5 -55.5t83.5 -30.5l330 -74q172 -38 257 -116.5t85 -219.5v-133q0 -173 -113 -276t-303 -103h-305q-190 0 -302 99.5t-112 271.5z" />
<glyph unicode="T" horiz-adv-x="1191" d="M27 1120v314h1138v-314h-393v-1120h-352v1120h-393z" />
<glyph unicode="U" d="M82 379v1055h354v-1012q0 -55 34.5 -86t96.5 -31h144q63 0 98 31t35 86v1012h354v-1055q0 -173 -113 -276t-303 -103h-284q-190 0 -303 103t-113 276z" />
<glyph unicode="V" horiz-adv-x="1267" d="M-14 1434h405l244 -1108l252 1108h393l-365 -1434h-563z" />
<glyph unicode="W" horiz-adv-x="1998" d="M-6 1434h403l170 -1094l228 1094h415l230 -1094l174 1094h389l-299 -1434h-514l-191 967l-192 -967h-512z" />
<glyph unicode="X" horiz-adv-x="1261" d="M-16 0l419 743l-407 691h416l231 -441l203 441h401l-385 -723l426 -711h-426l-246 449l-217 -449h-415z" />
<glyph unicode="Y" horiz-adv-x="1255" d="M-12 1434h428l223 -523l219 523h410l-455 -922v-512h-367v512z" />
<glyph unicode="Z" horiz-adv-x="1179" d="M45 0v322l641 798h-631v314h1073v-322l-630 -799h630v-313h-1083z" />
<glyph unicode="[" horiz-adv-x="669" d="M90 -268v1767h572v-211h-230v-1345h230v-211h-572z" />
<glyph unicode="\" horiz-adv-x="606" d="M47 1434h152l385 -1702h-158z" />
<glyph unicode="]" horiz-adv-x="669" d="M8 -57h230v1345h-230v211h572v-1767h-572v211z" />
<glyph unicode="^" horiz-adv-x="1101" d="M61 588l252 846h473l254 -846h-346l-145 545l-146 -545h-342z" />
<glyph unicode="_" horiz-adv-x="741" d="M10 -94h721v-285h-721v285z" />
<glyph unicode="`" horiz-adv-x="618" d="M63 1464h394l71 -315h-321z" />
<glyph unicode="a" horiz-adv-x="1054" d="M31 319v27q0 104 67 175.5t193 92.5l350 58v71q0 70 -92 70h-55q-49 0 -77 -18t-28 -54v-30h-330v24q0 72 19.5 131.5t63.5 111t125 80.5t194 29h123q196 0 297.5 -89t101.5 -263v-735h-338v94q-32 -43 -95.5 -68.5t-119.5 -25.5h-61q-159 0 -248.5 77t-89.5 242z M371 303q0 -57 61 -57h94q115 0 115 102v84l-227 -43q-43 -9 -43 -57v-29z" />
<glyph unicode="b" horiz-adv-x="1083" d="M76 0v1434h336v-447q36 54 100 77t125 23h31q159 0 259.5 -87t100.5 -252v-398q0 -165 -101.5 -257.5t-260.5 -92.5h-74q-53 0 -104 20t-76 70v-90h-336zM418 379q0 -103 119 -103h34q117 0 117 103v321q0 103 -117 103h-34q-119 0 -119 -103v-321z" />
<glyph unicode="c" horiz-adv-x="1046" d="M53 383v324q0 176 103.5 278t294.5 102h157q191 0 294.5 -102t103.5 -278v-56h-340v60q0 102 -117 102h-37q-119 0 -119 -102v-332q0 -103 119 -103h37q117 0 117 103v57h340v-53q0 -178 -103.5 -280.5t-294.5 -102.5h-157q-191 0 -294.5 102.5t-103.5 280.5z" />
<glyph unicode="d" horiz-adv-x="1083" d="M55 350v398q0 165 101 252t260 87h30q61 0 125.5 -23t100.5 -77v447h336v-1434h-336v94q-30 -49 -90 -71.5t-111 -22.5h-53q-159 0 -261 92.5t-102 257.5zM397 379q0 -103 119 -103h35q117 0 117 103v321q0 103 -117 103h-35q-119 0 -119 -103v-321z" />
<glyph unicode="e" horiz-adv-x="1050" d="M53 383v324q0 176 103.5 278t294.5 102h157q191 0 294.5 -102t103.5 -278v-238h-613v-90q0 -103 119 -103h39q117 0 117 103v10h338v-27q0 -164 -101.5 -263t-290.5 -99h-159q-192 0 -297 103t-105 280zM393 668h273v43q0 102 -117 102h-37q-119 0 -119 -102v-43z" />
<glyph unicode="f" horiz-adv-x="702" d="M-4 799l74 288h98v109q0 140 96.5 222.5t278.5 82.5h207v-284h-168q-39 0 -54.5 -18.5t-15.5 -53.5v-58h174v-288h-174v-799h-344v799h-172z" />
<glyph unicode="g" horiz-adv-x="1048" d="M55 526v236q0 129 85.5 223t226.5 98v97q0 140 98 221.5t280 81.5h228v-287h-191q-75 0 -75 -51v-62q140 -13 220.5 -105.5t80.5 -215.5v-236q0 -135 -107.5 -231t-257.5 -96h-184q-17 0 -28 -8.5t-11 -22.5v-8q0 -35 45 -35h252q135 0 225 -74t90 -205v-233h-344v156 q0 35 -19.5 51t-62.5 16h-241q-140 0 -222 58t-82 182v12q0 62 33.5 117.5t91.5 79.5q-62 41 -96.5 105t-34.5 136zM397 545q0 -36 24.5 -56t67.5 -20h84q46 0 71.5 19.5t25.5 56.5v198q0 74 -97 74h-84q-43 0 -67.5 -19t-24.5 -55v-198z" />
<glyph unicode="h" horiz-adv-x="1101" d="M76 0v1434h340v-447q36 54 100 77t125 23h29q159 0 259.5 -87t100.5 -252v-748h-342v702q0 101 -117 101h-32q-57 0 -89 -26t-32 -79v-698h-342z" />
<glyph unicode="i" horiz-adv-x="493" d="M76 0v1087h342v-1087h-342zM76 1165v318h342v-318h-342z" />
<glyph unicode="j" horiz-adv-x="487" d="M76 -446v1533h336v-1425zM76 1157v318h336v-318h-336z" />
<glyph unicode="k" horiz-adv-x="1105" d="M76 0v1434h342v-713l291 366h395l-326 -395l318 -633v-59h-365l-209 455l-104 -131v-324h-342z" />
<glyph unicode="l" horiz-adv-x="569" d="M72 301v1133h342v-1080q0 -34 15.5 -50.5t55.5 -16.5h76v-287h-178q-93 0 -155.5 20.5t-95.5 62.5t-46.5 93.5t-13.5 124.5z" />
<glyph unicode="m" horiz-adv-x="1681" d="M76 0v1087h342v-100q36 54 100 77t125 23h16q200 0 273 -139q52 69 138 104t147 35h32q159 0 260 -87t101 -252v-748h-342v702q0 101 -117 101h-12q-54 0 -86.5 -23.5t-32.5 -70.5l-2 -709h-348v702q0 101 -117 101h-12q-57 0 -89 -26t-32 -79v-698h-344z" />
<glyph unicode="n" horiz-adv-x="1101" d="M76 0v1087h340v-100q36 54 100 77t125 23h29q159 0 259.5 -87t100.5 -252v-748h-342v702q0 101 -117 101h-32q-57 0 -89 -26t-32 -79v-698h-342z" />
<glyph unicode="o" horiz-adv-x="1058" d="M53 383v324q0 176 103.5 278t294.5 102h157q191 0 294.5 -102t103.5 -278v-324q0 -178 -103.5 -280.5t-294.5 -102.5h-157q-191 0 -294.5 102.5t-103.5 280.5zM393 379q0 -103 119 -103h37q117 0 117 103v332q0 102 -117 102h-37q-119 0 -119 -102v-332z" />
<glyph unicode="p" horiz-adv-x="1085" d="M76 -418v1505h340v-100q36 54 99.5 77t123.5 23h31q159 0 259.5 -87t100.5 -252v-398q0 -165 -101.5 -257.5t-260.5 -92.5h-74q-52 0 -101.5 20t-74.5 70v-508h-342zM418 379q0 -103 119 -103h34q117 0 117 103v321q0 103 -117 103h-34q-119 0 -119 -103v-321z" />
<glyph unicode="q" horiz-adv-x="1085" d="M55 350v398q0 165 101 252t260 87h30q61 0 125.5 -23t100.5 -77v100h338v-1519h-342v526q-30 -49 -91.5 -71.5t-113.5 -22.5h-45q-159 0 -261 92.5t-102 257.5zM397 379q0 -103 117 -103h35q119 0 119 103v332q0 102 -119 102h-35q-117 0 -117 -102v-332z" />
<glyph unicode="r" horiz-adv-x="778" d="M76 0v1087h327v-98q34 53 90.5 75.5t108.5 22.5h158v-337h-223q-75 0 -99 -28.5t-24 -94.5v-627h-338z" />
<glyph unicode="s" horiz-adv-x="1030" d="M37 309v53h336v-14q0 -37 17.5 -54.5t60.5 -17.5h124q84 0 84 37v23q0 23 -22 34t-72 19l-241 43q-129 23 -203 95.5t-74 193.5v51q0 140 102 227.5t259 87.5h198q163 0 262 -88t99 -223v-43h-334v10q0 38 -15 54t-59 16h-98q-68 0 -68 -55q0 -20 12 -32.5t44 -18.5 l284 -52q140 -26 203 -92.5t63 -177.5v-55q0 -139 -102.5 -234.5t-261.5 -95.5h-254q-152 0 -248 86t-96 223z" />
<glyph unicode="t" horiz-adv-x="788" d="M-8 799l69 288h121v347h342v-347h236v-288h-236v-445q0 -34 16 -50.5t56 -16.5h162v-287h-223q-182 0 -267.5 79t-85.5 222v498h-190z" />
<glyph unicode="u" horiz-adv-x="1101" d="M72 340v747h342v-702q0 -100 116 -100h33q121 0 121 104v698h342v-1087h-340v100q-36 -54 -100 -77t-125 -23h-29q-159 0 -259.5 87.5t-100.5 252.5z" />
<glyph unicode="v" horiz-adv-x="1120" d="M-12 1087h387l198 -743l181 743h376l-319 -1087h-492z" />
<glyph unicode="w" horiz-adv-x="1693" d="M2 1087h360l130 -677l178 677h385l162 -669l129 669h346l-234 -1087h-452l-164 674l-166 -674h-440z" />
<glyph unicode="x" horiz-adv-x="1107" d="M-12 0l348 561l-322 526h387l166 -296l150 296h389l-338 -542l348 -545h-403l-166 311l-172 -311h-387z" />
<glyph unicode="y" horiz-adv-x="1087" d="M-6 1087h397l150 -784l172 784h381l-326 -1212q-47 -172 -124.5 -232.5t-248.5 -60.5h-235v285h153q53 0 79.5 13t35.5 48l16 72h-168z" />
<glyph unicode="z" horiz-adv-x="997" d="M45 0v289l469 518h-455v280h887v-286l-477 -520h477v-281h-901z" />
<glyph unicode="{" horiz-adv-x="700" d="M16 489v256h66q31 0 51 7.5t30.5 17.5t15.5 33.5t6 40.5t1 55v291q0 166 87.5 237.5t248.5 71.5h152v-252h-53q-82 0 -82 -67v-299q0 -103 -58.5 -172t-167.5 -78v-27q109 -9 167.5 -78t58.5 -172v-303q0 -67 82 -67h53v-252h-152q-161 0 -248.5 71.5t-87.5 237.5v295 q0 37 -1 54.5t-6 41t-15.5 33t-30.5 17t-51 7.5h-66z" />
<glyph unicode="|" horiz-adv-x="397" d="M90 -371v2157h217v-2157h-217z" />
<glyph unicode="}" horiz-adv-x="700" d="M27 -16h53q82 0 82 67v303q0 103 58 172t167 78v27q-109 9 -167 78t-58 172v299q0 67 -82 67h-53v252h151q161 0 248.5 -71.5t87.5 -237.5v-291q0 -38 1 -55t6 -40.5t15.5 -33.5t30.5 -17.5t51 -7.5h66v-256h-66q-31 0 -51 -7.5t-30.5 -17t-15.5 -33t-6 -41t-1 -54.5 v-295q0 -166 -87.5 -237.5t-248.5 -71.5h-151v252z" />
<glyph unicode="~" horiz-adv-x="995" d="M63 514v172q0 105 53 168.5t148 63.5q55 0 151 -21t165 -42l69 -21v84h283v-173q0 -107 -47.5 -169t-141.5 -62q-56 0 -155 21.5t-170 42.5l-72 22v-86h-283z" />
<glyph unicode="&#xa1;" horiz-adv-x="565" d="M106 -346v981h353v-981h-353zM106 750v337h353v-337h-353z" />
<glyph unicode="&#xa2;" horiz-adv-x="1075" d="M63 383v324q0 162 87 261.5t251 116.5v164h271v-164q165 -15 254.5 -115t89.5 -263v-56h-340v60q0 102 -117 102h-37q-119 0 -119 -102v-332q0 -103 119 -103h37q117 0 117 103v57h340v-53q0 -165 -89.5 -266.5t-254.5 -114.5v-184h-271v184q-163 15 -250.5 116 t-87.5 265z" />
<glyph unicode="&#xa3;" horiz-adv-x="1284" d="M68 0v305h135v213h-135v285h135v252q0 175 111.5 278t301.5 103h183q189 0 301 -103t112 -276v-144h-356v105q0 54 -34.5 83t-96.5 29h-37q-62 0 -96.5 -29t-34.5 -83v-215h365v-285h-365v-213h657v-305h-1146z" />
<glyph unicode="&#xa4;" horiz-adv-x="1363" d="M51 1163l178 170l164 -162q83 39 187 39h202q101 0 189 -43l170 166l172 -172l-178 -176q26 -73 26 -149v-254q0 -74 -26 -150l178 -174l-174 -174l-168 164q-84 -41 -189 -41h-202q-103 0 -187 41l-164 -162l-176 170l172 172q-24 60 -24 154v254q0 86 26 151zM489 596 q0 -135 129 -135h127q127 0 127 135v225q0 135 -127 135h-127q-129 0 -129 -135v-225z" />
<glyph unicode="&#xa5;" horiz-adv-x="1406" d="M43 1434h428l244 -531l254 531h395l-332 -633h219v-156h-299l-55 -106h354v-156h-368v-383h-355v383h-372v156h358l-57 106h-301v156h219z" />
<glyph unicode="&#xa6;" horiz-adv-x="401" d="M92 -371v971h217v-971h-217zM92 856v930h217v-930h-217z" />
<glyph unicode="&#xa7;" horiz-adv-x="1292" d="M68 266v62h323v-11q0 -36 27.5 -54.5t70.5 -18.5h320q72 0 72 51q0 34 -62 41l-483 47q-143 13 -198.5 96.5t-55.5 255.5l854 -110q130 -17 208.5 -95.5t78.5 -187.5v-53q0 -137 -104 -233.5t-253 -96.5h-446q-152 0 -252 86.5t-100 220.5zM82 1110v49q0 132 104 225 t250 93h430q146 0 251.5 -90.5t105.5 -219.5v-57h-332v12q0 70 -90 70h-318q-65 0 -65 -45q0 -38 63 -45l455 -51q43 -5 78.5 -16.5t61 -25.5t46 -34.5t34 -39.5t23 -45.5t14.5 -46.5t7.5 -48.5t3 -46t0.5 -43.5l-852 110q-122 15 -196 95.5t-74 199.5z" />
<glyph unicode="&#xa8;" horiz-adv-x="942" d="M82 1149v315h330v-315h-330zM506 1149v315h330v-315h-330z" />
<glyph unicode="&#xa9;" horiz-adv-x="1605" d="M57 719q0 108 16.5 201t51.5 178.5t94 152t139.5 116t193 75.5t249.5 26q164 0 292.5 -38t213 -104.5t139.5 -162.5t78.5 -205t23.5 -239t-23.5 -239t-78.5 -205t-139.5 -162.5t-213 -105t-292.5 -38.5t-292.5 38.5t-212.5 105t-138.5 162.5t-77.5 205t-23 239zM289 719 q0 -120 14 -206t48.5 -155.5t93 -111.5t146.5 -64t210 -22q153 0 253.5 32.5t158.5 104.5t81 172t23 250q0 119 -14.5 205t-49 155.5t-93.5 112t-147.5 64.5t-211.5 22q-122 0 -210 -22t-146.5 -64.5t-93 -112t-48.5 -155.5t-14 -205zM457 524v398q0 88 72 152.5t169 64.5 h207q97 0 167.5 -64.5t70.5 -152.5v-95h-221v37q0 94 -93 94h-53q-47 0 -72.5 -25.5t-25.5 -68.5v-286q0 -43 25.5 -68t72.5 -25h53q93 0 93 93v45h221v-99q0 -91 -70.5 -156t-167.5 -65h-207q-97 0 -169 65.5t-72 155.5z" />
<glyph unicode="&#xaa;" horiz-adv-x="747" d="M45 926v49q0 63 42.5 107t121.5 61l262 53v8q0 56 -70 56h-63q-76 0 -76 -58v-18h-203v20q0 98 66.5 164t206.5 66h92q125 0 189.5 -58t64.5 -172v-485h-205v33q-61 -33 -133 -33h-68q-104 0 -165.5 50t-61.5 157zM250 934q0 -27 16.5 -37t50.5 -10h68q86 0 86 78v63 l-184 -39q-37 -9 -37 -41v-14z" />
<glyph unicode="&#xab;" horiz-adv-x="1294" d="M-4 547l328 540h399l-334 -540l334 -547h-399zM549 547l328 540h399l-334 -540l334 -547h-399z" />
<glyph unicode="&#xac;" horiz-adv-x="997" d="M70 557v285h839v-484h-315v199h-524z" />
<glyph unicode="&#xad;" horiz-adv-x="747" d="M78 498v290h592v-290h-592z" />
<glyph unicode="&#xae;" horiz-adv-x="1605" d="M57 719q0 108 16.5 201t51.5 178.5t94 152t139.5 116t193 75.5t249.5 26q164 0 292.5 -38t213 -104.5t139.5 -162.5t78.5 -205t23.5 -239t-23.5 -239t-78.5 -205t-139.5 -162.5t-213 -105t-292.5 -38.5t-292.5 38.5t-212.5 105t-138.5 162.5t-77.5 205t-23 239zM289 719 q0 -120 14 -206t48.5 -155.5t93 -111.5t146.5 -64t210 -22q153 0 253.5 32.5t158.5 104.5t81 172t23 250q0 119 -14.5 205t-49 155.5t-93.5 112t-147.5 64.5t-211.5 22q-122 0 -210 -22t-146.5 -64.5t-93 -112t-48.5 -155.5t-14 -205zM459 307v832h436q113 0 183.5 -66 t70.5 -166v-51q0 -71 -45 -131.5t-129 -81.5l215 -336h-246l-182 293h-88v-293h-215zM674 770h147q51 0 80 24.5t29 65.5v17q0 81 -109 81h-147v-188z" />
<glyph unicode="&#xaf;" horiz-adv-x="786" d="M61 1149v254h664v-254h-664z" />
<glyph unicode="&#xb0;" horiz-adv-x="956" d="M47 946v139q0 159 88 254t252 95h180q166 0 254 -95t88 -254v-139q0 -156 -88.5 -252t-253.5 -96h-180q-164 0 -252 96t-88 252zM330 981q0 -87 32 -119.5t109 -32.5h12q79 0 111.5 32.5t32.5 119.5v74q0 88 -32 118.5t-112 30.5h-12q-78 0 -109.5 -30.5t-31.5 -118.5 v-74z" />
<glyph unicode="&#xb1;" horiz-adv-x="1206" d="M70 0v285h1067v-285h-1067zM70 743v285h372v406h322v-406h373v-285h-373v-403h-322v403h-372z" />
<glyph unicode="&#xb2;" horiz-adv-x="817" d="M63 1085v101q0 114 75 181t200 67h137q125 0 199 -67t74 -181v-49q0 -113 -89 -199l-288 -270h381v-187h-684v181l407 385q41 38 41 100v10q0 49 -21 69.5t-69 20.5h-39q-53 0 -75.5 -20.5t-22.5 -69.5v-72h-226z" />
<glyph unicode="&#xb3;" horiz-adv-x="811" d="M41 729v64h225v-31q0 -94 105 -94h61q100 0 100 94v37q0 50 -24.5 72t-75.5 22h-225v160l246 194h-381l12 187h651v-191l-182 -217q61 72 131 -15t70 -184v-98q0 -114 -75 -181t-200 -67h-164q-125 0 -199.5 67t-74.5 181z" />
<glyph unicode="&#xb4;" horiz-adv-x="618" d="M63 1149l72 315h393l-143 -315h-322z" />
<glyph unicode="&#xb5;" horiz-adv-x="1136" d="M88 -430v1517h342v-702q0 -100 117 -100h33q120 0 120 104v698h342v-1087h-340v100q-66 -100 -188 -100q-81 0 -111 27v-373z" />
<glyph unicode="&#xb6;" horiz-adv-x="1474" d="M51 819v236q0 175 112.5 278t303.5 103h905v-1436h-506v-434h-354v874h-45q-190 0 -303 103.5t-113 275.5zM866 305h154v828h-154v-828z" />
<glyph unicode="&#xb7;" horiz-adv-x="507" d="M78 567v338h352v-338h-352z" />
<glyph unicode="&#xb8;" horiz-adv-x="608" d="M61 -311h232q39 0 39 30v13q0 30 -39 30h-201l31 244h188l-4 -57h105q59 0 97 -34.5t38 -92.5v-184q0 -71 -44.5 -108.5t-125.5 -37.5h-316v197z" />
<glyph unicode="&#xb9;" horiz-adv-x="395" d="M86 481v891l223 68v-959h-223z" />
<glyph unicode="&#xba;" horiz-adv-x="739" d="M53 969v215q0 116 66 183t188 67h125q122 0 188 -67t66 -183v-215q0 -116 -66 -183t-188 -67h-125q-122 0 -188 67t-66 183zM258 971q0 -78 86 -78h49q86 0 86 78v211q0 78 -86 78h-49q-86 0 -86 -78v-211z" />
<glyph unicode="&#xbb;" horiz-adv-x="1294" d="M18 0l334 547l-334 540h400l327 -540l-327 -547h-400zM571 0l334 547l-334 540h400l327 -540l-327 -547h-400z" />
<glyph unicode="&#xbc;" horiz-adv-x="1171" d="M84 481v891l223 68v-959h-223zM393 184v189l385 579h240v-583h106v-185h-106v-184h-223v184h-402zM608 369h187v284z" />
<glyph unicode="&#xbd;" horiz-adv-x="1173" d="M78 481v891l223 68v-959h-223zM428 604v101q0 114 74 180.5t200 66.5h136q126 0 199 -66.5t73 -180.5v-50q0 -116 -88 -198l-287 -271h379v-186h-682v180l406 385q41 38 41 101v10q0 49 -21.5 69.5t-69.5 20.5h-36q-53 0 -77 -20.5t-24 -69.5v-72h-223z" />
<glyph unicode="&#xbe;" horiz-adv-x="1492" d="M53 729v64h223v-31q0 -94 107 -94h61q99 0 99 94v37q0 94 -99 94h-227v160l248 194h-383l14 187h652v-191l-240 -180q105 0 180.5 -59t75.5 -177v-98q0 -114 -73.5 -181t-198.5 -67h-166q-124 0 -198.5 67.5t-74.5 180.5zM715 184v189l383 579h241v-583h107v-185h-107 v-184h-223v184h-401zM930 369h186v284z" />
<glyph unicode="&#xbf;" horiz-adv-x="1075" d="M47 6q0 -166 109 -259t301 -93h153q191 0 305.5 103t114.5 276v164h-352v-121q0 -65 -32 -92t-105 -27h-13q-67 0 -96 27t-29 92v14q0 77 43 111l281 231v238h-352v-103l-215 -188q-48 -43 -80.5 -116t-32.5 -159v-98zM375 750v337h352v-337h-352z" />
<glyph unicode="&#xc0;" d="M-14 0l397 1434h514l397 -1434h-397l-78 334h-377l-71 -334h-385zM408 1800h393l71 -315h-321zM518 641h227l-112 530z" />
<glyph unicode="&#xc1;" d="M-14 0l397 1434h514l397 -1434h-397l-78 334h-377l-71 -334h-385zM408 1495l71 315h393l-143 -315h-321zM518 641h227l-112 530z" />
<glyph unicode="&#xc2;" d="M-14 0l397 1434h514l397 -1434h-397l-78 334h-377l-71 -334h-385zM281 1495l116 305h486l116 -305h-292l-68 84l-64 -84h-294zM518 641h227l-112 530z" />
<glyph unicode="&#xc3;" d="M-14 0l397 1434h514l397 -1434h-397l-78 334h-377l-71 -334h-385zM279 1495v123q0 104 52 158.5t148 54.5q51 0 120.5 -14.5t112.5 -29.5l44 -15v59h243v-123q0 -103 -48.5 -158t-143.5 -55q-52 0 -123.5 16t-116.5 32l-45 16v-64h-243zM518 641h227l-112 530z" />
<glyph unicode="&#xc4;" d="M-14 0l397 1434h514l397 -1434h-397l-78 334h-377l-71 -334h-385zM262 1495v315h330v-315h-330zM518 641h227l-112 530zM686 1495v315h330v-315h-330z" />
<glyph unicode="&#xc5;" horiz-adv-x="1277" d="M-14 0l336 1212q-78 88 -78 211v127q0 141 95.5 233.5t250.5 92.5h92q154 0 250 -92.5t96 -233.5v-127q0 -116 -72 -204l338 -1219h-397l-78 334h-377l-71 -334h-385zM502 1434q0 -103 106 -103h56q52 0 79 27.5t27 75.5v112q0 48 -27 75.5t-79 27.5h-56 q-106 0 -106 -103v-112zM518 641h227l-98 459h-31z" />
<glyph unicode="&#xc6;" horiz-adv-x="1871" d="M-18 0l452 1434h1387v-306h-674v-247h575v-306h-575v-270h674v-305h-1028v334h-336l-90 -334h-385zM545 641h248v487h-103z" />
<glyph unicode="&#xc7;" horiz-adv-x="1259" d="M68 379v674q0 175 112 278t301 103h310q190 0 302.5 -103t112.5 -276v-164h-356v121q0 55 -34.5 85.5t-96.5 30.5h-166q-62 0 -96.5 -30.5t-34.5 -85.5v-590q0 -55 34.5 -86t96.5 -31h166q62 0 96.5 31t34.5 86v121h356v-164q0 -173 -112.5 -276t-302.5 -103h-148l-4 -51 h104q59 0 97.5 -34.5t38.5 -92.5v-184q0 -71 -44.5 -108.5t-125.5 -37.5h-316v197h232q39 0 39 30v13q0 30 -39 30h-201l29 238q-177 8 -281 110t-104 269z" />
<glyph unicode="&#xc8;" horiz-adv-x="1185" d="M86 0v1434h1049v-306h-697v-247h596v-316h-596v-260h697v-305h-1049zM377 1800h393l72 -315h-322z" />
<glyph unicode="&#xc9;" horiz-adv-x="1185" d="M86 0v1434h1049v-306h-697v-247h596v-316h-596v-260h697v-305h-1049zM377 1495l72 315h393l-144 -315h-321z" />
<glyph unicode="&#xca;" horiz-adv-x="1185" d="M86 0v1434h1049v-306h-697v-247h596v-316h-596v-260h697v-305h-1049zM250 1495l117 305h485l117 -305h-293l-68 84l-63 -84h-295z" />
<glyph unicode="&#xcb;" horiz-adv-x="1185" d="M86 0v1434h1049v-306h-697v-247h596v-316h-596v-260h697v-305h-1049zM233 1495v315h330v-315h-330zM657 1495v315h330v-315h-330z" />
<glyph unicode="&#xcc;" horiz-adv-x="524" d="M31 1800h393l72 -315h-322zM86 0v1434h352v-1434h-352z" />
<glyph unicode="&#xcd;" horiz-adv-x="524" d="M31 1495l71 315h394l-144 -315h-321zM86 0v1434h352v-1434h-352z" />
<glyph unicode="&#xce;" horiz-adv-x="524" d="M-96 1495l116 305h486l117 -305h-293l-68 84l-63 -84h-295zM86 0v1434h352v-1434h-352z" />
<glyph unicode="&#xcf;" horiz-adv-x="524" d="M-115 1495v315h330v-315h-330zM86 0v1434h352v-1434h-352zM309 1495v315h330v-315h-330z" />
<glyph unicode="&#xd0;" horiz-adv-x="1302" d="M-10 575v306h108v553h723q190 0 302 -103t112 -278v-674q0 -174 -112 -276.5t-302 -102.5h-723v575h-108zM453 305h297q62 0 96.5 31t34.5 86v590q0 55 -34.5 85.5t-96.5 30.5h-297v-247h252v-306h-252v-270z" />
<glyph unicode="&#xd1;" horiz-adv-x="1333" d="M86 0v1434h430l379 -877v877h352v-1434h-434l-375 866v-866h-352zM293 1495v123q0 103 52.5 158t148.5 55q51 0 120 -14.5t112 -29.5l44 -15v59h244v-123q0 -103 -49 -158t-144 -55q-52 0 -123 16t-116 32l-45 16v-64h-244z" />
<glyph unicode="&#xd2;" horiz-adv-x="1273" d="M68 379v674q0 175 112 278t301 103h310q190 0 302.5 -103t112.5 -278v-674q0 -173 -112.5 -276t-302.5 -103h-310q-189 0 -301 103t-112 276zM403 1800h394l71 -315h-321zM422 422q0 -55 34.5 -86t96.5 -31h166q62 0 96.5 31t34.5 86v590q0 55 -34.5 85.5t-96.5 30.5 h-166q-62 0 -96.5 -30.5t-34.5 -85.5v-590z" />
<glyph unicode="&#xd3;" horiz-adv-x="1273" d="M68 379v674q0 175 112 278t301 103h310q190 0 302.5 -103t112.5 -278v-674q0 -173 -112.5 -276t-302.5 -103h-310q-189 0 -301 103t-112 276zM403 1495l72 315h393l-143 -315h-322zM422 422q0 -55 34.5 -86t96.5 -31h166q62 0 96.5 31t34.5 86v590q0 55 -34.5 85.5 t-96.5 30.5h-166q-62 0 -96.5 -30.5t-34.5 -85.5v-590z" />
<glyph unicode="&#xd4;" horiz-adv-x="1273" d="M68 379v674q0 175 112 278t301 103h310q190 0 302.5 -103t112.5 -278v-674q0 -173 -112.5 -276t-302.5 -103h-310q-189 0 -301 103t-112 276zM276 1495l117 305h486l116 -305h-293l-67 84l-64 -84h-295zM422 422q0 -55 34.5 -86t96.5 -31h166q62 0 96.5 31t34.5 86v590 q0 55 -34.5 85.5t-96.5 30.5h-166q-62 0 -96.5 -30.5t-34.5 -85.5v-590z" />
<glyph unicode="&#xd5;" horiz-adv-x="1273" d="M68 379q0 -173 112 -276t301 -103h310q190 0 302.5 103t112.5 276v674q0 175 -112.5 278t-302.5 103h-310q-189 0 -301 -103t-112 -278v-674zM276 1495v123q0 103 52.5 158t148.5 55q51 0 120.5 -14.5t112.5 -29.5l44 -15v59h243v-123q0 -103 -48.5 -158t-143.5 -55 q-52 0 -123.5 16t-116.5 32l-45 16v-64h-244zM422 422v590q0 55 34.5 85.5t96.5 30.5h166q62 0 96.5 -30.5t34.5 -85.5v-590q0 -55 -34.5 -86t-96.5 -31h-166q-62 0 -96.5 31t-34.5 86z" />
<glyph unicode="&#xd6;" horiz-adv-x="1273" d="M68 379q0 -173 112 -276t301 -103h310q190 0 302.5 103t112.5 276v674q0 175 -112.5 278t-302.5 103h-310q-189 0 -301 -103t-112 -278v-674zM260 1495v315h330v-315h-330zM422 422v590q0 55 34.5 85.5t96.5 30.5h166q62 0 96.5 -30.5t34.5 -85.5v-590q0 -55 -34.5 -86 t-96.5 -31h-166q-62 0 -96.5 31t-34.5 86zM684 1495v315h330v-315h-330z" />
<glyph unicode="&#xd7;" horiz-adv-x="1335" d="M49 272l447 453l-447 455l174 174l445 -455l448 455l170 -176l-446 -453l446 -451l-170 -174l-448 453l-445 -453z" />
<glyph unicode="&#xd8;" horiz-adv-x="1320" d="M31 0v41l108 145q-47 80 -47 193v674q0 175 112.5 278t301.5 103h309q125 0 219 -48l35 48h223v-33l-110 -150q49 -87 49 -198v-674q0 -173 -113 -276t-303 -103h-309q-131 0 -223 47l-35 -47h-217zM446 598l379 510q-33 20 -82 20h-165q-62 0 -97 -30.5t-35 -85.5v-414z M492 328q29 -23 86 -23h165q62 0 96.5 31t34.5 86v418z" />
<glyph unicode="&#xd9;" d="M82 379v1055h354v-1012q0 -55 34.5 -86t96.5 -31h144q63 0 98 31t35 86v1012h354v-1055q0 -173 -113 -276t-303 -103h-284q-190 0 -303 103t-113 276zM408 1800h393l71 -315h-321z" />
<glyph unicode="&#xda;" d="M82 379v1055h354v-1012q0 -55 34.5 -86t96.5 -31h144q63 0 98 31t35 86v1012h354v-1055q0 -173 -113 -276t-303 -103h-284q-190 0 -303 103t-113 276zM408 1495l71 315h393l-143 -315h-321z" />
<glyph unicode="&#xdb;" d="M82 379v1055h354v-1012q0 -55 34.5 -86t96.5 -31h144q63 0 98 31t35 86v1012h354v-1055q0 -173 -113 -276t-303 -103h-284q-190 0 -303 103t-113 276zM281 1495l116 305h486l116 -305h-292l-68 84l-64 -84h-294z" />
<glyph unicode="&#xdc;" d="M82 379q0 -173 113 -276t303 -103h284q190 0 303 103t113 276v1055h-354v-1012q0 -55 -35 -86t-98 -31h-144q-62 0 -96.5 31t-34.5 86v1012h-354v-1055zM262 1495v315h330v-315h-330zM686 1495v315h330v-315h-330z" />
<glyph unicode="&#xdd;" horiz-adv-x="1255" d="M-12 1434h428l223 -523l219 523h410l-455 -922v-512h-367v512zM479 1495l72 315h393l-143 -315h-322z" />
<glyph unicode="&#xde;" horiz-adv-x="1212" d="M86 0v1434h354v-246h330q188 0 300 -103.5t112 -277.5v-162q0 -176 -115.5 -279.5t-318.5 -103.5h-308v-262h-354zM440 567h254q64 0 98.5 31t34.5 88v80q0 56 -34.5 87.5t-98.5 31.5h-254v-318z" />
<glyph unicode="&#xdf;" horiz-adv-x="1107" d="M76 0v1059q0 175 105.5 278t295.5 103h156q193 0 297 -97t104 -272v-96q0 -93 -41.5 -166t-132.5 -102q94 -17 147.5 -86t53.5 -160v-121q0 -171 -103 -255.5t-299 -84.5h-122v274h63q117 0 117 103v94q0 48 -25.5 71t-89.5 23h-70v279h54q52 0 78 20.5t26 69.5v113 q0 56 -23 82t-77 26h-66q-56 0 -80 -26.5t-24 -81.5v-1047h-344z" />
<glyph unicode="&#xe0;" horiz-adv-x="1054" d="M31 319v27q0 104 67 175.5t193 92.5l350 58v71q0 70 -92 70h-55q-49 0 -77 -18t-28 -54v-30h-330v24q0 72 19.5 131.5t63.5 111t125 80.5t194 29h123q196 0 297.5 -89t101.5 -263v-735h-338v94q-32 -43 -95.5 -68.5t-119.5 -25.5h-61q-159 0 -248.5 77t-89.5 242z M274 1454h394l71 -315h-321zM371 303q0 -57 61 -57h94q115 0 115 102v84l-227 -43q-43 -9 -43 -57v-29z" />
<glyph unicode="&#xe1;" horiz-adv-x="1054" d="M31 319v27q0 104 67 175.5t193 92.5l350 58v71q0 70 -92 70h-55q-49 0 -77 -18t-28 -54v-30h-330v24q0 72 19.5 131.5t63.5 111t125 80.5t194 29h123q196 0 297.5 -89t101.5 -263v-735h-338v94q-32 -43 -95.5 -68.5t-119.5 -25.5h-61q-159 0 -248.5 77t-89.5 242z M346 1149l72 315h393l-143 -315h-322zM371 303q0 -57 61 -57h94q115 0 115 102v84l-227 -43q-43 -9 -43 -57v-29z" />
<glyph unicode="&#xe2;" horiz-adv-x="1054" d="M31 319v27q0 104 67 175.5t193 92.5l350 58v71q0 70 -92 70h-55q-49 0 -77 -18t-28 -54v-30h-330v24q0 72 19.5 131.5t63.5 111t125 80.5t194 29h123q196 0 297.5 -89t101.5 -263v-735h-338v94q-32 -43 -95.5 -68.5t-119.5 -25.5h-61q-159 0 -248.5 77t-89.5 242z M168 1149l117 305h485l117 -305h-293l-68 84l-63 -84h-295zM371 303q0 -57 61 -57h94q115 0 115 102v84l-227 -43q-43 -9 -43 -57v-29z" />
<glyph unicode="&#xe3;" horiz-adv-x="1054" d="M31 319q0 -165 89.5 -242t248.5 -77h61q56 0 119.5 25.5t95.5 68.5v-94h338v735q0 174 -101.5 263t-297.5 89h-123q-113 0 -194 -29t-125 -80.5t-63.5 -111t-19.5 -131.5v-24h330v30q0 36 28 54t77 18h55q92 0 92 -70v-71l-350 -58q-126 -21 -193 -92.5t-67 -175.5v-27z M145 1149v123q0 103 52.5 158t148.5 55q51 0 120.5 -15t113.5 -30l43 -15v60h243v-123q0 -103 -48.5 -158t-143.5 -55q-52 0 -123 15.5t-117 31.5l-45 16v-63h-244zM371 303v29q0 48 43 57l227 43v-84q0 -102 -115 -102h-94q-61 0 -61 57z" />
<glyph unicode="&#xe4;" horiz-adv-x="1054" d="M31 319q0 -165 89.5 -242t248.5 -77h61q56 0 119.5 25.5t95.5 68.5v-94h338v735q0 174 -101.5 263t-297.5 89h-123q-113 0 -194 -29t-125 -80.5t-63.5 -111t-19.5 -131.5v-24h330v30q0 36 28 54t77 18h55q92 0 92 -70v-71l-350 -58q-126 -21 -193 -92.5t-67 -175.5v-27z M129 1149v315h330v-315h-330zM371 303v29q0 48 43 57l227 43v-84q0 -102 -115 -102h-94q-61 0 -61 57zM553 1149v315h330v-315h-330z" />
<glyph unicode="&#xe5;" horiz-adv-x="1054" d="M31 319q0 -165 89.5 -242t248.5 -77h61q56 0 119.5 25.5t95.5 68.5v-94h338v735q0 174 -101.5 263t-297.5 89h-123q-113 0 -194 -29t-125 -80.5t-63.5 -111t-19.5 -131.5v-24h330v30q0 36 28 54t77 18h55q92 0 92 -70v-71l-350 -58q-126 -21 -193 -92.5t-67 -175.5v-27z M229 1391v94q0 106 71.5 175t186.5 69h70q114 0 186 -69.5t72 -174.5v-94q0 -103 -72 -172.5t-186 -69.5h-70q-115 0 -186.5 69.5t-71.5 172.5zM371 303v29q0 48 43 57l227 43v-84q0 -102 -115 -102h-94q-61 0 -61 57zM446 1397q0 -47 50 -47h53q49 0 49 47v86q0 47 -49 47 h-53q-50 0 -50 -47v-86z" />
<glyph unicode="&#xe6;" horiz-adv-x="1644" d="M35 319v62q0 134 85.5 200t223.5 66h303v96q0 70 -94 70h-55q-49 0 -77 -18t-28 -54v-30h-330v24q0 58 9.5 106t35 95t67 79t110 52t159.5 20h144q76 0 141.5 -26t95.5 -74q27 45 91 72.5t137 27.5h149q191 0 294 -102t103 -278v-265h-612v-63q0 -103 119 -103h39 q117 0 117 103v10h337v-27q0 -164 -101 -263t-290 -99h-159q-179 0 -285 92q-85 -92 -246 -92h-145q-159 0 -248.5 77t-89.5 242zM375 348q0 -34 17.5 -53t49.5 -19h105q55 0 77.5 24t22.5 79v63h-198q-25 0 -41 -6.5t-22.5 -18.5t-8.5 -22t-2 -24v-23zM987 647h273v64 q0 102 -117 102h-37q-119 0 -119 -102v-64z" />
<glyph unicode="&#xe7;" horiz-adv-x="1046" d="M53 383v324q0 176 103.5 278t294.5 102h157q191 0 294.5 -102t103.5 -278v-56h-340v60q0 102 -117 102h-37q-119 0 -119 -102v-332q0 -103 119 -103h37q117 0 117 103v57h340v-53q0 -178 -103.5 -280.5t-294.5 -102.5h-71l-5 -51h105q59 0 97 -34.5t38 -92.5v-184 q0 -71 -44.5 -108.5t-125.5 -37.5h-315v197h231q39 0 39 30v13q0 30 -39 30h-201l33 246q-145 26 -221 124t-76 251z" />
<glyph unicode="&#xe8;" horiz-adv-x="1050" d="M53 383v324q0 176 103.5 278t294.5 102h157q191 0 294.5 -102t103.5 -278v-238h-613v-90q0 -103 119 -103h39q117 0 117 103v10h338v-27q0 -164 -101.5 -263t-290.5 -99h-159q-192 0 -297 103t-105 280zM297 1454h393l72 -315h-322zM393 668h273v43q0 102 -117 102h-37 q-119 0 -119 -102v-43z" />
<glyph unicode="&#xe9;" horiz-adv-x="1050" d="M53 383v324q0 176 103.5 278t294.5 102h157q191 0 294.5 -102t103.5 -278v-238h-613v-90q0 -103 119 -103h39q117 0 117 103v10h338v-27q0 -164 -101.5 -263t-290.5 -99h-159q-192 0 -297 103t-105 280zM297 1149l72 315h393l-144 -315h-321zM393 668h273v43 q0 102 -117 102h-37q-119 0 -119 -102v-43z" />
<glyph unicode="&#xea;" horiz-adv-x="1050" d="M53 383v324q0 176 103.5 278t294.5 102h157q191 0 294.5 -102t103.5 -278v-238h-613v-90q0 -103 119 -103h39q117 0 117 103v10h338v-27q0 -164 -101.5 -263t-290.5 -99h-159q-192 0 -297 103t-105 280zM170 1149l117 305h485l117 -305h-293l-68 84l-63 -84h-295z M393 668h273v43q0 102 -117 102h-37q-119 0 -119 -102v-43z" />
<glyph unicode="&#xeb;" horiz-adv-x="1050" d="M53 383v324q0 176 103.5 278t294.5 102h157q191 0 294.5 -102t103.5 -278v-238h-613v-90q0 -103 119 -103h39q117 0 117 103v10h338v-27q0 -164 -101.5 -263t-290.5 -99h-159q-192 0 -297 103t-105 280zM152 1149v315h329v-315h-329zM393 668h273v43q0 102 -117 102h-37 q-119 0 -119 -102v-43zM575 1149v315h330v-315h-330z" />
<glyph unicode="&#xec;" horiz-adv-x="493" d="M14 1464h394l71 -315h-321zM76 0v1087h342v-1087h-342z" />
<glyph unicode="&#xed;" horiz-adv-x="493" d="M14 1149l72 315h393l-143 -315h-322zM76 0v1087h342v-1087h-342z" />
<glyph unicode="&#xee;" horiz-adv-x="493" d="M-113 1149l117 305h485l117 -305h-293l-67 84l-64 -84h-295zM76 0v1087h342v-1087h-342z" />
<glyph unicode="&#xef;" horiz-adv-x="493" d="M-129 1149v315h330v-315h-330zM76 0h342v1087h-342v-1087zM295 1149v315h330v-315h-330z" />
<glyph unicode="&#xf0;" horiz-adv-x="1073" d="M53 381v326q0 176 103.5 278t294.5 102h32q86 0 160 -36q-10 26 -31.5 76t-29.5 69h-201v158h123q-24 46 -48.5 91t-37.5 67l-12 22h339q56 -72 113 -180h174v-158h-106q80 -216 80 -432v-383q0 -176 -103.5 -278.5t-294.5 -102.5h-157q-191 0 -294.5 102.5t-103.5 278.5 zM393 377q0 -101 117 -101h39q117 0 117 101v336q0 100 -117 100h-39q-117 0 -117 -100v-336z" />
<glyph unicode="&#xf1;" horiz-adv-x="1101" d="M76 0v1087h340v-100q36 54 100 77t125 23h29q159 0 259.5 -87t100.5 -252v-748h-342v702q0 101 -117 101h-32q-57 0 -89 -26t-32 -79v-698h-342zM190 1149v123q0 103 52.5 158t148.5 55q51 0 120.5 -15t112.5 -30l44 -15v60h243v-123q0 -103 -48.5 -158t-143.5 -55 q-52 0 -123 15.5t-116 31.5l-46 16v-63h-244z" />
<glyph unicode="&#xf2;" horiz-adv-x="1058" d="M53 383v324q0 176 103.5 278t294.5 102h157q191 0 294.5 -102t103.5 -278v-324q0 -178 -103.5 -280.5t-294.5 -102.5h-157q-191 0 -294.5 102.5t-103.5 280.5zM297 1454h393l72 -315h-322zM393 379q0 -103 119 -103h37q117 0 117 103v332q0 102 -117 102h-37 q-119 0 -119 -102v-332z" />
<glyph unicode="&#xf3;" horiz-adv-x="1058" d="M53 383v324q0 176 103.5 278t294.5 102h157q191 0 294.5 -102t103.5 -278v-324q0 -178 -103.5 -280.5t-294.5 -102.5h-157q-191 0 -294.5 102.5t-103.5 280.5zM297 1149l72 315h393l-144 -315h-321zM393 379q0 -103 119 -103h37q117 0 117 103v332q0 102 -117 102h-37 q-119 0 -119 -102v-332z" />
<glyph unicode="&#xf4;" horiz-adv-x="1058" d="M53 383v324q0 176 103.5 278t294.5 102h157q191 0 294.5 -102t103.5 -278v-324q0 -178 -103.5 -280.5t-294.5 -102.5h-157q-191 0 -294.5 102.5t-103.5 280.5zM170 1149l117 305h485l117 -305h-293l-68 84l-63 -84h-295zM393 379q0 -103 119 -103h37q117 0 117 103v332 q0 102 -117 102h-37q-119 0 -119 -102v-332z" />
<glyph unicode="&#xf5;" horiz-adv-x="1058" d="M53 383q0 -178 103.5 -280.5t294.5 -102.5h157q191 0 294.5 102.5t103.5 280.5v324q0 176 -103.5 278t-294.5 102h-157q-191 0 -294.5 -102t-103.5 -278v-324zM168 1149v123q0 103 52.5 158t148.5 55q51 0 120 -15t113 -30l43 -15v60h244v-123q0 -103 -49 -158t-144 -55 q-52 0 -123 15.5t-116 31.5l-45 16v-63h-244zM393 379v332q0 102 119 102h37q117 0 117 -102v-332q0 -103 -117 -103h-37q-119 0 -119 103z" />
<glyph unicode="&#xf6;" horiz-adv-x="1058" d="M53 383q0 -178 103.5 -280.5t294.5 -102.5h157q191 0 294.5 102.5t103.5 280.5v324q0 176 -103.5 278t-294.5 102h-157q-191 0 -294.5 -102t-103.5 -278v-324zM152 1149v315h329v-315h-329zM393 379v332q0 102 119 102h37q117 0 117 -102v-332q0 -103 -117 -103h-37 q-119 0 -119 103zM575 1149v315h330v-315h-330z" />
<glyph unicode="&#xf7;" horiz-adv-x="1036" d="M55 557h926v285h-926v-285zM344 156v338h352v-338h-352zM344 905v338h352v-338h-352z" />
<glyph unicode="&#xf8;" horiz-adv-x="1026" d="M37 383v324q0 161 84.5 262t236.5 116v125h310v-125q149 -15 235 -116.5t86 -261.5v-324q0 -164 -84 -265t-237 -116v-125h-310v125q-153 15 -237 116t-84 265zM377 379q0 -103 119 -103h36q117 0 117 103v332q0 102 -117 102h-36q-119 0 -119 -102v-332z" />
<glyph unicode="&#xf9;" horiz-adv-x="1101" d="M72 340v747h342v-702q0 -100 116 -100h33q121 0 121 104v698h342v-1087h-340v100q-36 -54 -100 -77t-125 -23h-29q-159 0 -259.5 87.5t-100.5 252.5zM315 1464h394l71 -315h-321z" />
<glyph unicode="&#xfa;" horiz-adv-x="1101" d="M72 340v747h342v-702q0 -100 116 -100h33q121 0 121 104v698h342v-1087h-340v100q-36 -54 -100 -77t-125 -23h-29q-159 0 -259.5 87.5t-100.5 252.5zM356 1149l72 315h393l-143 -315h-322z" />
<glyph unicode="&#xfb;" horiz-adv-x="1101" d="M72 340v747h342v-702q0 -100 116 -100h33q121 0 121 104v698h342v-1087h-340v100q-36 -54 -100 -77t-125 -23h-29q-159 0 -259.5 87.5t-100.5 252.5zM188 1149l117 305h486l116 -305h-293l-67 84l-64 -84h-295z" />
<glyph unicode="&#xfc;" horiz-adv-x="1101" d="M72 340v747h342v-702q0 -100 116 -100h33q121 0 121 104v698h342v-1087h-340v100q-36 -54 -100 -77t-125 -23h-29q-159 0 -259.5 87.5t-100.5 252.5zM172 1149v315h330v-315h-330zM596 1149v315h330v-315h-330z" />
<glyph unicode="&#xfd;" horiz-adv-x="1087" d="M-6 1087h397l150 -784l172 784h381l-326 -1212q-47 -172 -124.5 -232.5t-248.5 -60.5h-235v285h153q53 0 79.5 13t35.5 48l16 72h-168zM373 1149l71 315h394l-144 -315h-321z" />
<glyph unicode="&#xfe;" horiz-adv-x="1083" d="M76 -432v1866h336v-447q36 54 100 77t125 23h31q159 0 259.5 -87t100.5 -252v-398q0 -165 -101.5 -257.5t-260.5 -92.5h-74q-53 0 -104 20t-76 70v-522h-336zM416 379q0 -103 119 -103h34q117 0 117 103v332q0 102 -117 102h-34q-119 0 -119 -102v-332z" />
<glyph unicode="&#xff;" horiz-adv-x="1087" d="M-6 1087l282 -1087h168l-16 -72q-9 -35 -35.5 -48t-79.5 -13h-153v-285h235q171 0 248.5 60.5t124.5 232.5l326 1212h-381l-172 -784l-150 784h-397zM166 1149v315h330v-315h-330zM590 1149v315h330v-315h-330z" />
<glyph unicode="&#x152;" horiz-adv-x="1935" d="M68 379v674q0 174 112.5 277.5t300.5 103.5h1401v-306h-676v-247h598v-306h-598v-270h676v-305h-1401q-188 0 -300.5 103t-112.5 276zM422 422q0 -55 35 -86t98 -31h297v823h-297q-63 0 -98 -30.5t-35 -85.5v-590z" />
<glyph unicode="&#x153;" horiz-adv-x="1662" d="M53 383v324q0 176 103.5 278t294.5 102h137q78 0 147 -24.5t101 -69.5q31 45 99.5 69.5t147.5 24.5h138q191 0 294 -102t103 -278v-238h-612v-90q0 -103 118 -103h39q117 0 117 103v10h338v-27q0 -164 -101 -263t-290 -99h-160q-167 0 -231 94q-30 -47 -99 -70.5 t-149 -23.5h-137q-191 0 -294.5 102.5t-103.5 280.5zM393 379q0 -103 119 -103h37q119 0 119 103v332q0 102 -119 102h-37q-119 0 -119 -102v-332zM1006 668h272v43q0 102 -117 102h-37q-118 0 -118 -102v-43z" />
<glyph unicode="&#x178;" horiz-adv-x="1255" d="M-12 1434l458 -922v-512h367v512l455 922h-410l-219 -523l-223 523h-428zM250 1495v315h330v-315h-330zM674 1495v315h330v-315h-330z" />
<glyph unicode="&#x2c6;" horiz-adv-x="841" d="M61 1149l117 305h486l116 -305h-293l-67 84l-64 -84h-295z" />
<glyph unicode="&#x2dc;" horiz-adv-x="884" d="M82 1149v123q0 103 52.5 158t148.5 55q51 0 120 -15t113 -30l43 -15v60h244v-123q0 -103 -49 -158t-144 -55q-52 0 -123 15.5t-116 31.5l-45 16v-63h-244z" />
<glyph unicode="&#x2000;" horiz-adv-x="938" />
<glyph unicode="&#x2001;" horiz-adv-x="1876" />
<glyph unicode="&#x2002;" horiz-adv-x="938" />
<glyph unicode="&#x2003;" horiz-adv-x="1876" />
<glyph unicode="&#x2004;" horiz-adv-x="625" />
<glyph unicode="&#x2005;" horiz-adv-x="469" />
<glyph unicode="&#x2006;" horiz-adv-x="312" />
<glyph unicode="&#x2007;" horiz-adv-x="312" />
<glyph unicode="&#x2008;" horiz-adv-x="234" />
<glyph unicode="&#x2009;" horiz-adv-x="375" />
<glyph unicode="&#x200a;" horiz-adv-x="104" />
<glyph unicode="&#x2010;" horiz-adv-x="747" d="M78 498v290h592v-290h-592z" />
<glyph unicode="&#x2011;" horiz-adv-x="747" d="M78 498v290h592v-290h-592z" />
<glyph unicode="&#x2012;" horiz-adv-x="747" d="M78 498v290h592v-290h-592z" />
<glyph unicode="&#x2013;" horiz-adv-x="1122" d="M78 498v290h966v-290h-966z" />
<glyph unicode="&#x2014;" horiz-adv-x="1785" d="M78 498v290h1630v-290h-1630z" />
<glyph unicode="&#x2018;" horiz-adv-x="485" d="M74 764v670h352v-541z" />
<glyph unicode="&#x2019;" horiz-adv-x="485" d="M74 764v670h352v-541z" />
<glyph unicode="&#x201a;" horiz-adv-x="487" d="M68 -332v670h352v-541z" />
<glyph unicode="&#x201c;" horiz-adv-x="899" d="M74 764v670h352v-541zM487 764v670h353v-541z" />
<glyph unicode="&#x201d;" horiz-adv-x="899" d="M74 764v670h352v-541zM487 764v670h353v-541z" />
<glyph unicode="&#x201e;" horiz-adv-x="901" d="M68 -332v670h352v-541zM481 -332v670h353v-541z" />
<glyph unicode="&#x2022;" horiz-adv-x="733" d="M39 717q0 135 96.5 231t231.5 96t231 -96t96 -231t-96 -231.5t-231 -96.5t-231.5 96.5t-96.5 231.5z" />
<glyph unicode="&#x2026;" horiz-adv-x="1642" d="M68 0v338h352v-338h-352zM645 0v338h352v-338h-352zM1223 0v338h352v-338h-352z" />
<glyph unicode="&#x202f;" horiz-adv-x="375" />
<glyph unicode="&#x2039;" horiz-adv-x="741" d="M-4 547l328 540h399l-334 -540l334 -547h-399z" />
<glyph unicode="&#x203a;" horiz-adv-x="741" d="M18 0l334 547l-334 540h400l327 -540l-327 -547h-400z" />
<glyph unicode="&#x205f;" horiz-adv-x="469" />
<glyph unicode="&#x20ac;" horiz-adv-x="1314" d="M57 520v156h109v106h-109v156h109v115q0 175 115 278t309 103h229q191 0 306.5 -103t115.5 -276v-125h-360v82q0 55 -36.5 86.5t-101.5 31.5h-79q-65 0 -101.5 -31.5t-36.5 -86.5v-74h267v-156h-267v-106h267v-156h-267v-98q0 -56 36.5 -86.5t101.5 -30.5h79 q65 0 101.5 30.5t36.5 86.5v80h360v-123q0 -173 -115.5 -276t-306.5 -103h-229q-194 0 -309 103t-115 276v141h-109z" />
<glyph unicode="&#x2122;" horiz-adv-x="1925" d="M47 1231v203h760v-203h-264v-567h-232v567h-264zM913 664v770h258l201 -412l203 412h256v-770h-234v378l-122 -229h-203l-125 229v-378h-234z" />
<glyph unicode="&#x25fc;" horiz-adv-x="1085" d="M0 0v1085h1085v-1085h-1085z" />
</font>
</defs>
</svg>
