<?xml version="1.0" standalone="no"?>
<!DOCTYPE svg PUBLIC "-//W3C//DTD SVG 1.1//EN" "http://www.w3.org/Graphics/SVG/1.1/DTD/svg11.dtd" >
<svg xmlns="http://www.w3.org/2000/svg" xmlns:xlink="http://www.w3.org/1999/xlink" version="1.1">
<metadata></metadata>
<defs>
<font id="copenhagenregular" horiz-adv-x="1038" >
<font-face units-per-em="2048" ascent="1536" descent="-512" />
<missing-glyph horiz-adv-x="409" />
<glyph unicode="&#xfb01;" horiz-adv-x="1099" d="M4 848l51 209h138v168q0 127 86.5 204.5t250.5 77.5h467v-209h-428q-69 0 -97 -32.5t-28 -94.5v-114h553v-1057h-249v848h-304v-848h-251v848h-189z" />
<glyph unicode="&#xfb02;" horiz-adv-x="1165" d="M4 848l51 209h138v168q0 127 86.5 204.5t250.5 77.5h467v-1204q0 -51 21.5 -72.5t71.5 -21.5h65v-209h-133q-82 0 -137 18t-84.5 55t-41 82.5t-11.5 110.5v1032h-179q-69 0 -97 -32.5t-28 -94.5v-114h207v-209h-207v-848h-251v848h-189z" />
<glyph horiz-adv-x="0" />
<glyph horiz-adv-x="682" />
<glyph unicode=" "  horiz-adv-x="409" />
<glyph unicode="&#x09;" horiz-adv-x="409" />
<glyph unicode="&#xa0;" horiz-adv-x="409" />
<glyph unicode="!" horiz-adv-x="530" d="M123 0v299h280v-299h-280zM133 440v994h264v-994h-264z" />
<glyph unicode="&#x22;" horiz-adv-x="868" d="M92 797v637h262v-637h-262zM514 797v637h262v-637h-262z" />
<glyph unicode="#" horiz-adv-x="1198" d="M61 428v156h240v268h-240v156h240v426h176v-426h246v426h174v-426h240v-156h-240v-268h240v-156h-240v-428h-174v428h-246v-428h-176v428h-240zM477 584h246v268h-246v-268z" />
<glyph unicode="$" horiz-adv-x="1224" d="M72 344v121h262v-76q0 -88 44.5 -126t147.5 -38v393l-168 39q-146 34 -216 106.5t-70 211.5v112q0 166 108 256.5t295 90.5h51v196h154v-196h98q180 0 276.5 -99t96.5 -272v-80h-260v61q0 175 -180 175h-31v-383l166 -37q307 -68 307 -312v-135q0 -163 -99.5 -257.5 t-273.5 -94.5h-100v-205h-154v205h-63q-391 0 -391 344zM334 1020q0 -68 35 -97.5t123 -45.5l34 -7v349h-37q-91 0 -123 -33t-32 -119v-47zM680 225h53q84 0 122 35t38 117v33q0 45 -8 73t-31.5 46.5t-52 28t-82.5 20.5l-39 8v-361z" />
<glyph unicode="%" horiz-adv-x="1730" d="M59 981v143q0 132 75 221t206 89h113q130 0 205 -89t75 -221v-143q0 -130 -75 -218.5t-205 -88.5h-113q-131 0 -206 88t-75 219zM125 0l1257 1434h230l-1258 -1434h-229zM262 987q0 -72 21.5 -109.5t83.5 -37.5h59q62 0 83 37t21 110v131q0 74 -21 111t-83 37h-59 q-62 0 -83.5 -37.5t-21.5 -110.5v-131zM997 307v144q0 132 75 220.5t206 88.5h113q131 0 205.5 -88.5t74.5 -220.5v-144q0 -131 -74.5 -219t-205.5 -88h-113q-131 0 -206 88t-75 219zM1202 313q0 -73 21 -110t84 -37h57q62 0 83 37t21 110v131q0 74 -21 111t-83 37h-57 q-64 0 -84.5 -37t-20.5 -111v-131z" />
<glyph unicode="&#x26;" horiz-adv-x="1314" d="M55 307v23q0 78 36.5 138.5t78.5 98.5l170 152l-84 72q-170 148 -170 292v39q0 140 99.5 226t267.5 86h192q156 0 250 -77.5t94 -215.5q0 -84 -33 -138t-100 -116l-166 -154l268 -229q96 99 293 291v-326l-112 -115l112 -96v-258h-65q-36 29 -107.5 91t-107.5 91l-60 -53 q-80 -71 -157 -100t-187 -29h-133q-172 0 -275.5 79.5t-103.5 227.5zM336 342q0 -68 38 -92.5t107 -24.5h99q61 0 102 23t106 88l-276 239l-121 -112q-55 -52 -55 -121zM344 1094q0 -33 18.5 -64t37.5 -48.5t59 -49.5l59 -49l225 213q0 69 -31.5 97t-90.5 28h-152 q-125 0 -125 -117v-10z" />
<glyph unicode="'" horiz-adv-x="446" d="M92 797v637h262v-637h-262z" />
<glyph unicode="(" horiz-adv-x="565" d="M59 543v133q0 232 92.5 469.5t235.5 376.5h184q-38 -58 -75 -135t-79 -191t-67.5 -263.5t-25.5 -305.5v-35q0 -156 25.5 -305.5t67.5 -263.5t79 -191t75 -135h-184q-143 140 -235.5 377t-92.5 469z" />
<glyph unicode=")" horiz-adv-x="563" d="M-6 -303q29 45 58.5 100t65 143t62 182t44.5 218.5t18 251.5v35q0 127 -18 251.5t-44.5 218.5t-62 182t-65 143t-58.5 100h182q145 -138 237.5 -375.5t92.5 -470.5v-133q0 -233 -92.5 -469.5t-237.5 -376.5h-182z" />
<glyph unicode="*" horiz-adv-x="1118" d="M51 961l82 223l350 -162l-53 412h258l-53 -412l350 162l82 -223l-381 -91l307 -311l-209 -133l-225 326l-225 -326l-209 133l307 311z" />
<glyph unicode="+" horiz-adv-x="1208" d="M53 598v217h426v449h250v-449h426v-217h-426v-448h-250v448h-426z" />
<glyph unicode="," horiz-adv-x="444" d="M90 299h264v-532l-264 -101v633z" />
<glyph unicode="-" horiz-adv-x="708" d="M80 532v226h549v-226h-549z" />
<glyph unicode="." horiz-adv-x="481" d="M90 0v299h301v-299h-301z" />
<glyph unicode="/" horiz-adv-x="593" d="M14 -268l385 1702h152l-379 -1702h-158z" />
<glyph unicode="0" horiz-adv-x="1214" d="M94 352v727q0 163 104 259t279 96h260q175 0 279 -96t104 -259v-727q0 -162 -104 -257t-279 -95h-260q-175 0 -279 95t-104 257zM356 408q0 -183 176 -183h150q176 0 176 183v616q0 184 -176 184h-150q-176 0 -176 -184v-616z" />
<glyph unicode="1" horiz-adv-x="522" d="M119 0v1346l262 84v-1430h-262z" />
<glyph unicode="2" horiz-adv-x="1140" d="M72 893v184q0 164 104 260.5t281 96.5h221q179 0 282 -95t103 -264v-78q0 -172 -129 -292l-518 -480h653v-225h-993v229l633 594q44 41 65 82t21 101v24q0 98 -44 138t-147 40h-72q-108 0 -154 -38.5t-46 -139.5v-137h-260z" />
<glyph unicode="3" horiz-adv-x="1146" d="M47 340v78h260v-17q0 -101 47 -138.5t156 -37.5h115q101 0 144.5 44.5t43.5 148.5v49q0 101 -50 148t-149 47h-313v198l438 348h-653l20 226h947v-244l-416 -316h70q162 0 264 -91.5t102 -258.5v-162q0 -165 -104.5 -263.5t-280.5 -98.5h-258q-179 0 -281 89.5 t-102 250.5z" />
<glyph unicode="4" horiz-adv-x="1175" d="M29 354v252l587 828h357v-861h168v-219h-168v-354h-262v354h-682zM268 573h443v635z" />
<glyph unicode="5" horiz-adv-x="1161" d="M63 356v62h261v-17q0 -101 46.5 -138.5t153.5 -37.5h117q101 0 144.5 44.5t43.5 148.5v133q0 101 -49.5 147.5t-148.5 46.5h-92q-77 0 -121.5 -38.5t-52.5 -77.5l-271 37l56 768h888v-226h-680l-22 -325q74 88 229 88h142q178 0 280.5 -97.5t102.5 -263.5v-248 q0 -165 -104.5 -263.5t-280.5 -98.5h-259q-183 0 -283 92.5t-100 263.5z" />
<glyph unicode="6" horiz-adv-x="1204" d="M96 352v725q0 163 104 260t279 97h262q178 0 280.5 -91t102.5 -251v-76h-260v14q0 94 -42.5 136t-139.5 42h-147q-93 0 -135 -46t-42 -140v-234q50 62 123.5 83.5t167.5 21.5h90q177 0 280 -94.5t103 -257.5v-189q0 -163 -103 -257.5t-280 -94.5h-260q-175 0 -279 95 t-104 257zM358 408q0 -183 177 -183h149q178 0 178 183v77q0 183 -178 183h-117q-111 0 -160 -40t-49 -132v-88z" />
<glyph unicode="7" horiz-adv-x="1105" d="M43 977v457h1040v-260l-567 -1174h-303l616 1208h-536v-231h-250z" />
<glyph unicode="8" horiz-adv-x="1208" d="M68 322v59q0 91 46.5 162t127.5 112l120 62l-110 61q-82 45 -125 122t-43 157v43q0 149 99 241.5t259 92.5h320q155 0 257.5 -89t102.5 -227v-61q0 -191 -166 -279l-112 -61l119 -62q82 -43 129 -113t47 -161v-59q0 -140 -95.5 -231t-246.5 -91h-344q-177 0 -281 83.5 t-104 238.5zM336 354q0 -73 48.5 -101t137.5 -28h185q161 0 161 129v23q0 57 -29 88t-98 63l-139 62l-137 -62q-70 -32 -99.5 -63t-29.5 -88v-23zM346 1069q0 -57 34 -91.5t130 -84.5l94 -49l92 49q97 52 130.5 84.5t33.5 91.5v21q0 64 -33.5 91t-97.5 27h-250 q-65 0 -99 -27t-34 -91v-21z" />
<glyph unicode="9" horiz-adv-x="1200" d="M78 342v76h260v-15q0 -94 42.5 -136t139.5 -42h148q93 0 134.5 46t41.5 141v233q-50 -62 -123 -83t-168 -21h-90q-177 0 -280 94.5t-103 257.5v188q0 163 103 258t280 95h260q175 0 279 -95.5t104 -257.5v-725q0 -163 -104 -259.5t-279 -96.5h-262q-178 0 -280.5 91 t-102.5 251zM340 948q0 -182 178 -182h117q111 0 160 40t49 132v88q0 182 -176 182h-150q-178 0 -178 -182v-78z" />
<glyph unicode=":" horiz-adv-x="522" d="M121 0v299h280v-299h-280zM121 756v301h280v-301h-280z" />
<glyph unicode=";" horiz-adv-x="514" d="M117 756v301h280v-301h-280zM125 299h264v-532l-264 -101v633z" />
<glyph unicode="&#x3c;" horiz-adv-x="1513" d="M102 735v25l750 583v-411h559v-369h-559v-411z" />
<glyph unicode="=" horiz-adv-x="1064" d="M94 389v215h877v-215h-877zM94 823v213h877v-213h-877z" />
<glyph unicode="&#x3e;" horiz-adv-x="1513" d="M102 563v369h560v411l749 -583v-25l-749 -583v411h-560z" />
<glyph unicode="?" horiz-adv-x="1048" d="M51 956v121q0 164 103.5 260.5t291.5 96.5h158q182 0 283.5 -88t101.5 -252v-97q0 -167 -110 -268l-244 -221v-68h-256v166l278 246q66 51 66 154v14q0 108 -41 148t-150 40h-12q-114 0 -158.5 -38t-44.5 -148v-66h-266zM369 0v299h280v-299h-280z" />
<glyph unicode="@" horiz-adv-x="1744" d="M74 229v619q0 93 34.5 175.5t98.5 145.5t162.5 99.5t218.5 36.5h571q120 0 219 -36.5t163 -99.5t99 -145.5t35 -175.5v-356q0 -210 -85 -300t-267 -90h-82q-78 0 -123.5 37t-54.5 80q-78 -117 -240 -117h-78q-104 0 -168.5 53.5t-64.5 149.5v92q0 72 44.5 126t131.5 73 l348 76v39q0 46 -27.5 70t-90.5 24h-82q-53 0 -82 -21t-29 -61v-14h-193v30q0 108 78.5 171t188.5 63h168q117 0 190.5 -61t73.5 -171v-397q0 -47 12.5 -65.5t46.5 -18.5h29q39 0 66 9.5t49 33t32.5 69t10.5 113.5v340q0 149 -91 230.5t-253 81.5h-519q-162 0 -252 -81.5 t-90 -230.5v-571q0 -150 90 -231.5t252 -81.5h869v-168h-895q-120 0 -218.5 36.5t-162.5 99.5t-98.5 145t-34.5 175zM702 348q0 -24 6 -40t14 -24.5t28 -12.5t34.5 -4.5t46.5 -0.5h66q65 0 102 28t37 83v139l-282 -67q-23 -5 -37.5 -22t-14.5 -44v-35z" />
<glyph unicode="A" horiz-adv-x="1236" d="M-2 0l389 1434h461l391 -1434h-295l-92 360h-490l-83 -360h-281zM420 578h381l-160 630h-63z" />
<glyph unicode="B" horiz-adv-x="1284" d="M117 0v1434h696q182 0 282.5 -93.5t100.5 -261.5v-61q0 -95 -49 -173t-148 -108q95 -20 153 -90.5t58 -167.5v-127q0 -163 -100 -257.5t-274 -94.5h-719zM379 215h381q94 0 140 39.5t46 124.5v76q0 161 -182 161h-385v-401zM379 840h352q98 0 149.5 36.5t51.5 124.5v46 q0 87 -44.5 124t-137.5 37h-371v-368z" />
<glyph unicode="C" horiz-adv-x="1255" d="M94 352v727q0 163 104 259t279 96h326q177 0 280 -95.5t103 -257.5v-118h-262v61q0 184 -176 184h-216q-176 0 -176 -184v-616q0 -183 176 -183h216q176 0 176 183v63h262v-119q0 -163 -103 -257.5t-280 -94.5h-326q-175 0 -279 95t-104 257z" />
<glyph unicode="D" horiz-adv-x="1302" d="M117 0v1434h706q177 0 281 -96t104 -259v-721q0 -163 -104 -260.5t-281 -97.5h-706zM379 225h389q176 0 176 183v616q0 88 -43.5 136t-132.5 48h-389v-983z" />
<glyph unicode="E" horiz-adv-x="1177" d="M117 0v1434h997v-226h-735v-368h629v-230h-629v-385h735v-225h-997z" />
<glyph unicode="F" horiz-adv-x="1087" d="M117 0v1434h932v-226h-670v-415h594v-232h-594v-561h-262z" />
<glyph unicode="G" horiz-adv-x="1269" d="M94 352v727q0 163 104 259t279 96h326q177 0 280 -95.5t103 -257.5v-118h-262v61q0 184 -176 184h-216q-176 0 -176 -184v-616q0 -183 176 -183h216q176 0 176 176v138h-275v223h537v-410q0 -163 -103 -257.5t-280 -94.5h-326q-175 0 -279 95t-104 257z" />
<glyph unicode="H" horiz-adv-x="1349" d="M117 0v1434h262v-594h592v594h262v-1434h-262v604h-592v-604h-262z" />
<glyph unicode="I" horiz-adv-x="495" d="M117 0v1434h262v-1434h-262z" />
<glyph unicode="J" horiz-adv-x="495" d="M117 -313v1747h262v-1641z" />
<glyph unicode="K" horiz-adv-x="1271" d="M117 0v1434h262v-600h194l392 600h305l-484 -711l484 -723h-318l-381 598h-192v-598h-262z" />
<glyph unicode="L" horiz-adv-x="1112" d="M117 0v1434h262v-1198h708v-236h-970z" />
<glyph unicode="M" horiz-adv-x="1546" d="M117 0v1434h338l319 -734l320 734h336v-1434h-263v1075l-270 -616h-254l-264 616v-1075h-262z" />
<glyph unicode="N" horiz-adv-x="1325" d="M117 0v1434h327l508 -1049v1049h256v-1434h-319l-518 1059v-1059h-254z" />
<glyph unicode="O" horiz-adv-x="1280" d="M94 352v727q0 163 104 259t279 96h326q175 0 279 -96t104 -259v-727q0 -162 -104 -257t-279 -95h-326q-175 0 -279 95t-104 257zM356 408q0 -183 176 -183h216q176 0 176 183v616q0 184 -176 184h-216q-176 0 -176 -184v-616z" />
<glyph unicode="P" horiz-adv-x="1218" d="M117 0v1434h669q172 0 275.5 -96.5t103.5 -258.5v-209q0 -163 -107 -257.5t-296 -94.5h-383v-518h-262zM379 741h336q190 0 190 174v119q0 174 -190 174h-336v-467z" />
<glyph unicode="Q" horiz-adv-x="1280" d="M94 352v727q0 163 104 259t279 96h326q175 0 279 -96t104 -259v-727q0 -162 -104 -257t-279 -95h-43v-72q0 -65 26 -84.5t91 -19.5h184v-219h-236q-168 0 -243.5 57t-75.5 209v129q-191 0 -301.5 91t-110.5 261zM356 408q0 -183 176 -183h216q176 0 176 183v616 q0 184 -176 184h-216q-176 0 -176 -184v-616z" />
<glyph unicode="R" horiz-adv-x="1253" d="M117 0v1434h698q176 0 280.5 -94.5t104.5 -256.5v-145q0 -132 -71.5 -226.5t-213.5 -115.5l336 -596h-301l-299 559h-272v-559h-262zM379 784h369q192 0 192 177v75q0 172 -184 172h-377v-424z" />
<glyph unicode="S" horiz-adv-x="1232" d="M78 344v121h260v-76q0 -86 42.5 -125t135.5 -39h201q96 0 138 33t42 119v33q0 36 -6.5 61t-17 41.5t-34.5 29t-47.5 19.5t-66.5 17l-360 79q-145 32 -216 106t-71 212v112q0 161 104 254t279 93h317q174 0 273.5 -94.5t99.5 -256.5v-100h-262v61q0 175 -178 175h-195 q-93 0 -135.5 -35.5t-42.5 -116.5v-47q0 -65 31.5 -91t119.5 -46l363 -84q74 -17 126.5 -39.5t95 -58t64 -89t21.5 -125.5v-135q0 -164 -99.5 -258t-275.5 -94h-307q-399 0 -399 344z" />
<glyph unicode="T" horiz-adv-x="1140" d="M23 1202v232h1095v-232h-416v-1202h-264v1202h-415z" />
<glyph unicode="U" horiz-adv-x="1300" d="M111 352v1082h262v-1026q0 -183 176 -183h203q178 0 178 183v1026h260v-1082q0 -163 -103 -257.5t-280 -94.5h-313q-175 0 -279 95t-104 257z" />
<glyph unicode="V" horiz-adv-x="1222" d="M0 1434h289l286 -1209h82l289 1209h277l-363 -1434h-500z" />
<glyph unicode="W" horiz-adv-x="2002" d="M8 1434h287l223 -1209h62l249 1209h349l252 -1209h59l223 1209h283l-316 -1434h-452l-219 1126h-13l-217 -1126h-454z" />
<glyph unicode="X" horiz-adv-x="1220" d="M-8 0l454 735l-430 699h308l299 -514l286 514h297l-428 -709l447 -725h-301l-320 539l-305 -539h-307z" />
<glyph unicode="Y" horiz-adv-x="1208" d="M-4 1434h303l317 -660l306 660h290l-475 -932v-502h-262v502z" />
<glyph unicode="Z" horiz-adv-x="1148" d="M53 0v227l738 975h-725v232h1024v-228l-725 -977h725v-229h-1037z" />
<glyph unicode="[" horiz-adv-x="667" d="M117 -283v1803h549v-191h-306v-1421h306v-191h-549z" />
<glyph unicode="\" horiz-adv-x="593" d="M43 1434h152l385 -1702h-158z" />
<glyph unicode="]" horiz-adv-x="667" d="M2 -92h305v1421h-305v191h549v-1803h-549v191z" />
<glyph unicode="^" horiz-adv-x="1142" d="M117 610l239 824h430l240 -824h-254l-164 607h-73l-164 -607h-254z" />
<glyph unicode="_" horiz-adv-x="702" d="M16 -129h670v-211h-670v211z" />
<glyph unicode="`" horiz-adv-x="589" d="M117 1434h297l59 -273h-233z" />
<glyph unicode="a" horiz-adv-x="1040" d="M53 285v65q0 92 55 155t164 87l420 94v43q0 127 -139 127h-84q-33 0 -55 -4t-45.5 -16t-35 -40t-11.5 -71h-242q0 53 10 98.5t35.5 89.5t65.5 75t104 50t147 19h136q181 0 273.5 -82t92.5 -244v-731h-246v86q-75 -86 -237 -86h-92q-151 0 -233.5 71t-82.5 214zM303 303 q0 -63 33 -83.5t102 -20.5h80q86 0 130 34t44 117v144l-303 -72q-43 -9 -64.5 -31t-21.5 -63v-25z" />
<glyph unicode="b" horiz-adv-x="1069" d="M102 0v1434h246v-457q35 38 97 59t122 21h97q145 0 237 -86.5t92 -239.5v-395q0 -153 -94.5 -244.5t-247.5 -91.5h-108q-140 0 -195 76v-76h-246zM352 350q0 -151 160 -151h76q81 0 118 37.5t37 111.5v361q0 149 -155 149h-74q-81 0 -121.5 -40t-40.5 -113v-355z" />
<glyph unicode="c" horiz-adv-x="1019" d="M74 356v344q0 165 95 261t269 96h164q175 0 269 -95.5t94 -261.5v-18h-250v27q0 149 -154 149h-82q-155 0 -155 -149v-361q0 -149 155 -149h82q154 0 154 149v29h250v-21q0 -166 -94 -261t-269 -95h-164q-174 0 -269 95.5t-95 260.5z" />
<glyph unicode="d" horiz-adv-x="1071" d="M76 309v416q0 152 98 242t244 90h110q60 0 114 -17.5t77 -50.5v445h250v-1434h-246v78q-75 -78 -227 -78h-97q-143 0 -233 79t-90 230zM326 348q0 -149 155 -149h78q158 0 158 151v355q0 153 -158 153h-78q-155 0 -155 -149v-361z" />
<glyph unicode="e" horiz-adv-x="1030" d="M74 356v344q0 165 95 261t269 96h164q175 0 269 -95.5t94 -261.5v-231h-641v-121q0 -149 155 -149h82q81 0 118.5 37.5t37.5 111.5v23h248v-25q0 -160 -92.5 -253t-268.5 -93h-164q-176 0 -271 95.5t-95 260.5zM324 657h391v52q0 149 -154 149h-82q-155 0 -155 -149v-52z " />
<glyph unicode="f" horiz-adv-x="692" d="M4 848l51 209h138v168q0 127 86.5 204.5t250.5 77.5h228v-209h-189q-69 0 -97 -32.5t-28 -96.5v-112h228v-209h-228v-848h-251v848h-189z" />
<glyph unicode="g" horiz-adv-x="1028" d="M76 47v25q0 68 46 125.5t122 74.5q-168 57 -168 297v160q0 137 93 231.5t243 94.5v96q0 133 82 208t251 75h209v-205h-192q-57 0 -82 -23t-25 -71v-78q145 -7 233.5 -98.5t88.5 -229.5v-190q0 -144 -96 -236t-250 -92h-209q-44 0 -69 -22.5t-25 -61.5v-14q0 -45 23 -62.5 t89 -17.5h285q124 0 201.5 -65.5t77.5 -184.5v-197h-250v121q0 65 -29 92t-98 27h-299q-133 0 -192.5 59.5t-59.5 161.5zM326 543q0 -135 145 -135h113q143 0 143 135v182q0 63 -38.5 99t-113.5 36h-104q-145 0 -145 -135v-182z" />
<glyph unicode="h" horiz-adv-x="1091" d="M102 0v1434h250v-471q37 42 107.5 68t136.5 26h74q143 0 234 -80t91 -229v-748h-252v686q0 80 -46.5 120t-125.5 40h-41q-178 0 -178 -164v-682h-250z" />
<glyph unicode="i" horiz-adv-x="454" d="M102 0v1057h250v-1057h-250zM102 1180v254h250v-254h-250z" />
<glyph unicode="j" horiz-adv-x="454" d="M102 -438v1495h250v-1411zM102 1180v254h250v-254h-250z" />
<glyph unicode="k" horiz-adv-x="1046" d="M102 0v1434h250v-813l381 436h291l-340 -375l360 -682h-278l-254 504l-160 -180v-324h-250z" />
<glyph unicode="l" horiz-adv-x="516" d="M98 266v1168h250v-1131q0 -51 21 -72.5t71 -21.5h66v-209h-133q-82 0 -137.5 18t-85 55t-41 82.5t-11.5 110.5z" />
<glyph unicode="m" horiz-adv-x="1681" d="M102 0v1057h246v-96q37 44 108.5 70t139.5 26h31q93 0 165.5 -35.5t108.5 -101.5q43 63 124 100t179 37h53q144 0 236 -80t92 -229v-748h-250v686q0 160 -174 160h-12q-83 0 -131.5 -40t-48.5 -120v-686h-250v686q0 160 -174 160h-13q-84 0 -132 -41t-48 -125v-680h-250z " />
<glyph unicode="n" horiz-adv-x="1089" d="M102 0v1057h246v-96q37 44 108.5 70t139.5 26h74q143 0 233 -79.5t90 -229.5v-748h-250v686q0 160 -174 160h-37q-180 0 -180 -166v-680h-250z" />
<glyph unicode="o" d="M74 356v344q0 165 95 261t269 96h164q175 0 269 -95.5t94 -261.5v-344q0 -166 -94 -261t-269 -95h-164q-174 0 -269 95.5t-95 260.5zM324 348q0 -149 155 -149h82q154 0 154 149v361q0 149 -154 149h-82q-155 0 -155 -149v-361z" />
<glyph unicode="p" horiz-adv-x="1069" d="M102 -432v1489h246v-80q35 38 97 59t122 21h97q145 0 237 -86.5t92 -239.5v-395q0 -153 -94.5 -244.5t-247.5 -91.5h-110q-144 0 -191 66v-498h-248zM352 350q0 -151 160 -151h76q81 0 118 37.5t37 111.5v361q0 149 -155 149h-74q-81 0 -121.5 -40t-40.5 -113v-355z" />
<glyph unicode="q" horiz-adv-x="1071" d="M76 309v416q0 152 98 242t244 90h104q63 0 118 -19t79 -53v72h250v-1489h-248v510q-75 -78 -225 -78h-97q-143 0 -233 79t-90 230zM326 348q0 -149 155 -149h82q154 0 154 149v361q0 149 -154 149h-82q-155 0 -155 -149v-361z" />
<glyph unicode="r" horiz-adv-x="761" d="M102 0v1057h242v-117q31 58 100.5 87.5t141.5 29.5h151v-238h-202q-97 0 -140 -37.5t-43 -126.5v-655h-250z" />
<glyph unicode="s" horiz-adv-x="1017" d="M59 276v70h246v-35q0 -112 160 -112h108q140 0 140 82v36q0 38 -34.5 56.5t-107.5 32.5l-258 47q-116 22 -179.5 91.5t-63.5 172.5v55q0 126 91 205.5t224 79.5h252q133 0 219 -80t86 -201v-63h-246v32q0 67 -37.5 90t-113.5 23h-105q-57 0 -86.5 -19.5t-29.5 -66.5v-22 q0 -44 25 -61t95 -30l261 -51q123 -23 190.5 -88t67.5 -162v-65q0 -129 -89.5 -211t-240.5 -82h-254q-139 0 -229.5 77t-90.5 199z" />
<glyph unicode="t" horiz-adv-x="755" d="M2 848l49 209h137v377h250v-377h293v-209h-293v-522q0 -60 30 -88.5t101 -28.5h138v-209h-205q-162 0 -238 73t-76 201v574h-186z" />
<glyph unicode="u" horiz-adv-x="1085" d="M96 309v748h250v-692q0 -160 162 -160h47q83 0 130.5 37.5t47.5 117.5v697h250v-1057h-246v94q-38 -44 -108.5 -69t-139.5 -25h-69q-143 0 -233.5 80t-90.5 229z" />
<glyph unicode="v" horiz-adv-x="1009" d="M6 1057h277l202 -858h50l204 858h267l-283 -1057h-442z" />
<glyph unicode="w" horiz-adv-x="1632" d="M10 1057h273l157 -838h41l203 838h279l196 -838h45l160 838h258l-250 -1057h-383l-174 801l-182 -801h-375z" />
<glyph unicode="x" horiz-adv-x="980" d="M6 0l342 539l-332 518h283l201 -352l200 352h267l-334 -529l344 -528h-281l-213 360l-202 -360h-275z" />
<glyph unicode="y" horiz-adv-x="1009" d="M6 1057h277l200 -858h45l207 858h271l-326 -1217q-44 -162 -114 -217t-226 -55h-188v205h120q78 0 116.5 19.5t51.5 76.5l31 131h-190z" />
<glyph unicode="z" horiz-adv-x="958" d="M57 0v211l555 641h-549l11 205h823v-217l-559 -637h559v-203h-840z" />
<glyph unicode="{" horiz-adv-x="688" d="M18 502v229h80q75 0 103 39t28 115v305q0 167 82.5 238t241.5 71h113v-213h-105q-82 0 -82 -76v-319q0 -101 -45 -173t-149 -91v-21q104 -19 149 -90.5t45 -171.5v-332q0 -75 82 -75h105v-213h-113q-159 0 -241.5 71t-82.5 238v315q0 79 -28.5 116.5t-102.5 37.5h-80z " />
<glyph unicode="|" horiz-adv-x="425" d="M115 -371v2157h196v-2157h-196z" />
<glyph unicode="}" horiz-adv-x="688" d="M23 -63h102q84 0 84 75v332q0 100 45 171.5t149 90.5v21q-104 19 -149 91t-45 173v319q0 76 -84 76h-102v213h112q159 0 241.5 -71t82.5 -238v-305q0 -79 28.5 -116.5t102.5 -37.5h80v-229h-56q-92 0 -123.5 -35.5t-31.5 -118.5v-315q0 -167 -82.5 -238t-241.5 -71h-112 v213z" />
<glyph unicode="~" horiz-adv-x="1071" d="M84 524v107q0 98 48 158.5t136 60.5q61 0 193.5 -30t234.5 -60l103 -31v117h192v-107q0 -99 -43.5 -159t-128.5 -60q-60 0 -195.5 30t-241.5 60l-106 31v-117h-192z" />
<glyph unicode="&#xa1;" horiz-adv-x="509" d="M113 756v301h280v-301h-280zM123 -377v993h264v-993h-264z" />
<glyph unicode="&#xa2;" horiz-adv-x="1017" d="M66 356v344q0 161 89.5 259t252.5 98v182h206v-182q171 0 256.5 -96.5t85.5 -260.5v-18h-249v27q0 149 -156 149h-80q-156 0 -156 -149v-361q0 -149 156 -149h80q81 0 118.5 37.5t37.5 111.5v29h249v-21q0 -163 -88.5 -259.5t-253.5 -96.5v-182h-206v182 q-166 0 -254 96.5t-88 259.5z" />
<glyph unicode="&#xa3;" horiz-adv-x="1241" d="M63 0v225h148v338h-148v215h148v301q0 163 103 259t278 96h199q177 0 280 -95.5t103 -257.5v-108h-263v53q0 182 -176 182h-88q-176 0 -176 -182v-248h391v-215h-391v-338h705v-225h-1113z" />
<glyph unicode="&#xa4;" horiz-adv-x="1333" d="M57 240l174 176q-32 68 -32 168v268q0 102 32 170l-174 178l140 137l163 -168q89 50 201 50h209q114 0 201 -52l168 170l137 -139l-176 -178q33 -90 33 -168v-268q0 -76 -33 -166l176 -176l-137 -140l-166 168q-80 -51 -203 -51h-209q-118 0 -203 49l-161 -166zM424 598 q0 -182 174 -182h135q172 0 172 182v240q0 182 -172 182h-135q-90 0 -132 -45t-42 -137v-240z" />
<glyph unicode="&#xa5;" horiz-adv-x="1329" d="M55 1434h303l318 -660l305 660h291l-268 -529h227v-188h-324l-90 -172h414v-189h-434v-356h-262v356h-437v189h414l-90 172h-324v188h228z" />
<glyph unicode="&#xa6;" horiz-adv-x="430" d="M117 -371v971h196v-971h-196zM117 856v930h196v-930h-196z" />
<glyph unicode="&#xa7;" horiz-adv-x="1273" d="M68 291v47h254v-8q0 -115 149 -115h344q117 0 117 96q0 48 -31 70.5t-92 28.5l-487 51q-125 13 -178 84.5t-58 189.5l854 -112q116 -15 185 -88.5t69 -178.5v-55q0 -129 -92.5 -215t-237.5 -86h-467q-141 0 -235 80.5t-94 210.5zM86 1085v52q0 126 93.5 211.5t234.5 85.5 h460q158 0 244 -82t86 -211v-47h-256q0 68 -30 96.5t-97 28.5h-360q-115 0 -115 -97q0 -49 29.5 -69t87.5 -27l479 -55q60 -7 105 -28.5t69.5 -48.5t40.5 -63.5t21 -66.5t6 -66l-850 113q-114 15 -181 89.5t-67 184.5z" />
<glyph unicode="&#xa8;" horiz-adv-x="880" d="M106 1167v267h269v-267h-269zM508 1167v267h266v-267h-266z" />
<glyph unicode="&#xa9;" horiz-adv-x="1607" d="M59 719q0 108 16.5 201t51.5 178.5t94 152t139.5 116t193 75.5t249.5 26q164 0 292.5 -38t212.5 -104.5t139 -162.5t78 -205t23 -239t-23 -239t-78 -205t-139 -162.5t-212.5 -105t-292.5 -38.5t-292.5 38.5t-212.5 105t-138.5 162.5t-77.5 205t-23 239zM256 719 q0 -306 126 -446t421 -140q296 0 423.5 140t127.5 446q0 304 -127.5 444t-423.5 140q-294 0 -420.5 -139.5t-126.5 -444.5zM455 553v311q0 120 67 197.5t193 77.5h170q116 0 187 -69.5t71 -176.5v-64h-197v39q0 111 -110 111h-72q-113 0 -113 -111v-293q0 -110 113 -110h74 q110 0 110 110v43h197v-65q0 -110 -71 -179t-187 -69h-172q-115 0 -187.5 69.5t-72.5 178.5z" />
<glyph unicode="&#xaa;" horiz-adv-x="774" d="M61 926v49q0 62 40 109t112 59l285 47v20q0 66 -82 66h-66q-88 0 -88 -68v-8h-184q0 46 12.5 85.5t41 74t82.5 54.5t128 20h96q121 0 184.5 -57.5t63.5 -166.5v-485h-186v49q-52 -49 -148 -49h-67q-102 0 -163 49t-61 152zM250 934q0 -35 20 -47.5t60 -12.5h69 q46 0 72.5 22.5t26.5 68.5v84l-148 -25q-53 -8 -76.5 -25t-23.5 -53v-12z" />
<glyph unicode="&#xab;" horiz-adv-x="1146" d="M10 530l316 529h288l-317 -529l319 -530h-290zM508 530l317 529h287l-317 -529l319 -530h-289z" />
<glyph unicode="&#xac;" horiz-adv-x="952" d="M70 600v213h788v-442h-237v229h-551z" />
<glyph unicode="&#xad;" horiz-adv-x="708" d="M80 532v226h549v-226h-549z" />
<glyph unicode="&#xae;" horiz-adv-x="1607" d="M59 719q0 108 16.5 201t51.5 178.5t94 152t139.5 116t193 75.5t249.5 26q164 0 292.5 -38t212.5 -104.5t139 -162.5t78 -205t23 -239t-23 -239t-78 -205t-139 -162.5t-212.5 -105t-292.5 -38.5t-292.5 38.5t-212.5 105t-138.5 162.5t-77.5 205t-23 239zM256 719 q0 -306 126 -446t421 -140q296 0 423.5 140t127.5 446q0 304 -127.5 444t-423.5 140q-294 0 -420.5 -139.5t-126.5 -444.5zM475 307v832h412q113 0 185.5 -66.5t72.5 -165.5v-49q0 -72 -45 -134.5t-129 -82.5l215 -334h-223l-179 297h-116v-297h-193zM668 764h161 q51 0 82 24.5t31 65.5v33q0 41 -28.5 63.5t-79.5 22.5h-166v-209z" />
<glyph unicode="&#xaf;" horiz-adv-x="851" d="M121 1188v190h620v-190h-620z" />
<glyph unicode="&#xb0;" horiz-adv-x="876" d="M66 963v153q0 142 80.5 230t228.5 88h129q147 0 227 -88t80 -230v-153q0 -142 -80 -230t-227 -88h-129q-148 0 -228.5 88t-80.5 230zM285 979q0 -81 31 -117.5t104 -36.5h37q73 0 104 36.5t31 117.5v121q0 80 -31 116.5t-104 36.5h-37q-73 0 -104 -36.5t-31 -116.5v-121z " />
<glyph unicode="&#xb1;" horiz-adv-x="1236" d="M68 0v217h1101v-217h-1101zM68 768v217h426v449h249v-449h426v-217h-426v-449h-249v449h-426z" />
<glyph unicode="&#xb2;" horiz-adv-x="856" d="M84 1096v96q0 113 74 179.5t198 66.5h138q124 0 197 -66.5t73 -179.5v-49q0 -115 -88 -197l-299 -282h391v-179h-680v177l406 382q27 26 37 49.5t10 59.5v10q0 52 -23 74.5t-74 22.5h-38q-107 0 -107 -97v-67h-215z" />
<glyph unicode="&#xb3;" horiz-adv-x="849" d="M61 731v57h218v-24q0 -100 110 -100h64q104 0 104 100v37q0 53 -26 76.5t-78 23.5h-224v158l269 201h-406l6 178h666v-185l-262 -190q51 0 97.5 -13.5t85.5 -40t62 -73.5t23 -107v-98q0 -114 -73 -180t-197 -66h-166q-124 0 -198.5 66.5t-74.5 179.5z" />
<glyph unicode="&#xb4;" horiz-adv-x="589" d="M117 1161l57 273h299l-125 -273h-231z" />
<glyph unicode="&#xb5;" horiz-adv-x="1067" d="M88 -438v1495h250v-692q0 -160 162 -160h47q83 0 130.5 37.5t47.5 117.5v697h250v-1057h-246v94q-82 -94 -237 -94h-70q-64 0 -105 23v-408z" />
<glyph unicode="&#xb6;" horiz-adv-x="1460" d="M55 838v235q0 165 105 262t282 97h904v-1432h-533v-442h-262v923h-109q-177 0 -282 96.5t-105 260.5zM813 225h272v983h-272v-983z" />
<glyph unicode="&#xb7;" horiz-adv-x="501" d="M100 586v299h301v-299h-301z" />
<glyph unicode="&#xb8;" horiz-adv-x="677" d="M106 -297h238q22 0 30.5 10t8.5 33v12q0 21 -8.5 31t-30.5 10h-180l29 219h153l-10 -81h108q55 0 91 -32.5t36 -86.5v-101q0 -84 -38.5 -122.5t-124.5 -38.5h-302v147z" />
<glyph unicode="&#xb9;" horiz-adv-x="430" d="M106 481v891l216 66v-957h-216z" />
<glyph unicode="&#xba;" horiz-adv-x="763" d="M70 969v219q0 114 64.5 180t184.5 66h127q120 0 184 -66t64 -180v-219q0 -113 -64.5 -178.5t-183.5 -65.5h-127q-119 0 -184 66t-65 178zM258 971q0 -90 98 -90h52q98 0 98 90v215q0 90 -98 90h-52q-98 0 -98 -90v-215z" />
<glyph unicode="&#xbb;" horiz-adv-x="1146" d="M33 0l319 530l-317 529h287l317 -529l-317 -530h-289zM530 0l320 530l-318 529h289l316 -529l-316 -530h-291z" />
<glyph unicode="&#xbc;" horiz-adv-x="1208" d="M88 481v891l215 66v-957h-215zM397 188v185l387 577h254v-585h119v-177h-119v-188h-215v188h-426zM600 365h223v337z" />
<glyph unicode="&#xbd;" horiz-adv-x="1175" d="M80 481v891l215 66v-957h-215zM434 610v97q0 112 73.5 177.5t199.5 65.5h135q126 0 198 -65t72 -178v-52q0 -63 -21 -108.5t-65 -87.5l-299 -281h389v-178h-678v174l406 383q27 25 36 49t9 60v10q0 54 -21.5 75t-74.5 21h-37q-57 0 -82 -21.5t-25 -74.5v-66h-215z" />
<glyph unicode="&#xbe;" horiz-adv-x="1538" d="M59 727v57h215v-24q0 -101 113 -101h64q104 0 104 101v37q0 53 -26 76.5t-78 23.5h-226v158l271 200h-406l6 179h666v-185l-264 -190q52 0 98.5 -13.5t86 -40t62.5 -73t23 -107.5v-98q0 -114 -73 -180t-197 -66h-168q-122 0 -196.5 66.5t-74.5 179.5zM727 188v185 l387 577h254v-585h119v-177h-119v-188h-215v188h-426zM930 371h223v331z" />
<glyph unicode="&#xbf;" d="M55 -37v94q0 170 113 271l242 219v67h256v-165l-277 -244l-20 -23q-47 -50 -47 -131v-16q0 -107 41 -147t149 -40h14q112 0 157.5 39t45.5 146v65h264v-118q0 -164 -103 -260.5t-290 -96.5h-158q-183 0 -285 88t-102 252zM397 756v301h281v-301h-281z" />
<glyph unicode="&#xc0;" horiz-adv-x="1236" d="M-2 0l389 1434h461l391 -1434h-295l-92 360h-490l-83 -360h-281zM406 1810h296l60 -272h-234zM420 578h381l-160 630h-63z" />
<glyph unicode="&#xc1;" horiz-adv-x="1236" d="M-2 0l389 1434h461l391 -1434h-295l-92 360h-490l-83 -360h-281zM420 578h381l-160 630h-63zM455 1538l57 272h299l-125 -272h-231z" />
<glyph unicode="&#xc2;" horiz-adv-x="1236" d="M-2 0l389 1434h461l391 -1434h-295l-92 360h-490l-83 -360h-281zM291 1556l92 248h455l92 -248h-219l-101 130l-100 -130h-219zM420 578h381l-160 630h-63z" />
<glyph unicode="&#xc3;" horiz-adv-x="1236" d="M-2 0l389 1434h461l391 -1434h-295l-92 360h-490l-83 -360h-281zM260 1556v99q0 91 47.5 139.5t128.5 48.5q59 0 146 -25.5t144 -51.5l58 -25v82h177v-78q0 -98 -40 -153.5t-122 -55.5q-56 0 -146.5 25.5t-153.5 50.5l-63 26v-82h-176zM420 578h381l-160 630h-63z" />
<glyph unicode="&#xc4;" horiz-adv-x="1236" d="M-2 0l389 1434h461l391 -1434h-295l-92 360h-490l-83 -360h-281zM276 1544v266h269v-266h-269zM420 578h381l-160 630h-63zM678 1544v266h266v-266h-266z" />
<glyph unicode="&#xc5;" horiz-adv-x="1241" d="M-2 0l352 1288q-90 80 -90 199v110q0 113 82 191t205 78h133q124 0 205.5 -79t81.5 -190v-110q0 -109 -78 -187l356 -1300h-295l-92 360h-493l-86 -360h-281zM420 578h387l-162 630h-65zM469 1511q0 -122 123 -122h45q65 0 94 30.5t29 91.5v62q0 62 -28.5 92.5 t-94.5 30.5h-45q-65 0 -94 -30.5t-29 -92.5v-62z" />
<glyph unicode="&#xc6;" horiz-adv-x="1886" d="M-12 0l504 1434h1331v-226h-715v-368h608v-226h-608v-389h715v-225h-977v350h-459l-115 -350h-284zM459 578h387v630h-174z" />
<glyph unicode="&#xc7;" horiz-adv-x="1255" d="M94 352v727q0 163 104 259t279 96h326q177 0 280 -95.5t103 -257.5v-118h-262v61q0 184 -176 184h-216q-176 0 -176 -184v-616q0 -183 176 -183h216q176 0 176 183v63h262v-119q0 -163 -103 -257.5t-280 -94.5h-146l-8 -63h109q55 0 91 -32.5t36 -86.5v-101 q0 -84 -39 -122.5t-125 -38.5h-301v147h237q22 0 30.5 10t8.5 33v12q0 21 -8.5 31t-30.5 10h-180l27 201h-27q-175 0 -279 95t-104 257z" />
<glyph unicode="&#xc8;" horiz-adv-x="1177" d="M117 0v1434h997v-226h-735v-368h629v-230h-629v-385h735v-225h-997zM401 1810h297l60 -272h-234z" />
<glyph unicode="&#xc9;" horiz-adv-x="1177" d="M117 0v1434h997v-226h-735v-368h629v-230h-629v-385h735v-225h-997zM492 1538l57 272h299l-125 -272h-231z" />
<glyph unicode="&#xca;" horiz-adv-x="1177" d="M117 0v1434h997v-226h-735v-368h629v-230h-629v-385h735v-225h-997zM281 1556l92 248h454l93 -248h-220l-100 130l-100 -130h-219z" />
<glyph unicode="&#xcb;" horiz-adv-x="1177" d="M117 0v1434h997v-226h-735v-368h629v-230h-629v-385h735v-225h-997zM268 1544v266h269v-266h-269zM670 1544v266h266v-266h-266z" />
<glyph unicode="&#xcc;" horiz-adv-x="495" d="M78 1810h297l59 -272h-233zM117 0v1434h262v-1434h-262z" />
<glyph unicode="&#xcd;" horiz-adv-x="495" d="M88 1538l57 272h299l-125 -272h-231zM117 0v1434h262v-1434h-262z" />
<glyph unicode="&#xce;" horiz-adv-x="495" d="M-70 1556l93 248h454l92 -248h-219l-100 130l-100 -130h-220zM117 0v1434h262v-1434h-262z" />
<glyph unicode="&#xcf;" horiz-adv-x="495" d="M-84 1544v266h268v-266h-268zM117 0v1434h262v-1434h-262zM317 1544v266h267v-266h-267z" />
<glyph unicode="&#xd0;" horiz-adv-x="1306" d="M4 610v230h117v594h706q177 0 281 -96t104 -259v-721q0 -163 -104 -260.5t-281 -97.5h-706v610h-117zM383 225h389q176 0 176 183v616q0 87 -44 135.5t-132 48.5h-389v-368h293v-230h-293v-385z" />
<glyph unicode="&#xd1;" horiz-adv-x="1325" d="M117 0v1434h327l508 -1049v1049h256v-1434h-319l-518 1059v-1059h-254zM303 1554v99q0 91 47.5 139.5t128.5 48.5q59 0 146 -25.5t145 -51.5l57 -25v82h177v-78q0 -98 -40 -153.5t-122 -55.5q-56 0 -146.5 25.5t-153.5 50.5l-63 26v-82h-176z" />
<glyph unicode="&#xd2;" horiz-adv-x="1280" d="M94 352v727q0 163 104 259t279 96h326q175 0 279 -96t104 -259v-727q0 -162 -104 -257t-279 -95h-326q-175 0 -279 95t-104 257zM356 408q0 -183 176 -183h216q176 0 176 183v616q0 184 -176 184h-216q-176 0 -176 -184v-616zM453 1810h297l59 -272h-234z" />
<glyph unicode="&#xd3;" horiz-adv-x="1280" d="M94 352v727q0 163 104 259t279 96h326q175 0 279 -96t104 -259v-727q0 -162 -104 -257t-279 -95h-326q-175 0 -279 95t-104 257zM356 408q0 -183 176 -183h216q176 0 176 183v616q0 184 -176 184h-216q-176 0 -176 -184v-616zM473 1538l57 272h299l-124 -272h-232z" />
<glyph unicode="&#xd4;" horiz-adv-x="1280" d="M94 352v727q0 163 104 259t279 96h326q175 0 279 -96t104 -259v-727q0 -162 -104 -257t-279 -95h-326q-175 0 -279 95t-104 257zM322 1556l92 248h454l93 -248h-220l-100 130l-100 -130h-219zM356 408q0 -183 176 -183h216q176 0 176 183v616q0 184 -176 184h-216 q-176 0 -176 -184v-616z" />
<glyph unicode="&#xd5;" horiz-adv-x="1280" d="M94 352v727q0 163 104 259t279 96h326q175 0 279 -96t104 -259v-727q0 -162 -104 -257t-279 -95h-326q-175 0 -279 95t-104 257zM291 1556v99q0 91 47.5 139.5t128.5 48.5q59 0 146 -25.5t145 -51.5l57 -25v82h176v-78q0 -98 -40 -153.5t-122 -55.5q-56 0 -146.5 25.5 t-152.5 50.5l-63 26v-82h-176zM356 408q0 -183 176 -183h216q176 0 176 183v616q0 184 -176 184h-216q-176 0 -176 -184v-616z" />
<glyph unicode="&#xd6;" horiz-adv-x="1280" d="M94 352v727q0 163 104 259t279 96h326q175 0 279 -96t104 -259v-727q0 -162 -104 -257t-279 -95h-326q-175 0 -279 95t-104 257zM307 1544v266h268v-266h-268zM356 408q0 -183 176 -183h216q176 0 176 183v616q0 184 -176 184h-216q-176 0 -176 -184v-616zM709 1544v266 h266v-266h-266z" />
<glyph unicode="&#xd7;" horiz-adv-x="1323" d="M55 229l482 490l-482 489l127 127l480 -489l483 489l123 -129l-482 -487l482 -488l-123 -127l-483 490l-480 -490z" />
<glyph unicode="&#xd8;" horiz-adv-x="1325" d="M23 0l131 178q-37 73 -37 174v727q0 163 104 259t279 96h325q130 0 224 -56l41 56h206l-131 -177q43 -78 43 -178v-727q0 -162 -104 -257t-279 -95h-325q-143 0 -234 59q-2 -3 -17.5 -25.5t-23.5 -33.5h-202zM379 479l514 688q-44 41 -123 41h-215q-176 0 -176 -184v-545 zM426 268q40 -43 129 -43h215q176 0 176 183v557z" />
<glyph unicode="&#xd9;" horiz-adv-x="1300" d="M111 352v1082h262v-1026q0 -183 176 -183h203q178 0 178 183v1026h260v-1082q0 -163 -103 -257.5t-280 -94.5h-313q-175 0 -279 95t-104 257zM463 1810h297l59 -272h-233z" />
<glyph unicode="&#xda;" horiz-adv-x="1300" d="M111 352v1082h262v-1026q0 -183 176 -183h203q178 0 178 183v1026h260v-1082q0 -163 -103 -257.5t-280 -94.5h-313q-175 0 -279 95t-104 257zM463 1538l57 272h299l-125 -272h-231z" />
<glyph unicode="&#xdb;" horiz-adv-x="1300" d="M111 352v1082h262v-1026q0 -183 176 -183h203q178 0 178 183v1026h260v-1082q0 -163 -103 -257.5t-280 -94.5h-313q-175 0 -279 95t-104 257zM332 1563l92 247h455l92 -247h-219l-101 129l-100 -129h-219z" />
<glyph unicode="&#xdc;" horiz-adv-x="1300" d="M111 352v1082h262v-1026q0 -183 176 -183h203q178 0 178 183v1026h260v-1082q0 -163 -103 -257.5t-280 -94.5h-313q-175 0 -279 95t-104 257zM315 1544v266h269v-266h-269zM717 1544v266h266v-266h-266z" />
<glyph unicode="&#xdd;" horiz-adv-x="1208" d="M-4 1434h303l317 -660l306 660h290l-475 -932v-502h-262v502zM481 1538l58 272h299l-125 -272h-232z" />
<glyph unicode="&#xde;" horiz-adv-x="1216" d="M117 0v1434h262v-250h407q172 0 275.5 -96.5t103.5 -258.5v-198q0 -163 -107 -257.5t-296 -94.5h-383v-279h-262zM379 502h336q190 0 190 174v108q0 174 -190 174h-336v-456z" />
<glyph unicode="&#xdf;" horiz-adv-x="1089" d="M102 0v1100q0 175 98 276t273 101h154q182 0 277 -97t95 -264v-82q0 -58 -15.5 -108.5t-54.5 -96.5t-98 -71q92 -34 141.5 -100t49.5 -144v-156q0 -169 -89.5 -263.5t-266.5 -94.5h-179v199h119q85 0 125.5 34.5t40.5 118.5v148q0 76 -41.5 114.5t-116.5 38.5h-127v201 h99q82 0 122 40.5t40 111.5v104q0 90 -43.5 126t-133.5 36h-39q-103 0 -140.5 -49t-37.5 -164v-1059h-252z" />
<glyph unicode="&#xe0;" horiz-adv-x="1040" d="M53 285v65q0 92 55 155t164 87l420 94v43q0 127 -139 127h-84q-33 0 -55 -4t-45.5 -16t-35 -40t-11.5 -71h-242q0 53 10 98.5t35.5 89.5t65.5 75t104 50t147 19h136q181 0 273.5 -82t92.5 -244v-731h-246v86q-75 -86 -237 -86h-92q-151 0 -233.5 71t-82.5 214zM303 303 q0 -63 33 -83.5t102 -20.5h80q86 0 130 34t44 117v144l-303 -72q-43 -9 -64.5 -31t-21.5 -63v-25zM324 1434h297l59 -273h-234z" />
<glyph unicode="&#xe1;" horiz-adv-x="1040" d="M53 285v65q0 92 55 155t164 87l420 94v43q0 127 -139 127h-84q-33 0 -55 -4t-45.5 -16t-35 -40t-11.5 -71h-242q0 53 10 98.5t35.5 89.5t65.5 75t104 50t147 19h136q181 0 273.5 -82t92.5 -244v-731h-246v86q-75 -86 -237 -86h-92q-151 0 -233.5 71t-82.5 214zM303 303 q0 -63 33 -83.5t102 -20.5h80q86 0 130 34t44 117v144l-303 -72q-43 -9 -64.5 -31t-21.5 -63v-25zM369 1161l57 273h299l-125 -273h-231z" />
<glyph unicode="&#xe2;" horiz-adv-x="1040" d="M53 285v65q0 92 55 155t164 87l420 94v43q0 127 -139 127h-84q-33 0 -55 -4t-45.5 -16t-35 -40t-11.5 -71h-242q0 53 10 98.5t35.5 89.5t65.5 75t104 50t147 19h136q181 0 273.5 -82t92.5 -244v-731h-246v86q-75 -86 -237 -86h-92q-151 0 -233.5 71t-82.5 214zM193 1186 l92 248h454l92 -248h-219l-100 129l-100 -129h-219zM303 303q0 -63 33 -83.5t102 -20.5h80q86 0 130 34t44 117v144l-303 -72q-43 -9 -64.5 -31t-21.5 -63v-25z" />
<glyph unicode="&#xe3;" horiz-adv-x="1040" d="M53 285v65q0 92 55 155t164 87l420 94v43q0 127 -139 127h-84q-33 0 -55 -4t-45.5 -16t-35 -40t-11.5 -71h-242q0 53 10 98.5t35.5 89.5t65.5 75t104 50t147 19h136q181 0 273.5 -82t92.5 -244v-731h-246v86q-75 -86 -237 -86h-92q-151 0 -233.5 71t-82.5 214zM152 1176 v98q0 91 47.5 139.5t128.5 48.5q59 0 146 -25.5t144 -50.5l58 -26v82h176v-78q0 -98 -40 -153.5t-122 -55.5q-56 0 -146.5 25.5t-153.5 51.5l-62 25v-81h-176zM303 303q0 -63 33 -83.5t102 -20.5h80q86 0 130 34t44 117v144l-303 -72q-43 -9 -64.5 -31t-21.5 -63v-25z" />
<glyph unicode="&#xe4;" horiz-adv-x="1040" d="M53 285v65q0 92 55 155t164 87l420 94v43q0 127 -139 127h-84q-33 0 -55 -4t-45.5 -16t-35 -40t-11.5 -71h-242q0 53 10 98.5t35.5 89.5t65.5 75t104 50t147 19h136q181 0 273.5 -82t92.5 -244v-731h-246v86q-75 -86 -237 -86h-92q-151 0 -233.5 71t-82.5 214zM170 1167 v267h268v-267h-268zM303 303q0 -63 33 -83.5t102 -20.5h80q86 0 130 34t44 117v144l-303 -72q-43 -9 -64.5 -31t-21.5 -63v-25zM571 1167v267h267v-267h-267z" />
<glyph unicode="&#xe5;" horiz-adv-x="1040" d="M53 285v65q0 92 55 155t164 87l420 94v43q0 127 -139 127h-84q-33 0 -55 -4t-45.5 -16t-35 -40t-11.5 -71h-242q0 53 10 98.5t35.5 89.5t65.5 75t104 50t147 19h136q181 0 273.5 -82t92.5 -244v-731h-246v86q-75 -86 -237 -86h-92q-151 0 -233.5 71t-82.5 214zM236 1370 v78q0 94 62.5 157.5t168.5 63.5h84q106 0 169.5 -63.5t63.5 -157.5v-78q0 -91 -64 -155t-169 -64h-84q-105 0 -168 64t-63 155zM303 303q0 -63 33 -83.5t102 -20.5h80q86 0 130 34t44 117v144l-303 -72q-43 -9 -64.5 -31t-21.5 -63v-25zM412 1384q0 -44 20 -66t66 -22h24 q46 0 65 21.5t19 66.5v52q0 45 -19 66.5t-65 21.5h-24q-46 0 -66 -22t-20 -66v-52z" />
<glyph unicode="&#xe6;" horiz-adv-x="1652" d="M55 295v76q0 135 88 201.5t252 66.5h301v88q0 68 -34 98.5t-107 30.5h-88q-143 0 -143 -131h-242q0 332 399 332h72q194 0 274 -92q39 41 103 66.5t145 25.5h148q175 0 269.5 -95.5t94.5 -261.5v-251h-641v-101q0 -149 156 -149h80q155 0 155 149v29h250v-21 q0 -166 -94 -261t-270 -95h-154q-185 0 -276 111q-86 -111 -320 -111h-70q-161 0 -254.5 70t-93.5 225zM305 303q0 -63 33 -83.5t102 -20.5h82q174 0 174 155v95h-254q-74 0 -105.5 -20.5t-31.5 -78.5v-47zM946 639h391v70q0 68 -39 108.5t-116 40.5h-80q-156 0 -156 -149 v-70z" />
<glyph unicode="&#xe7;" horiz-adv-x="1019" d="M74 356v344q0 165 95 261t269 96h164q175 0 269 -95.5t94 -261.5v-18h-250v27q0 149 -154 149h-82q-155 0 -155 -149v-361q0 -149 155 -149h82q154 0 154 149v29h250v-21q0 -166 -94 -261t-269 -95h-78l-8 -63h109q55 0 91 -32.5t36 -86.5v-101q0 -84 -39 -122.5 t-125 -38.5h-301v147h237q22 0 30.5 10t8.5 33v12q0 21 -8.5 31t-30.5 10h-180l27 205q-144 19 -220.5 111t-76.5 241z" />
<glyph unicode="&#xe8;" horiz-adv-x="1030" d="M74 356v344q0 165 95 261t269 96h164q175 0 269 -95.5t94 -261.5v-231h-641v-121q0 -149 155 -149h82q81 0 118.5 37.5t37.5 111.5v23h248v-25q0 -160 -92.5 -253t-268.5 -93h-164q-176 0 -271 95.5t-95 260.5zM324 657h391v52q0 149 -154 149h-82q-155 0 -155 -149v-52z M336 1434h297l59 -273h-233z" />
<glyph unicode="&#xe9;" horiz-adv-x="1030" d="M74 356v344q0 165 95 261t269 96h164q175 0 269 -95.5t94 -261.5v-231h-641v-121q0 -149 155 -149h82q81 0 118.5 37.5t37.5 111.5v23h248v-25q0 -160 -92.5 -253t-268.5 -93h-164q-176 0 -271 95.5t-95 260.5zM324 657h391v52q0 149 -154 149h-82q-155 0 -155 -149v-52z M365 1161l57 273h299l-125 -273h-231z" />
<glyph unicode="&#xea;" horiz-adv-x="1030" d="M74 356v344q0 165 95 261t269 96h164q175 0 269 -95.5t94 -261.5v-231h-641v-121q0 -149 155 -149h82q81 0 118.5 37.5t37.5 111.5v23h248v-25q0 -160 -92.5 -253t-268.5 -93h-164q-176 0 -271 95.5t-95 260.5zM195 1186l92 248h454l93 -248h-220l-100 129l-100 -129 h-219zM324 657h391v52q0 149 -154 149h-82q-155 0 -155 -149v-52z" />
<glyph unicode="&#xeb;" horiz-adv-x="1030" d="M74 356v344q0 165 95 261t269 96h164q175 0 269 -95.5t94 -261.5v-231h-641v-121q0 -149 155 -149h82q81 0 118.5 37.5t37.5 111.5v23h248v-25q0 -160 -92.5 -253t-268.5 -93h-164q-176 0 -271 95.5t-95 260.5zM182 1167v267h269v-267h-269zM324 657h391v52 q0 149 -154 149h-82q-155 0 -155 -149v-52zM584 1167v267h266v-267h-266z" />
<glyph unicode="&#xec;" horiz-adv-x="454" d="M51 1434h297l60 -273h-234zM102 0v1057h250v-1057h-250z" />
<glyph unicode="&#xed;" horiz-adv-x="454" d="M51 1161l58 273h299l-125 -273h-232zM102 0v1057h250v-1057h-250z" />
<glyph unicode="&#xee;" horiz-adv-x="454" d="M-90 1186l92 248h455l92 -248h-219l-101 129l-100 -129h-219zM102 0v1057h250v-1057h-250z" />
<glyph unicode="&#xef;" horiz-adv-x="454" d="M-106 1167v267h268v-267h-268zM102 0v1057h250v-1057h-250zM295 1167v267h266v-267h-266z" />
<glyph unicode="&#xf0;" horiz-adv-x="1054" d="M74 356v344q0 166 94.5 261.5t269.5 95.5h62q137 0 217 -92q-27 108 -84 219h-230v127h160q-19 32 -41 66t-35.5 53.5t-29.5 41t-17 23.5h250q67 -82 123 -184h201v-127h-135q86 -209 86 -420v-408q0 -166 -94.5 -261t-270.5 -95h-162q-176 0 -270 95t-94 261zM324 352 q0 -149 155 -149h80q156 0 156 149v350q0 150 -156 150h-80q-81 0 -118 -38t-37 -112v-350z" />
<glyph unicode="&#xf1;" horiz-adv-x="1089" d="M102 0v1057h246v-96q37 44 108.5 70t139.5 26h74q143 0 233 -79.5t90 -229.5v-748h-250v686q0 160 -174 160h-37q-180 0 -180 -166v-680h-250zM190 1176v98q0 90 48 139t129 49q59 0 146 -25.5t145 -50.5l57 -26v82h176v-78q0 -98 -40 -153.5t-122 -55.5 q-56 0 -146.5 25.5t-152.5 51.5l-63 25v-81h-177z" />
<glyph unicode="&#xf2;" d="M74 356v344q0 165 95 261t269 96h164q175 0 269 -95.5t94 -261.5v-344q0 -166 -94 -261t-269 -95h-164q-174 0 -269 95.5t-95 260.5zM324 348q0 -149 155 -149h82q154 0 154 149v361q0 149 -154 149h-82q-155 0 -155 -149v-361zM340 1434h297l59 -273h-233z" />
<glyph unicode="&#xf3;" d="M74 356v344q0 165 95 261t269 96h164q175 0 269 -95.5t94 -261.5v-344q0 -166 -94 -261t-269 -95h-164q-174 0 -269 95.5t-95 260.5zM324 348q0 -149 155 -149h82q154 0 154 149v361q0 149 -154 149h-82q-155 0 -155 -149v-361zM340 1161l57 273h299l-125 -273h-231z" />
<glyph unicode="&#xf4;" d="M74 356v344q0 165 95 261t269 96h164q175 0 269 -95.5t94 -261.5v-344q0 -166 -94 -261t-269 -95h-164q-174 0 -269 95.5t-95 260.5zM199 1186l92 248h454l93 -248h-220l-100 129l-100 -129h-219zM324 348q0 -149 155 -149h82q154 0 154 149v361q0 149 -154 149h-82 q-155 0 -155 -149v-361z" />
<glyph unicode="&#xf5;" d="M74 356v344q0 165 95 261t269 96h164q175 0 269 -95.5t94 -261.5v-344q0 -166 -94 -261t-269 -95h-164q-174 0 -269 95.5t-95 260.5zM168 1176v98q0 91 47.5 139.5t128.5 48.5q59 0 146 -25.5t144 -50.5l58 -26v82h176v-78q0 -98 -39.5 -153.5t-121.5 -55.5 q-56 0 -146.5 25.5t-153.5 51.5l-63 25v-81h-176zM324 348q0 -149 155 -149h82q154 0 154 149v361q0 149 -154 149h-82q-155 0 -155 -149v-361z" />
<glyph unicode="&#xf6;" d="M74 356v344q0 165 95 261t269 96h164q175 0 269 -95.5t94 -261.5v-344q0 -166 -94 -261t-269 -95h-164q-174 0 -269 95.5t-95 260.5zM184 1167v267h269v-267h-269zM324 348q0 -149 155 -149h82q154 0 154 149v361q0 149 -154 149h-82q-155 0 -155 -149v-361zM586 1167 v267h266v-267h-266z" />
<glyph unicode="&#xf7;" horiz-adv-x="1075" d="M59 600v217h957v-217h-957zM395 201v278h283v-278h-283zM395 936v281h283v-281h-283z" />
<glyph unicode="&#xf8;" d="M74 356v344q0 159 89 254t253 101v164h207v-164q165 -6 253.5 -101t88.5 -254v-344q0 -161 -88.5 -255.5t-253.5 -100.5v-162h-207v162q-164 6 -253 101t-89 255zM324 348q0 -149 155 -149h82q154 0 154 149v361q0 149 -154 149h-82q-155 0 -155 -149v-361z" />
<glyph unicode="&#xf9;" horiz-adv-x="1085" d="M96 309v748h250v-692q0 -160 162 -160h47q83 0 130.5 37.5t47.5 117.5v697h250v-1057h-246v94q-38 -44 -108.5 -69t-139.5 -25h-69q-143 0 -233.5 80t-90.5 229zM358 1434h297l60 -273h-234z" />
<glyph unicode="&#xfa;" horiz-adv-x="1085" d="M96 309v748h250v-692q0 -160 162 -160h47q83 0 130.5 37.5t47.5 117.5v697h250v-1057h-246v94q-38 -44 -108.5 -69t-139.5 -25h-69q-143 0 -233.5 80t-90.5 229zM377 1161l57 273h299l-125 -273h-231z" />
<glyph unicode="&#xfb;" horiz-adv-x="1085" d="M96 309v748h250v-692q0 -160 162 -160h47q83 0 130.5 37.5t47.5 117.5v697h250v-1057h-246v94q-38 -44 -108.5 -69t-139.5 -25h-69q-143 0 -233.5 80t-90.5 229zM217 1186l92 248h455l92 -248h-219l-100 129l-101 -129h-219z" />
<glyph unicode="&#xfc;" horiz-adv-x="1085" d="M96 309v748h250v-692q0 -160 162 -160h47q83 0 130.5 37.5t47.5 117.5v697h250v-1057h-246v94q-38 -44 -108.5 -69t-139.5 -25h-69q-143 0 -233.5 80t-90.5 229zM203 1167v267h268v-267h-268zM604 1167v267h266v-267h-266z" />
<glyph unicode="&#xfd;" horiz-adv-x="1009" d="M6 1057h277l200 -858h45l207 858h271l-326 -1217q-44 -162 -114 -217t-226 -55h-188v205h120q78 0 116.5 19.5t51.5 76.5l31 131h-190zM371 1161l57 273h299l-125 -273h-231z" />
<glyph unicode="&#xfe;" horiz-adv-x="1069" d="M102 -432v1866h246v-457q35 38 97 59t122 21h97q145 0 237 -86.5t92 -239.5v-395q0 -153 -94.5 -244.5t-247.5 -91.5h-110q-144 0 -191 66v-498h-248zM352 350q0 -151 160 -151h76q81 0 118 37.5t37 111.5v361q0 149 -155 149h-74q-81 0 -121.5 -40t-40.5 -113v-355z" />
<glyph unicode="&#xff;" horiz-adv-x="1009" d="M6 1057h277l200 -858h45l207 858h271l-326 -1217q-44 -162 -114 -217t-226 -55h-188v205h120q78 0 116.5 19.5t51.5 76.5l31 131h-190zM170 1167v267h268v-267h-268zM571 1167v267h267v-267h-267z" />
<glyph unicode="&#x152;" horiz-adv-x="1974" d="M94 358v721q0 163 104 259t279 96h1432v-226h-725v-368h631v-230h-631v-385h725v-225h-1432q-175 0 -279 97.5t-104 260.5zM356 408q0 -183 176 -183h390v983h-390q-176 0 -176 -184v-616z" />
<glyph unicode="&#x153;" horiz-adv-x="1671" d="M74 356v344q0 166 94 261.5t268 95.5h164q156 0 240 -84q81 84 237 84h164q176 0 270.5 -95.5t94.5 -261.5v-231h-641v-129q0 -141 153 -141h82q156 0 156 149v29h250v-21q0 -166 -94.5 -261t-270.5 -95h-151q-172 0 -250 84q-81 -84 -250 -84h-154q-174 0 -268 95 t-94 261zM324 348q0 -74 37 -111.5t118 -37.5h80q156 0 156 149v361q0 149 -156 149h-80q-155 0 -155 -149v-361zM965 657h391v52q0 81 -42.5 115t-144.5 34h-51q-23 0 -43 -10q-110 -11 -110 -133v-58z" />
<glyph unicode="&#x178;" horiz-adv-x="1208" d="M-4 1434h303l317 -660l306 660h290l-475 -932v-502h-262v502zM268 1542v266h269v-266h-269zM670 1542v266h266v-266h-266z" />
<glyph unicode="&#x2c6;" horiz-adv-x="839" d="M104 1186l93 248h454l92 -248h-219l-100 129l-100 -129h-220z" />
<glyph unicode="&#x2dc;" horiz-adv-x="915" d="M106 1176v98q0 90 48 139t129 49q59 0 146 -25.5t145 -50.5l57 -26v82h176v-78q0 -98 -40 -153.5t-122 -55.5q-56 0 -146.5 25.5t-152.5 51.5l-63 25v-81h-177z" />
<glyph unicode="&#x2000;" horiz-adv-x="933" />
<glyph unicode="&#x2001;" horiz-adv-x="1866" />
<glyph unicode="&#x2002;" horiz-adv-x="933" />
<glyph unicode="&#x2003;" horiz-adv-x="1866" />
<glyph unicode="&#x2004;" horiz-adv-x="622" />
<glyph unicode="&#x2005;" horiz-adv-x="466" />
<glyph unicode="&#x2006;" horiz-adv-x="311" />
<glyph unicode="&#x2007;" horiz-adv-x="311" />
<glyph unicode="&#x2008;" horiz-adv-x="233" />
<glyph unicode="&#x2009;" horiz-adv-x="373" />
<glyph unicode="&#x200a;" horiz-adv-x="103" />
<glyph unicode="&#x2010;" horiz-adv-x="708" d="M80 532v226h549v-226h-549z" />
<glyph unicode="&#x2011;" horiz-adv-x="708" d="M80 532v226h549v-226h-549z" />
<glyph unicode="&#x2012;" horiz-adv-x="708" d="M80 532v226h549v-226h-549z" />
<glyph unicode="&#x2013;" horiz-adv-x="1095" d="M80 532v226h936v-226h-936z" />
<glyph unicode="&#x2014;" horiz-adv-x="1816" d="M80 532v226h1657v-226h-1657z" />
<glyph unicode="&#x2018;" horiz-adv-x="434" d="M92 801v633h264v-533z" />
<glyph unicode="&#x2019;" horiz-adv-x="434" d="M92 801v633h264v-533z" />
<glyph unicode="&#x201a;" horiz-adv-x="448" d="M90 299h268v-532l-268 -101v633z" />
<glyph unicode="&#x201c;" horiz-adv-x="874" d="M92 801v633h264v-533zM532 801v633h265v-533z" />
<glyph unicode="&#x201d;" horiz-adv-x="874" d="M92 801v633h264v-533zM532 801v633h265v-533z" />
<glyph unicode="&#x201e;" horiz-adv-x="876" d="M86 260h264v-532l-264 -101v633zM526 260h265v-532l-265 -101v633z" />
<glyph unicode="&#x2022;" horiz-adv-x="708" d="M57 717q0 122 87 209.5t210 87.5q122 0 209.5 -88t87.5 -209q0 -123 -87.5 -210t-209.5 -87q-123 0 -210 87t-87 210z" />
<glyph unicode="&#x2026;" horiz-adv-x="1722" d="M90 0v299h281v-299h-281zM721 0v299h280v-299h-280zM1350 0v299h282v-299h-282z" />
<glyph unicode="&#x202f;" horiz-adv-x="373" />
<glyph unicode="&#x2039;" horiz-adv-x="649" d="M10 530l316 529h288l-317 -529l319 -530h-290z" />
<glyph unicode="&#x203a;" horiz-adv-x="649" d="M33 0l319 530l-317 529h287l317 -529l-317 -530h-289z" />
<glyph unicode="&#x205f;" horiz-adv-x="466" />
<glyph unicode="&#x20ac;" horiz-adv-x="1323" d="M61 459v188h129v152h-129v188h129v92q0 162 106 258.5t282 96.5h284q177 0 282 -96.5t105 -256.5v-98h-266v41q0 98 -51.5 141t-169.5 43h-129q-178 0 -178 -184v-37h387v-188h-387v-152h387v-188h-387v-51q0 -183 178 -183h129q120 0 170.5 41.5t50.5 141.5v43h266v-99 q0 -162 -105 -257t-282 -95h-284q-179 0 -283.5 94.5t-104.5 257.5v107h-129z" />
<glyph unicode="&#x2122;" horiz-adv-x="1937" d="M51 1251v183h760v-183h-274v-587h-211v587h-275zM938 664v770h268l183 -416l184 416h262v-770h-213v460l-137 -311h-195l-139 311v-460h-213z" />
<glyph unicode="&#x25fc;" horiz-adv-x="1054" d="M0 0v1055h1055v-1055h-1055z" />
</font>
</defs>
</svg>
